<?xml version="1.0" encoding="utf-8"?>
<!-- Generator: Adobe Illustrator 24.0.2, SVG Export Plug-In . SVG Version: 6.00 Build 0)  -->
<svg version="1.1" id="圖層_1" xmlns="http://www.w3.org/2000/svg" xmlns:xlink="http://www.w3.org/1999/xlink" x="0px" y="0px"
	 viewBox="0 0 360 172" style="enable-background:new 0 0 360 172;" xml:space="preserve">
<style type="text/css">
	.st0{fill-rule:evenodd;clip-rule:evenodd;fill:#FFEEDF;}
	.st1{filter:url(#Adobe_OpacityMaskFilter);}
	.st2{fill-rule:evenodd;clip-rule:evenodd;fill:#FFFFFF;}
	.st3{mask:url(#prefix__b_1_);}
	.st4{opacity:0.706;fill-rule:evenodd;clip-rule:evenodd;fill:url(#SVGID_1_);enable-background:new    ;}
	.st5{opacity:0.707;fill-rule:evenodd;clip-rule:evenodd;fill:url(#SVGID_2_);enable-background:new    ;}
	.st6{opacity:0.88;fill-rule:evenodd;clip-rule:evenodd;fill:url(#SVGID_3_);enable-background:new    ;}
	.st7{filter:url(#Adobe_OpacityMaskFilter_1_);}
	.st8{mask:url(#prefix__b_2_);}
	.st9{opacity:0.803;fill-rule:evenodd;clip-rule:evenodd;fill:url(#SVGID_4_);enable-background:new    ;}
	.st10{fill-rule:evenodd;clip-rule:evenodd;fill:url(#SVGID_5_);}
</style>
<g>
	<path id="prefix__a_1_" class="st0" d="M0,0h360v172H0V0z"/>
</g>
<defs>
	<filter id="Adobe_OpacityMaskFilter" filterUnits="userSpaceOnUse" x="-59" y="-41" width="582.1" height="212.1">
		<feColorMatrix  type="matrix" values="1 0 0 0 0  0 1 0 0 0  0 0 1 0 0  0 0 0 1 0"/>
	</filter>
</defs>
<mask maskUnits="userSpaceOnUse" x="-59" y="-41" width="582.1" height="212.1" id="prefix__b_1_">
	<g class="st1">
		<path id="prefix__a_2_" class="st2" d="M0,0h360v172H0V0z"/>
	</g>
</mask>
<g class="st3">
	<g>
		<linearGradient id="SVGID_1_" gradientUnits="userSpaceOnUse" x1="346.5284" y1="66.6031" x2="355.9197" y2="149.9509">
			<stop  offset="0" style="stop-color:#FFFFFF"/>
			<stop  offset="1" style="stop-color:#FFFFFF;stop-opacity:0"/>
		</linearGradient>
		<path class="st4" d="M434.9,12.5c-12.2,11.5-18.1,25.1-17.5,40.9c0.8,23.6-24.9-5.7-48.4,16.4c-23.5,22.1-18.5,45.6-29.9,46
			c-11.4,0.4-45-21.9-55.4,1.9c-10.5,23.8-25.3,7-42.5,22.8c-17.2,15.7-43.3,23.1-65.4,29.4c-22.1,6.4,255.1-14.5,314.8-83.1
			c59.7-68.6,24.3-141.1-4.4-125.9C467.1-28.9,450-11.7,434.9,12.5z"/>
		
			<linearGradient id="SVGID_2_" gradientUnits="userSpaceOnUse" x1="-238.4536" y1="381.1115" x2="-238.4866" y2="381.0387" gradientTransform="matrix(233 0 0 -80.0002 55621 30608.1055)">
			<stop  offset="0" style="stop-color:#FFFFFF"/>
			<stop  offset="1" style="stop-color:#FFFFFF;stop-opacity:0"/>
		</linearGradient>
		<path class="st5" d="M-48.1,78.8c40.1-6.4,63,4.6,68.8,33.2c24.7-1.4,43.5,8,56.5,28.2c16,11.2,48.3,16.8,96.8,16.8H-59
			L-48.1,78.8z"/>
		
			<linearGradient id="SVGID_3_" gradientUnits="userSpaceOnUse" x1="-237.2449" y1="380.5721" x2="-237.3794" y2="380.1906" gradientTransform="matrix(100.6153 -8.8027 -6.0137 -68.7375 26190.7832 24083.0176)">
			<stop  offset="0" style="stop-color:#FFFFFF"/>
			<stop  offset="1" style="stop-color:#FFFFFF;stop-opacity:0"/>
		</linearGradient>
		<path class="st6" d="M-11-7.7C5.1-13.3,17.3-8.1,25.6,7.8c9.6-1.1,16.4,2,20.4,9.1c5.9,10.7,5.3,23.8,15.8,27.8
			c4.6,3.6,10.1,6.2,16.3,7.6c9.3,2.1-65.7-13.5-92.5-35.4C-32.4,2.3-31.2-5.9-11-7.7L-11-7.7z"/>
	</g>
</g>
<defs>
	<filter id="Adobe_OpacityMaskFilter_1_" filterUnits="userSpaceOnUse" x="87" y="-2" width="207" height="23.8">
		<feColorMatrix  type="matrix" values="1 0 0 0 0  0 1 0 0 0  0 0 1 0 0  0 0 0 1 0"/>
	</filter>
</defs>
<mask maskUnits="userSpaceOnUse" x="87" y="-2" width="207" height="23.8" id="prefix__b_2_">
	<g class="st7">
		<path id="prefix__a_3_" class="st2" d="M0,0h360v172H0V0z"/>
	</g>
</mask>
<g class="st8">
	<g>
		
			<linearGradient id="SVGID_4_" gradientUnits="userSpaceOnUse" x1="-236.5187" y1="372.0377" x2="-237.3336" y2="372.0769" gradientTransform="matrix(90 0 0 -18 21564.0039 6704.9766)">
			<stop  offset="0" style="stop-color:#FFFFFF"/>
			<stop  offset="1" style="stop-color:#FFFFFF;stop-opacity:0"/>
		</linearGradient>
		<path class="st9" d="M223.2,2.5c7.4,1.4,15.1,2.9,23.4,4.7c6,1.2,13.4,3.1,20,4.6c6.3,1.4,11.6,3,18.3,4.4c5,1,9.2,1.2,9.2,0.3
			c0-0.8-4-2.3-8.9-3.3c-4.1-0.8-6-0.8-10-1.5c-3.1-0.6-6.1-1.1-9-1.7c-7.4-1.5-14.6-2.7-21.4-3.9c-15.5-2.9-28-4.9-40.8-7
			C210.1,0,216.5,1.2,223.2,2.5"/>
		
			<linearGradient id="SVGID_5_" gradientUnits="userSpaceOnUse" x1="-237.0491" y1="374.9142" x2="-237.8951" y2="374.9372" gradientTransform="matrix(123.0296 0 0 -23.8486 29374.1055 8951.4375)">
			<stop  offset="0" style="stop-color:#FFFFFF"/>
			<stop  offset="1" style="stop-color:#FFFFFF;stop-opacity:0"/>
		</linearGradient>
		<path class="st10" d="M112.3,2.4c12,2.2,26.5,4.9,40.5,7.9c14.1,3,27.1,7,44,10.4c7.1,1.4,13.1,1.6,13.2,0.4
			c0.1-1.2-5.7-3.3-12.6-4.6c-5.8-1.1-9.7-1.4-15.2-2.4c-12.9-2.4-24.9-4.3-36.2-6.3C124.6,3.9,103.8,0.7,87-2
			C95-0.7,103.5,0.8,112.3,2.4"/>
	</g>
</g>
</svg>
