<svg xmlns="http://www.w3.org/2000/svg" width="24" height="24" viewBox="0 0 24 24">
    <g fill="none" fill-rule="evenodd">
        <g fill="#7E7E7E" fill-rule="nonzero">
            <g>
                <g>
                    <g>
                        <g>
                            <path d="M2.625 10c1.449 0 2.625 1.12 2.625 2.5 0 1.381-1.176 2.5-2.625 2.5C1.175 15 0 13.881 0 12.5 0 11.12 1.175 10 2.625 10zM12 10c1.449 0 2.625 1.12 2.625 2.5 0 1.381-1.176 2.5-2.625 2.5-1.45 0-2.625-1.119-2.625-2.5 0-1.38 1.175-2.5 2.625-2.5zm9.375 0C22.824 10 24 11.12 24 12.5c0 1.381-1.176 2.5-2.625 2.5-1.45 0-2.625-1.119-2.625-2.5 0-1.38 1.175-2.5 2.625-2.5z" transform="translate(-1152.000000, -366.000000) translate(484.000000, 348.000000) translate(24.000000, 16.000000) translate(48.000000, 0.000000) translate(596.000000, 2.000000)"/>
                        </g>
                    </g>
                </g>
            </g>
        </g>
    </g>
</svg>
