<?xml version="1.0" encoding="UTF-8"?>
<svg width="24px" height="24px" viewBox="0 0 24 24" version="1.1" xmlns="http://www.w3.org/2000/svg" xmlns:xlink="http://www.w3.org/1999/xlink">
    <title>25613344-ABFE-4978-B628-79ACA9BCB81A</title>
    <g stroke="none" stroke-width="1" fill="none" fill-rule="evenodd">
        <g  transform="translate(-56.000000, -1657.000000)" fill="#7E7E7E">
            <g transform="translate(40.000000, 1549.000000)">
                <g transform="translate(0.000000, 98.000000)">
                    <g id="icon24/menu" transform="translate(16.000000, 10.000000)">
                        <path d="M22.875,18.5 C23.496,18.5 24,18.948 24,19.5 C24,20.052 23.496,20.5 22.875,20.5 L1.125,20.5 C0.504,20.5 0,20.052 0,19.5 C0,18.948 0.504,18.5 1.125,18.5 L22.875,18.5 Z M22.875,11 C23.496,11 24,11.448 24,12 C24,12.552 23.496,13 22.875,13 L1.125,13 C0.504,13 0,12.552 0,12 C0,11.448 0.504,11 1.125,11 L22.875,11 Z M22.875,3.5 C23.496,3.5 24,3.948 24,4.5 C24,5.052 23.496,5.5 22.875,5.5 L1.125,5.5 C0.504,5.5 0,5.052 0,4.5 C0,3.948 0.504,3.5 1.125,3.5 L22.875,3.5 Z" id="Combined-Shape"></path>
                    </g>
                </g>
            </g>
        </g>
    </g>
</svg>