<?xml version="1.0" encoding="utf-8"?>
<!-- Generator: Adobe Illustrator 24.0.2, SVG Export Plug-In . SVG Version: 6.00 Build 0)  -->
<svg version="1.1" id="圖層_1" xmlns="http://www.w3.org/2000/svg" xmlns:xlink="http://www.w3.org/1999/xlink" x="0px" y="0px"
	 viewBox="0 0 16 16" style="enable-background:new 0 0 16 16;" xml:space="preserve">
<style type="text/css">
	.st0{fill:#7E7E7E;}
	.st1{fill:none;}
</style>
<g>
	<g>
		<path class="st0" d="M12.7,16H2.3C1,16,0,15,0,13.7V3.3C0,2,1,1,2.3,1h4.3c0.5,0,0.8,0.4,0.8,0.8S7.1,2.7,6.6,2.7H2.3
			C2,2.7,1.7,2.9,1.7,3.3v10.5c0,0.3,0.3,0.6,0.6,0.6h10.5c0.3,0,0.6-0.3,0.6-0.6v-4c0-0.5,0.4-0.8,0.8-0.8S15,9.3,15,9.7v4
			C15,15,14,16,12.7,16z"/>
		<path class="st0" d="M15.2,7.1c-0.5,0-0.8-0.4-0.8-0.8V1.7H9.5C9,1.7,8.6,1.3,8.6,0.8S9,0,9.5,0h5.7C15.6,0,16,0.4,16,0.8v5.4
			C16,6.7,15.6,7.1,15.2,7.1z"/>
		<path class="st0" d="M7.5,9.3c-0.2,0-0.4-0.1-0.6-0.2c-0.3-0.3-0.3-0.9,0-1.2l7.6-7.6c0.3-0.3,0.9-0.3,1.2,0s0.3,0.9,0,1.2
			L8.1,9.1C7.9,9.3,7.7,9.3,7.5,9.3z"/>
	</g>
	<rect class="st1" width="16" height="16"/>
</g>
</svg>
