<?xml version="1.0" encoding="utf-8"?>
<!-- Generator: Adobe Illustrator 24.0.2, SVG Export Plug-In . SVG Version: 6.00 Build 0)  -->
<svg version="1.1" id="圖層_1" xmlns="http://www.w3.org/2000/svg" xmlns:xlink="http://www.w3.org/1999/xlink" x="0px" y="0px"
	 viewBox="0 0 16 16" style="enable-background:new 0 0 16 16;" xml:space="preserve">
<style type="text/css">
	.st0{fill:#7E7E7E;}
	.st1{fill:none;}
</style>
<g>
	<g>
		<path class="st0" d="M11.8,14.5H3.4c-1.1,0-1.9-0.8-1.9-1.9V4.2c0-1.1,0.8-1.9,1.9-1.9h3.5c0.4,0,0.6,0.3,0.6,0.6S7.3,3.7,6.9,3.7
			H3.4c-0.2,0-0.5,0.2-0.5,0.5v8.5c0,0.2,0.2,0.5,0.5,0.5h8.5c0.2,0,0.5-0.2,0.5-0.5V9.5c0-0.4,0.3-0.6,0.6-0.6s0.6,0.2,0.6,0.6v3.2
			C13.7,13.7,12.9,14.5,11.8,14.5z"/>
		<path class="st0" d="M13.8,7.3c-0.4,0-0.6-0.3-0.6-0.6V2.9h-4c-0.4,0-0.7-0.3-0.7-0.7s0.3-0.6,0.7-0.6h4.6c0.3,0,0.6,0.3,0.6,0.6
			v4.4C14.5,6.9,14.2,7.3,13.8,7.3z"/>
		<path class="st0" d="M7.6,9.1C7.4,9.1,7.3,9,7.1,8.9c-0.2-0.2-0.2-0.7,0-1l6.2-6.2c0.2-0.2,0.7-0.2,1,0c0.2,0.2,0.2,0.7,0,1
			L8.1,8.9C7.9,9.1,7.8,9.1,7.6,9.1z"/>
	</g>
	<rect y="0" class="st1" width="16" height="16"/>
</g>
</svg>
