<?xml version="1.0" encoding="utf-8"?>
<!-- Generator: Adobe Illustrator 24.0.2, SVG Export Plug-In . SVG Version: 6.00 Build 0)  -->
<svg version="1.1" id="圖層_1" xmlns="http://www.w3.org/2000/svg" xmlns:xlink="http://www.w3.org/1999/xlink" x="0px" y="0px"
	 viewBox="0 0 24 24" style="enable-background:new 0 0 24 24;" xml:space="preserve">
<style type="text/css">
	.st0{fill-rule:evenodd;clip-rule:evenodd;fill:#7E7E7E;}
</style>
<g>
	<g>
		<g>
			<g>
				<g>
					<g>
						<g>
							<g>
								<path class="st0" d="M12,2.9c0.6,0,1.2,0.3,1.5,1L15,7.1c0.2,0.5,0.7,0.9,1.2,0.9l3.4,0.5c1.4,0.2,1.9,1.9,0.9,2.9L18.1,14
									c-0.4,0.4-0.6,1-0.5,1.5l0.6,3.6c0.2,1.1-0.7,2-1.6,2c-0.3,0-0.5-0.1-0.8-0.2l-3.1-1.7C12.5,19.1,12.3,19,12,19
									s-0.5,0.1-0.8,0.2l-3.1,1.7c-0.3,0.1-0.5,0.2-0.8,0.2c-1,0-1.8-0.9-1.6-2l0.6-3.6C6.4,15,6.3,14.4,5.9,14l-2.5-2.5
									c-1-1-0.4-2.7,0.9-2.9L7.7,8c0.5-0.1,1-0.4,1.2-0.9l1.5-3.2C10.8,3.2,11.4,2.9,12,2.9z M12,4.7l-1.5,3.1
									c-0.4,1-1.3,1.6-2.3,1.9L8,9.7l-3.4,0.5c0,0,0,0,0,0l0,0l2.5,2.5c0.7,0.7,1.1,1.7,1,2.8l0,0.2l-0.6,3.5l3-1.6
									c0.4-0.2,0.9-0.4,1.3-0.4l0.2,0c0.5,0,0.9,0.1,1.4,0.3l0.2,0.1l3,1.6L16,15.8c-0.2-1,0.1-2.1,0.8-2.8l0.2-0.2l2.5-2.5l0,0
									c0,0,0,0,0,0l0,0L16,9.7c-1-0.2-1.9-0.8-2.4-1.7l-0.1-0.2L12,4.7z"/>
							</g>
						</g>
					</g>
				</g>
			</g>
		</g>
	</g>
</g>
</svg>
