<svg xmlns="http://www.w3.org/2000/svg" width="16" height="16" viewBox="0 0 16 16">
    <g fill="none" fill-rule="evenodd">
        <g fill="#7E7E7E" fill-rule="nonzero">
            <g>
                <g>
                    <g>
                        <g>
                            <path d="M4.533 1.727c-.29.293-.29.766 0 1.06L9.867 8l-5.334 5.213c-.296.29-.302.764-.013 1.06.289.297.764.303 1.06.014l5.86-5.754c.145-.14.227-.332.227-.533s-.082-.394-.227-.533L5.593 1.713c-.142-.14-.333-.216-.532-.214-.2.003-.39.085-.528.228z" transform="translate(-568 -1348) translate(444 1326) translate(24 16) translate(48) translate(52 6)"/>
                        </g>
                    </g>
                </g>
            </g>
        </g>
    </g>
</svg>
