<svg xmlns="http://www.w3.org/2000/svg" width="32" height="32" viewBox="0 0 32 32">
    <g fill="none" fill-rule="evenodd">
        <g>
            <g>
                <g>
                    <g>
                        <path fill="#1DA1F2" d="M16 0c8.837 0 16 7.163 16 16s-7.163 16-16 16S0 24.837 0 16 7.163 0 16 0" transform="translate(-587 -856) translate(435 812) translate(24 44) translate(128)"/>
                        <path fill="#FFF" d="M13.072 24.44c7.096 0 10.976-5.88 10.976-10.976 0-.168 0-.336-.008-.496.752-.544 1.408-1.224 1.928-2-.688.304-1.432.512-2.216.608.8-.48 1.408-1.232 1.696-2.136-.744.44-1.568.76-2.448.936-.704-.752-1.704-1.216-2.816-1.216-2.128 0-3.856 1.728-3.856 3.856 0 .304.032.6.104.88-3.208-.16-6.048-1.696-7.952-4.032-.328.568-.52 1.232-.52 1.936 0 1.336.68 2.52 1.72 3.208-.632-.016-1.224-.192-1.744-.48v.048c0 1.872 1.328 3.424 3.096 3.784-.32.088-.664.136-1.016.136-.248 0-.488-.024-.728-.072.488 1.536 1.912 2.648 3.6 2.68-1.32 1.032-2.984 1.648-4.792 1.648-.312 0-.616-.016-.92-.056 1.688 1.104 3.72 1.744 5.896 1.744" transform="translate(-587 -856) translate(435 812) translate(24 44) translate(128)"/>
                    </g>
                </g>
            </g>
        </g>
    </g>
</svg>
