<?xml version="1.0" encoding="utf-8"?>
<!-- Generator: Adobe Illustrator 23.0.6, SVG Export Plug-In . SVG Version: 6.00 Build 0)  -->
<svg version="1.1" id="圖層_1" xmlns="http://www.w3.org/2000/svg" xmlns:xlink="http://www.w3.org/1999/xlink" x="0px" y="0px"
	 viewBox="0 0 32 32" style="enable-background:new 0 0 32 32;" xml:space="preserve">
<style type="text/css">
	.st0{fill-rule:evenodd;clip-rule:evenodd;fill:#39C8D0;}
	.st1{fill:#FFFFFF;stroke:#FFFFFF;stroke-width:0.5;}
</style>
<g>
	<g>
		<g>
			<g>
				<g transform="translate(-651 -856) translate(435 812) translate(24 44) translate(192)">
					<circle class="st0" cx="16" cy="16" r="15.9"/>
					<path class="st1" d="M15.5,13.6c0.2-0.3,0.5-0.4,0.8-0.2c0.3,0.2,0.7,0.4,0.9,0.7c1.5,1.5,1.5,4,0,5.5l0,0l-2.6,2.6
						c-1.5,1.5-4,1.5-5.5,0c-1.5-1.5-1.5-4,0-5.5l0,0l1.9-1.9c0.2-0.2,0.6-0.2,0.8,0c0.2,0.2,0.2,0.6,0,0.8l0,0L10,17.5
						c-1.1,1.1-1.1,2.8,0,3.8c1.1,1.1,2.8,1.1,3.8,0l0,0l2.6-2.6c1.1-1.1,1.1-2.8,0-3.8c-0.2-0.2-0.4-0.4-0.7-0.5
						C15.5,14.3,15.4,13.9,15.5,13.6L15.5,13.6z M16.7,9.2c1.5-1.5,4-1.5,5.5,0c1.5,1.5,1.5,4,0,5.5l0,0l-1.6,1.6
						c-0.2,0.2-0.6,0.2-0.8,0c-0.2-0.2-0.2-0.6,0-0.8l0,0l1.6-1.6c1.1-1.1,1.1-2.8,0-3.8c-1.1-1.1-2.8-1.1-3.8,0l0,0l-2.6,2.6
						c-1.1,1.1-1.1,2.8,0,3.8c0.2,0.1,0.3,0.3,0.5,0.4c0.3,0.2,0.4,0.5,0.2,0.8S15,18,14.8,17.8c-0.3-0.2-0.5-0.3-0.7-0.6
						c-1.5-1.5-1.5-4,0-5.5l0,0L16.7,9.2z"/>
				</g>
			</g>
		</g>
	</g>
</g>
</svg>
