<svg xmlns="http://www.w3.org/2000/svg" width="24" height="24" viewBox="0 0 24 24">
    <path fill="#A9A9A9" fill-rule="evenodd" d="M21.588 10.954c-.041.062-.213.306-.213.306-.113.164-.198.293-.282.435-.314.543-.485 1.093-.42 1.755.037.353.145.69.317 1 .076.138.17.572.179 1.024.008.391-.053.678-.029.645-.48.638-.63 1.367-.527 2.11.032.225.082.433.154.666.035.114.172.523.143.438.163.5.171.682.003 1.06-.357.798-.51.888-1.785 1.122l-.358.064-.206.038H8.178v-6.252c0-.552-.448-1-1-1-.553 0-1 .448-1 1v6.252h-4v-9.199h3.768c.94 0 1.712-.359 2.225-1.177.1-.159.344-.644.397-.737.162-.283.377-.596.702-.986.38-.458.335-.415.943-.952.077-.068.146-.132.216-.2.487-.48.868-1.06 1.502-2.258.68-1.286.803-2.236.673-3.484 0-.004 0-.007-.002-.01 0 0 .002 0 .002-.002.778-.562 2.058-.124 2.637 1.296.252.62.219 1.2-.053 2.05-.038.117-.175.52-.19.563-.098.303-.159.522-.195.776-.203 1.404.744 2.655 2.29 2.655h4.137c.433-.018.436-.017.537.271.099.276.08.351-.178.731m1.15 2.527c-.514-.926 1.7-1.722.912-3.93-.4-1.122-1.207-1.655-2.421-1.599h-4.137c-.671 0-.119-.775.17-1.99-.058-.006-.115-.01-.17-.01h.172c.184-.78.258-1.744-.172-2.8C15.989.45 13.198-.287 11.43.992c-1.767 1.28-.03 1.837-1.268 4.181-1.24 2.344-1.074 1.433-2.432 3.068-1.484 1.787-1.003 2.177-1.785 2.177l-3.768.001c-1.105 0-2 .894-2 2v9.198c0 1.105.895 2 2 2H18.752c1.799-.35 3.074-.363 3.986-2.409.913-2.045-.631-3.046 0-3.887.634-.84.515-2.913 0-3.84"/>
</svg>
