<?xml version="1.0" encoding="utf-8"?>
<!-- Generator: Adobe Illustrator 24.0.2, SVG Export Plug-In . SVG Version: 6.00 Build 0)  -->
<svg version="1.1" id="圖層_1" xmlns="http://www.w3.org/2000/svg" xmlns:xlink="http://www.w3.org/1999/xlink" x="0px" y="0px"
	 viewBox="0 0 24 24" style="enable-background:new 0 0 24 24;" xml:space="preserve">
<style type="text/css">
	.st0{fill-rule:evenodd;clip-rule:evenodd;fill:#00AFB8;}
	.st1{fill-rule:evenodd;clip-rule:evenodd;fill:#39C8D0;}
</style>
<path class="st0" d="M22.7,13.5c-0.5-0.9,1.7-1.7,0.9-3.9c-0.4-1.1-1.2-1.7-2.4-1.6h-4.1c-0.7,0-0.1-0.8,0.2-2c-0.1,0-0.1,0-0.2,0
	h0.2c0.2-0.8,0.3-1.7-0.2-2.8C16,0.4,13.2-0.3,11.4,1c-1.8,1.3,0,1.8-1.3,4.2C8.9,7.5,9.1,6.6,7.7,8.2c-1.5,1.8-1,2.2-1.8,2.2
	l-3.8,0c-1.1,0-2,0.9-2,2v9.2c0,1.1,0.9,2,2,2h16.6c1.8-0.4,3.1-0.4,4-2.4c0.9-2-0.6-3,0-3.9C23.4,16.5,23.3,14.4,22.7,13.5
	 M21.6,11c0,0.1-0.2,0.3-0.2,0.3c-0.1,0.2-0.2,0.3-0.3,0.4c-0.3,0.5-0.5,1.1-0.4,1.8c0,0.4,0.1,0.7,0.3,1c0.1,0.1,0.2,0.6,0.2,1
	c0,0.4-0.1,0.7,0,0.6c-0.5,0.6-0.6,1.4-0.5,2.1c0,0.2,0.1,0.4,0.2,0.7c0,0.1,0.2,0.5,0.1,0.4c0.2,0.5,0.2,0.7,0,1.1
	c-0.4,0.8-0.5,0.9-1.8,1.1l-0.4,0.1l-0.2,0H8.2v-6.3c0-0.6-0.4-1-1-1c-0.6,0-1,0.4-1,1v6.3h-4v-9.2h3.8c0.9,0,1.7-0.4,2.2-1.2
	c0.1-0.2,0.3-0.6,0.4-0.7c0.2-0.3,0.4-0.6,0.7-1c0.4-0.5,0.3-0.4,0.9-1c0.1-0.1,0.1-0.1,0.2-0.2c0.5-0.5,0.9-1.1,1.5-2.3
	c0.7-1.3,0.8-2.2,0.7-3.5c0,0,0,0,0,0c0,0,0,0,0,0c0.8-0.6,2.1-0.1,2.6,1.3c0.3,0.6,0.2,1.2-0.1,2c0,0.1-0.2,0.5-0.2,0.6
	c-0.1,0.3-0.2,0.5-0.2,0.8c-0.2,1.4,0.7,2.7,2.3,2.7h4.1c0.4,0,0.4,0,0.5,0.3C21.9,10.5,21.8,10.6,21.6,11"/>
<path class="st1" d="M21.6,11c0,0.1-0.2,0.3-0.2,0.3c-0.1,0.2-0.2,0.3-0.3,0.4c-0.3,0.5-0.5,1.1-0.4,1.8c0,0.4,0.1,0.7,0.3,1
	c0.1,0.1,0.2,0.6,0.2,1c0,0.4-0.1,0.7,0,0.6c-0.5,0.6-0.6,1.4-0.5,2.1c0,0.2,0.1,0.4,0.2,0.7c0,0.1,0.2,0.5,0.1,0.4
	c0.2,0.5,0.2,0.7,0,1.1c-0.4,0.8-0.5,0.9-1.8,1.1l-0.4,0.1l-0.2,0H8.2v-6.3c0-0.6-0.4-1-1-1c-0.6,0-1,0.4-1,1v6.3h-4v-9.2h3.8
	c0.9,0,1.7-0.4,2.2-1.2c0.1-0.2,0.3-0.6,0.4-0.7c0.2-0.3,0.4-0.6,0.7-1c0.4-0.5,0.3-0.4,0.9-1c0.1-0.1,0.1-0.1,0.2-0.2
	c0.5-0.5,0.9-1.1,1.5-2.3c0.7-1.3,0.8-2.2,0.7-3.5c0,0,0,0,0,0c0,0,0,0,0,0c0.8-0.6,2.1-0.1,2.6,1.3c0.3,0.6,0.2,1.2-0.1,2
	c0,0.1-0.2,0.5-0.2,0.6c-0.1,0.3-0.2,0.5-0.2,0.8c-0.2,1.4,0.7,2.7,2.3,2.7h4.1c0.4,0,0.4,0,0.5,0.3C21.9,10.5,21.8,10.6,21.6,11"/>
</svg>
