<?xml version="1.0" encoding="utf-8"?>
<!-- Generator: Adobe Illustrator 24.0.2, SVG Export Plug-In . SVG Version: 6.00 Build 0)  -->
<svg version="1.1" id="圖層_1" xmlns="http://www.w3.org/2000/svg" xmlns:xlink="http://www.w3.org/1999/xlink" x="0px" y="0px"
	 viewBox="0 0 24 24" style="enable-background:new 0 0 24 24;" xml:space="preserve">
<style type="text/css">
	.st0{fill-rule:evenodd;clip-rule:evenodd;fill:#39C8D0;}
</style>
<g>
	<path class="st0" d="M7.4,9.2c0.6,0,1,0.5,1,1c0,0.6-0.5,1-1,1c-0.6,0-1-0.5-1-1C6.3,9.6,6.8,9.2,7.4,9.2 M12,9.2c0.6,0,1,0.5,1,1
		c0,0.6-0.5,1-1,1c-0.6,0-1-0.5-1-1C10.9,9.6,11.4,9.2,12,9.2 M16.6,9.2c0.6,0,1,0.5,1,1c0,0.6-0.5,1-1,1s-1-0.5-1-1
		C15.5,9.6,16,9.2,16.6,9.2"/>
	<path class="st0" d="M5.4,22.4c-0.3,0-0.6-0.1-0.8-0.2c-0.5-0.3-0.8-0.8-0.8-1.4v-0.1L4,17.2c0-0.6,0.5-1,1-1c0.6,0,1,0.5,0.9,1
		L5.8,20l3.8-2.6c0.2-0.1,0.4-0.2,0.6-0.2h4.4c3.8,0,6.8-3.1,6.8-6.8s-3.1-6.8-6.8-6.8h-5c-3.8,0-6.8,3.1-6.8,6.8
		c0,1.3,0.3,2.5,1,3.5c0.3,0.5,0.1,1.1-0.3,1.4C3,15.6,2.4,15.4,2.1,15c-0.8-1.4-1.3-2.9-1.3-4.5c0-4.9,4-8.8,8.8-8.8h5
		c4.9,0,8.8,4,8.8,8.8c0,4.9-4,8.8-8.8,8.8h-4l-4.2,2.8c0,0-0.1,0-0.1,0.1C5.9,22.3,5.7,22.4,5.4,22.4"/>
</g>
</svg>
