<?xml version="1.0" encoding="utf-8"?>
<!-- Generator: Adobe Illustrator 23.0.6, SVG Export Plug-In . SVG Version: 6.00 Build 0)  -->
<svg version="1.1" id="圖層_1" xmlns="http://www.w3.org/2000/svg" xmlns:xlink="http://www.w3.org/1999/xlink" x="0px" y="0px"
	 viewBox="0 0 120 120" style="enable-background:new 0 0 120 120;" xml:space="preserve">
<style type="text/css">
	.st0{fill:#FFFFFF;}
	.st1{fill:#FDFEFE;}
	.st2{fill:#E5A577;}
	.st3{fill:#F9FBFA;}
	.st4{fill:#FFFFFB;}
	.st5{fill:#FDFCF7;}
	.st6{fill:#FFFEFF;}
	.st7{fill:#FBF7E8;}
	.st8{fill:#E0A57B;}
	.st9{fill:#E0B087;}
	.st10{fill:#DFB38D;}
	.st11{fill:#D9AB8D;}
	.st12{fill:#FFFFFA;}
	.st13{fill:#E4A578;}
	.st14{fill:#F8FAF2;}
	.st15{fill:#FCFCF3;}
	.st16{fill:#FBFBFA;}
	.st17{fill:#FEFEF7;}
	.st18{fill:#DCB195;}
	.st19{fill:#FDECD1;}
	.st20{fill:#F9F4E7;}
	.st21{fill:#FEFEFE;}
	.st22{fill:#FEF4F3;}
	.st23{fill:#F6F0E6;}
	.st24{fill:#F9FCFE;}
	.st25{fill:#FEFDF0;}
	.st26{fill:#F7FCFD;}
	.st27{fill:#EABEA0;}
	.st28{fill:#E0AB85;}
	.st29{fill:#FDE8CD;}
	.st30{fill:#FEF2E0;}
	.st31{fill:#DFA87C;}
	.st32{fill:#FDFBF3;}
	.st33{fill:#FDF9F3;}
	.st34{fill:#E4A885;}
	.st35{fill:#F8FCFD;}
	.st36{fill:#F9FCFD;}
	.st37{fill:#E2B38F;}
	.st38{fill:#EEF7F9;}
	.st39{fill:#E2B394;}
	.st40{fill:#FAF6EE;}
	.st41{fill:#FFFCF3;}
	.st42{fill:#FAF9F6;}
	.st43{fill:#F9F9F6;}
	.st44{fill:#FEFCFB;}
	.st45{fill:#F5E4D5;}
	.st46{fill:#FAFCFC;}
	.st47{fill:#FCF8F3;}
	.st48{fill:#E2A478;}
	.st49{fill:#FDF6E9;}
	.st50{fill:#E2A97F;}
	.st51{fill:#FFFEFA;}
	.st52{fill:#FFFDF9;}
	.st53{fill:#F9F0D6;}
	.st54{fill:#FEF8F5;}
	.st55{fill:#FBFBFB;}
	.st56{fill:#FBFDFD;}
	.st57{fill:#E2A676;}
	.st58{fill:#E3A77C;}
	.st59{fill:#FEFEF6;}
	.st60{fill:#E5C2AB;}
	.st61{fill:#E7A67B;}
	.st62{fill:#FAEEDD;}
	.st63{fill:#F2E7D8;}
	.st64{fill:#E1C1AC;}
	.st65{fill:#DFA67E;}
	.st66{fill:#E0A87F;}
	.st67{fill:#E1A579;}
	.st68{fill:#E6A66E;}
	.st69{fill:#E6A37B;}
	.st70{fill:#ECA16B;}
	.st71{fill:#FCFBF7;}
	.st72{fill:#E2BDA6;}
	.st73{fill:#DFAD93;}
	.st74{fill:#E8AC80;}
	.st75{fill:#DBA579;}
	.st76{fill:#DAAF84;}
	.st77{fill:#EFDCC9;}
	.st78{fill:#E1A57B;}
	.st79{fill:#E7A371;}
	.st80{fill:#FCF2E5;}
	.st81{fill:#E8A26E;}
	.st82{fill:#E7A77E;}
	.st83{fill:#D5A982;}
	.st84{fill:#DBB797;}
	.st85{fill:#E3A476;}
	.st86{fill:#E0A57C;}
	.st87{fill:#DEA773;}
	.st88{fill:#E4A376;}
	.st89{fill:#E5A081;}
	.st90{fill:#E9A075;}
	.st91{fill:#E4A374;}
	.st92{fill:#DFAA85;}
	.st93{fill:#E5A679;}
	.st94{fill:#D9A988;}
	.st95{fill:#E7AD81;}
	.st96{fill:#DEAB87;}
	.st97{fill:#E4A379;}
	.st98{fill:#BD631E;}
	.st99{fill:#E1A574;}
	.st100{fill:#E4A67A;}
	.st101{fill:#CD8759;}
	.st102{fill:#E9A477;}
	.st103{fill:#E59E6A;}
	.st104{fill:#B15822;}
	.st105{fill:#E5A77C;}
	.st106{fill:#E6A97D;}
	.st107{fill:#E1A879;}
	.st108{fill:#BE6224;}
	.st109{fill:#E4A87B;}
	.st110{fill:#E0AA81;}
	.st111{fill:#FFF8EA;}
	.st112{fill:#DCAA8D;}
	.st113{fill:#E7A36D;}
	.st114{fill:#E0A47E;}
	.st115{fill:#E3A277;}
	.st116{fill:#E39F6B;}
	.st117{fill:#DCA77D;}
	.st118{fill:#E8A476;}
	.st119{fill:#ECA376;}
	.st120{fill:#E5A987;}
	.st121{fill:#DB9D79;}
	.st122{fill:#E4A57B;}
	.st123{fill:#E5AA7B;}
	.st124{fill:#E1A776;}
	.st125{fill:#E4A272;}
	.st126{fill:#E9A77A;}
	.st127{fill:#E4A273;}
	.st128{fill:#E5A27A;}
	.st129{fill:#E1A173;}
	.st130{fill:#E2A882;}
	.st131{fill:#DFA37F;}
	.st132{fill:#EEA873;}
	.st133{fill:#DFA477;}
	.st134{fill:#DE9664;}
	.st135{fill:#E9A278;}
	.st136{fill:#BB662B;}
	.st137{fill:#E2A075;}
	.st138{fill:#E1A47F;}
	.st139{fill:#E7A172;}
	.st140{fill:#E89762;}
	.st141{fill:#E7A376;}
	.st142{fill:#E99A65;}
	.st143{fill:#E7A27B;}
	.st144{fill:#E89D75;}
	.st145{fill:#EBA372;}
	.st146{fill:#ECA46F;}
	.st147{fill:#ECA06E;}
	.st148{fill:#E8A478;}
	.st149{fill:#E2A587;}
	.st150{fill:#E2A479;}
	.st151{fill:#E9A270;}
	.st152{fill:#ECA06A;}
	.st153{fill:#E7A47D;}
	.st154{fill:#E3A583;}
	.st155{fill:#E8A46B;}
	.st156{fill:#C1621D;}
	.st157{fill:#B95A20;}
	.st158{fill:#E0894A;}
	.st159{fill:#A95724;}
	.st160{fill:#C6651B;}
	.st161{fill:#DE9061;}
	.st162{fill:#E49967;}
	.st163{fill:#DE9566;}
	.st164{fill:#EAA273;}
	.st165{fill:#E8A274;}
	.st166{fill:#E7A579;}
	.st167{fill:#DD8C58;}
	.st168{fill:#AE5A23;}
	.st169{fill:#E6A275;}
	.st170{fill:#E1A47A;}
	.st171{fill:#E1AA80;}
	.st172{fill:#D99F70;}
	.st173{fill:#DEA476;}
	.st174{fill:#BE7032;}
	.st175{fill:#BE6023;}
	.st176{fill:#A04D25;}
	.st177{fill:#E49C6C;}
	.st178{fill:#E5A678;}
	.st179{fill:#E6A57C;}
	.st180{fill:#E3A67E;}
	.st181{fill:#E1A978;}
	.st182{fill:#DFA784;}
	.st183{fill:#ECA57F;}
	.st184{fill:#E5A57D;}
	.st185{fill:#E4A474;}
	.st186{fill:#E2A572;}
	.st187{fill:#E8A174;}
	.st188{fill:#DEA582;}
	.st189{fill:#D79F6C;}
	.st190{fill:#DFA57A;}
	.st191{fill:#EBA377;}
	.st192{fill:#E3A477;}
	.st193{fill:#EDAA79;}
	.st194{fill:#E4AA80;}
	.st195{fill:#DDA67D;}
	.st196{fill:#E0A47F;}
	.st197{fill:#E49C6A;}
	.st198{fill:#AA4E23;}
	.st199{fill:#E0A174;}
	.st200{fill:#D07D44;}
	.st201{fill:#A95523;}
	.st202{fill:#EAA16E;}
	.st203{fill:#EBAA79;}
	.st204{fill:#AF5622;}
	.st205{fill:#E09B6D;}
	.st206{fill:#E3A67C;}
	.st207{fill:#E49966;}
	.st208{fill:#E49765;}
	.st209{fill:#E59865;}
	.st210{fill:#DB8E5A;}
	.st211{fill:#E3A47F;}
	.st212{fill:#E0A880;}
	.st213{fill:#E8A37D;}
	.st214{fill:#E6A374;}
	.st215{fill:#E4A472;}
	.st216{fill:#E2A382;}
	.st217{fill:#E3A776;}
	.st218{fill:#B05122;}
	.st219{fill:#C26923;}
	.st220{fill:#CA6A22;}
	.st221{fill:#D78147;}
	.st222{fill:#E48D57;}
	.st223{fill:#E58E56;}
	.st224{fill:#BA6122;}
	.st225{fill:#E49764;}
	.st226{fill:#E29461;}
	.st227{fill:#D78758;}
	.st228{fill:#D8864B;}
	.st229{fill:#E39765;}
	.st230{fill:#E99A6B;}
	.st231{fill:#B35B22;}
	.st232{fill:#BC6321;}
	.st233{fill:#B25621;}
	.st234{fill:#E4A16C;}
	.st235{fill:#E4A37A;}
	.st236{fill:#DFA270;}
	.st237{fill:#F4A167;}
	.st238{fill:#AF5223;}
	.st239{fill:#A55023;}
	.st240{fill:#A54A23;}
	.st241{fill:#E5A374;}
	.st242{fill:#E0A672;}
	.st243{fill:#E99F7E;}
	.st244{fill:#DF854B;}
	.st245{fill:#A24524;}
	.st246{fill:#D67C42;}
	.st247{fill:#B35F2D;}
	.st248{fill:#9E4824;}
	.st249{fill:#9F4524;}
	.st250{fill:#9A4824;}
	.st251{fill:#E5A875;}
	.st252{fill:#E89966;}
	.st253{fill:#E69D6D;}
	.st254{fill:#E7A87B;}
	.st255{fill:#E6A57B;}
	.st256{fill:#E2A375;}
	.st257{fill:#E79A67;}
	.st258{fill:#E19562;}
	.st259{fill:#E88E5F;}
	.st260{fill:#E69869;}
	.st261{fill:#D88B58;}
	.st262{fill:#D38755;}
	.st263{fill:#D49368;}
	.st264{fill:#E3A172;}
	.st265{fill:#E3A378;}
	.st266{fill:#E7A17A;}
	.st267{fill:#EB9862;}
	.st268{fill:#F1A16A;}
	.st269{fill:#BD6934;}
	.st270{fill:#D78241;}
	.st271{fill:#EE985D;}
	.st272{fill:#D17B38;}
	.st273{fill:#B26428;}
	.st274{fill:#D58242;}
	.st275{fill:#DE8D57;}
	.st276{fill:#D2926E;}
	.st277{fill:#D78A57;}
	.st278{fill:#BF621E;}
	.st279{fill:#B05D22;}
	.st280{fill:#C26C1C;}
	.st281{fill:#C1661F;}
	.st282{fill:#C8651F;}
	.st283{fill:#C86A20;}
	.st284{fill:#DFA676;}
	.st285{fill:#DEA67C;}
	.st286{fill:#AB4F23;}
	.st287{fill:#AC4F23;}
	.st288{fill:#D98247;}
	.st289{fill:#D37F42;}
	.st290{fill:#EB9258;}
	.st291{fill:#E4915D;}
	.st292{fill:#EA9D6D;}
	.st293{fill:#E89C69;}
	.st294{fill:#CD905F;}
	.st295{fill:#DE915E;}
	.st296{fill:#DF8853;}
	.st297{fill:#C57B4B;}
	.st298{fill:#C9865D;}
	.st299{fill:#D0884F;}
	.st300{fill:#AF5324;}
	.st301{fill:#B85D25;}
	.st302{fill:#AD6426;}
	.st303{fill:#F29D65;}
	.st304{fill:#F3A06B;}
	.st305{fill:#AA5E2C;}
	.st306{fill:#ED9B57;}
	.st307{fill:#DF9858;}
	.st308{fill:#E9925C;}
	.st309{fill:#CB7B46;}
	.st310{fill:#B46F32;}
	.st311{fill:#FCF2E4;}
	.st312{fill:#DDBA91;}
	.st313{fill:#F7E3CD;}
	.st314{fill:#BA631E;}
	.st315{fill:#B85B22;}
	.st316{fill:#CA6A20;}
	.st317{fill:#CA6E29;}
	.st318{fill:#C46821;}
	.st319{fill:#DE8442;}
	.st320{fill:#E1854E;}
	.st321{fill:#DD8447;}
	.st322{fill:#DE8649;}
	.st323{fill:#E59158;}
	.st324{fill:#F19259;}
	.st325{fill:#D87136;}
	.st326{fill:#EC925B;}
	.st327{fill:#DF7A40;}
	.st328{fill:#F0965D;}
	.st329{fill:#EB8D51;}
	.st330{fill:#F6EEE1;}
	.st331{fill:#C06523;}
	.st332{fill:#E6C9A9;}
	.st333{fill:#E28945;}
	.st334{fill:#B35921;}
	.st335{fill:#EB9A64;}
	.st336{fill:#F39E67;}
	.st337{fill:#EEA06F;}
	.st338{fill:#F4A76E;}
	.st339{fill:#F0A26B;}
	.st340{fill:#7C4A22;}
	.st341{fill:#FCF1E7;}
	.st342{fill:#D0844D;}
	.st343{fill:#F5FBFC;}
	.st344{fill:#FCF5F3;}
	.st345{fill:#E08A4F;}
	.st346{fill:#CF7836;}
	.st347{fill:#EA965A;}
	.st348{fill:#F19A66;}
	.st349{fill:#EB9360;}
	.st350{fill:#EF995E;}
	.st351{fill:#F0955A;}
	.st352{fill:#F19B65;}
	.st353{fill:#DA864E;}
	.st354{fill:#DE8B52;}
	.st355{fill:#D27F46;}
	.st356{fill:#E87D40;}
	.st357{fill:#B48864;}
	.st358{fill:#FCFDFF;}
	.st359{fill:#F6EDDF;}
	.st360{fill:#FAD9B9;}
	.st361{fill:#CDB6A4;}
	.st362{fill:#FDEDD5;}
	.st363{fill:#F8D4B8;}
	.st364{fill:#D7A179;}
	.st365{fill:#9F5024;}
	.st366{fill:#AA6029;}
	.st367{fill:#DA9054;}
	.st368{fill:#EFBC92;}
	.st369{fill:#FAEFDC;}
	.st370{fill:#FBE2CA;}
	.st371{fill:#F9E8DA;}
	.st372{fill:#DEBBAE;}
	.st373{fill:#DE8A51;}
	.st374{fill:#CC7B46;}
	.st375{fill:#DE894B;}
	.st376{fill:#EC9D6D;}
	.st377{fill:#775941;}
	.st378{fill:#F8FCFE;}
	.st379{fill:#FDF4E8;}
	.st380{fill:#F2D1B3;}
	.st381{fill:#EB925B;}
	.st382{fill:#DE9D72;}
	.st383{fill:#E5A275;}
	.st384{fill:#E1925B;}
	.st385{fill:#C77940;}
	.st386{fill:#E5CDBC;}
	.st387{fill:#EA9E6B;}
</style>
<g>
	<path class="st0" d="M121,74.4c0,14.5-0.1,29.1,0.1,43.6c0,2.5-0.6,3.1-3,3c-11.9-0.1-23.8-0.1-35.7-0.1c-0.7-0.8-0.9-1.7-0.5-2.7
		c2.1-2.1,5.2-2.6,7.5-4.4c0.5-0.5,0.9-0.9,1.4-1.3c0.6-0.6,1.4-1,2.2-1.3c1.2-0.3,2.2-0.9,2.6-2.2c4.2-4.8,9.4-8.5,13.4-13.5
		c0.4-0.2,0.9-0.4,1.3-0.5c1.1-0.2,2.3-0.2,3.4-0.3c2.2-0.2,1.3-1.7,1.2-2.8c-0.2-1.9-0.2-3.8-0.1-5.7c0-0.9,0.2-1.8,0.5-2.7
		c0.7-1.5,1.5-2.9,1.6-4.6c0.1-0.7,0.2-1.4,0.5-2.1C118.2,75.5,118.4,73.2,121,74.4z"/>
	<path class="st0" d="M1,22.8C1,16.4,1.1,9.9,0.9,3.5C0.9,1.3,1.3,0.9,3.5,0.9C11.9,1.1,20.3,1,28.8,1c1.1,1,1.4,2.5,2.4,3.6
		c0.7,0.8,1.5,1.6,2,2.5c0.2,0.7,0.1,1.4-0.3,2c-1.3,1.4-3,2.1-4.7,2.7c-1.3,0.3-2.4,1-3.5,1.7c-1.1,0.5-2.3,0.5-3.3,0
		c-3.3-1.5-3,0.7-3.1,2.8c-0.1,0.5-0.4,0.9-0.8,1.1c-0.9,0.5-1.8,0.6-2.7,0.7c-1,0.2-2.8,0.1-1.8,1.9c1.7,3.1,0.4,5.2-1.6,7.3
		c-1.5,1.5-0.8,3.8-2.1,5.3c-1.8,1.4-2.9-0.1-4.2-1c-0.7-0.7-1.5-1.5-2.5-1.8c-0.6-0.2-1.1-0.6-1.5-1.1c0-0.7,0-1.3,0-2
		C2.3,25.5,2.3,24.1,1,22.8z"/>
	<path class="st0" d="M106.1,1c4.1,0,8.3,0.2,12.4-0.1c2.1-0.1,2.6,0.4,2.5,2.5c-0.1,11.7-0.1,23.5-0.1,35.2c-0.8,0.8-1.5-1.5-2.7,0
		c-0.4,0.5-1.8-0.9-2.5-1.8c-0.8-1.1-1-2.8-2.6-3.2c-1.1-0.5-1.8-1.3-2.1-2.4c-0.4-1.5-1.3-2.8-1.9-4.3c-0.5-2.9-3.3-4.8-3.5-7.8
		c1.5-2.3-1.5-0.7-1.5-1.7c-0.3-0.3-0.6-0.7-0.9-1c-0.9-1.7-2.1-3.4,0.4-4.9c0.7-0.4,1.2-1.3,0.6-2.1c-0.6-0.9-1.4-0.3-2.2,0
		c-3,1.2-5.8,1.6-6.9-2.5C95,5.7,95,4.5,95.6,3.3c0.3-0.5,0.6-0.8,1.1-1C99.8,1.3,103.2,3.1,106.1,1z"/>
	<path class="st0" d="M32.7,121c-9.8,0-19.5-0.1-29.3,0.1c-2.1,0-2.7-0.4-2.5-2.5c0.2-4.1,0.1-8.3,0.1-12.4c1.5-2,1.5-4,0-5.9
		c0-1.3,0-2.6,0-4c0.6-0.5,1.3-0.9,2.1-0.9c0.8,0,1.5,0.2,2.1,0.8c0.6,0.8,0.8,1.8,0.9,2.8c1.1,7.3,5.9,10,12.7,7.2
		c1.1-0.5,2.1-0.4,2.6,0.6c1,2.3,3.1,2.1,5,2.4c1.6,0.3,2.9,1.5,4.6,1.8c0.7,0.2,1.3,0.5,1.9,0.9c0.5,0.5,0.9,1,1.3,1.6
		C38,117,38,117,32.7,121z"/>
	<path class="st1" d="M96.2,6.9c1.2,3.8,3.6,2.5,5.7,1.2c1.4-0.9,2.6-1.8,3.8-0.2c0.8,1.2,0.9,3.8,0,4.1c-3.4,1-1.3,3.2-1.5,4.9
		c-0.6,0.5-1.2,0.6-1.9,0.4c-2.9-2.5-5.1-6.2-9.8-5.7c-1.4-0.7-2.8-1.4-4.3-2c-1-0.5-1.9-1.2-2.6-2.1c-1.1-1.9-2.4-3.5-5-3.1
		c-2.1,0.3-4.1-0.1-6.1-0.2C73.7,4,73,3.8,72.4,3.5c-0.8-0.6-1.5-1.3-1-2.5c8.3,0,16.5,0,24.8,0c0.6,0.7,0.6,1.3,0,2l0,0
		C94.8,4.3,94.3,5.6,96.2,6.9z"/>
	<path class="st2" d="M121,54.5c0,1,0,2,0,3c-0.9,0.9-0.2,2.1-0.7,3.1c-0.9,1.3-1,2.9-1,4.4c0,1.7,0,3.3,0,5c0,1.2-0.1,2.4-0.4,3.6
		c-0.8,1.9-1.8,3.8-1.4,6c-0.2,0.8-0.8,1.2-1.5,1.4c-0.5,0.1-1,0-1.5-0.2c-0.5-0.2-0.8-0.6-1.1-1.1c-0.7-2.1-0.7-4.2,0.1-6.2
		c1.2-1.8,1.4-3.8,1.3-5.9c0-3.6,0-7.3,0-10.9c0-2.5,0-5.1,0-7.6c0.1-1.9-0.2-4,1.4-5.5c0.5-0.2,1-0.2,1.5,0.2c0.6,0.6,1,1.2,1.2,2
		C119.9,48.6,118.2,52.1,121,54.5z"/>
	<path class="st3" d="M3,96.2c-0.7,0-1.3,0-2,0c0-5.3,0-10.6,0-15.9c0.6-0.6,1.3-0.6,2-0.3c2,3.4,4.3,6.5,6.7,9.6
		c0.7,0.8,1,1.7,0.9,2.7c-0.6,1.8-0.4,4.2-3.2,4.3C6,95.6,4.8,93,3,96.2z"/>
	<path class="st4" d="M3,28.8c1.3,0,2,0.7,2,2c0.9,2,3,3.5,2.2,6.1c-4,3-2,8.1-4.1,11.8c-0.7,0.5-1.4,0.6-2.1,0C1,43.3,1,38,1,32.7
		C2.4,31.8,1.6,29.8,3,28.8z"/>
	<path class="st5" d="M32.7,121c-0.5-2.7,1.7-2.9,3.4-3.5c-0.1-2.3-3-1.9-3.3-3.7c2.4-1.3,4.2,0.2,6,1.5c1.1,1.3,2.6,1.7,4.2,2.1
		c1.8,0.9,4.7,0.3,4.6,3.6C42.6,121,37.7,121,32.7,121z"/>
	<path class="st6" d="M31.7,1c6.9,0,13.9,0,20.8,0c-0.1,2.6-2.4,1.9-3.8,2.7c-0.5,0.2-1,0.3-1.5,0.3c-3,0.4-5.9-0.4-8.9,0.1
		c-1.8,0.1-3.7,0.2-5.4-0.5C32,3,31.3,2.3,31.7,1z"/>
	<path class="st7" d="M1,48.6c0.7,0,1.3-0.1,2-0.1c0.2,0.2,0.4,0.4,0.6,0.6c1.1,2.1,0.3,4.2-0.1,6.3c-0.2,2.8-0.1,5.7-0.1,8.5
		c0,1.7-0.1,3.5,0.3,5.2c0.1,0.8,0,1.5-0.3,2.2c-1.2,1-1.7,0-2.3-0.8C1,63.1,1,55.9,1,48.6z"/>
	<path class="st8" d="M57.5,121c-1.7,0-3.3,0-5,0c-1-1.5-5.5,1.2-3.9-3.3c1.8-1.2,3.8-1,5.9-1c2.3,0.4,5.4-0.9,6.4,2.7
		C60.5,121.3,58.4,119.9,57.5,121z"/>
	<path class="st9" d="M71.4,121c-2.3,0-4.6,0-6.9,0c-0.4-0.4-0.5-0.9-0.5-1.5c0.3-1.1,1-1.9,2.1-2.3c3.2-0.5,6.4-1.3,9.3,0.8
		c0.4,0.8,0.1,1.5-0.5,2C73.9,120.9,72.4,120,71.4,121z"/>
	<path class="st10" d="M72.4,2.9C73,2.9,73.7,3,74.3,3c0.4,0.5,0.3,1-0.2,1.4c-2.9,1.3-5.9,0.8-8.9,0.5c-1-0.2-2-0.6-3.1-0.6
		c-1.7-0.3-3.7,0.2-4.8-1.9c0.5-1.7,2.4-0.4,3.2-1.5c1,0,2,0,3,0C66.3,2.2,69.6,1.3,72.4,2.9z"/>
	<path class="st11" d="M121,54.5c-2.3,0.2-3.1-1-3-3.1c0.1-1.9,0-3.8-0.1-5.7c3-0.2,1.5,3,3.1,3.9C121,51.2,121,52.9,121,54.5z"/>
	<path class="st12" d="M96.2,3c0-0.7,0-1.3,0-2c3.3,0,6.6,0,9.9,0C103.5,5.2,99.4,1.9,96.2,3z"/>
	<path class="st13" d="M118,70.4c0-2,0-4,0-6c0.5-0.5,1.1-0.8,1.8-0.7c0.4,0.1,0.8,0.4,1.1,0.7c0,2,0,4,0,5.9
		C120,71.2,119,71.2,118,70.4z"/>
	<path class="st14" d="M116.2,36.7c1.6,0.7,3.2,1.3,4.8,2c0,0.7,0,1.3,0,2c-1.1,1.1-2.4,1.6-3.9,1.3c-1.2-0.6-1.8-1.6-1.9-2.8
		c-0.1-0.7,0.1-1.4,0.5-2.1C115.8,36.9,116,36.8,116.2,36.7z"/>
	<path class="st15" d="M117.2,41.7c1.1-0.8,2.4-1.1,3.7-1c0,1.3,0,2.6,0,4c-1.2,1-2.4,0.7-3.6,0c-0.2-0.3-0.3-0.6-0.5-1
		c-0.3-0.3-0.4-0.7-0.4-1.1C116.6,42.1,116.8,41.8,117.2,41.7z"/>
	<path class="st16" d="M71.4,121c0.5-1.4,1.8-0.9,2.8-1.1c1.6-0.9,3.6-0.9,5.2-1.9c0.4-0.2,0.7-0.4,1.1-0.6c0.7-0.1,1.3,0,1.7,0.6
		c0,1,0,2,0,2.9C78.7,121,75,121,71.4,121z"/>
	<path class="st17" d="M31.7,1c0.3,0.7,0.7,1.3,1,2c0.8,2.1,0.1,2.8-2,2c-2.7-0.3-1.8-2.4-2-4C29.8,1,30.7,1,31.7,1z"/>
	<path class="st18" d="M118,70.4c1,0,2,0,3,0c0,1.3,0,2.6,0,4c-2.3-0.2-1.6,2.4-2.8,3.2c-1-1-0.8-2.1-0.2-3.2
		C118,73.1,118,71.8,118,70.4z"/>
	<path class="st19" d="M72.4,2.9c-3.2,0.2-6.2-0.2-8.9-1.9c2.6,0,5.3,0,7.9,0C71.7,1.6,72.1,2.3,72.4,2.9z"/>
	<path class="st20" d="M48.4,118.1c0.2,2.7,3.5,0.9,4.2,2.8c-1.7,0-3.3,0-5,0c-0.8-2.6-3.7-1.3-5.1-2.9c0.2-0.2,0.4-0.4,0.6-0.6
		C45,116.7,46.8,116.4,48.4,118.1z"/>
	<path class="st12" d="M1,100.2c3.1,2,3.1,4,0,5.9C1,104.1,1,102.1,1,100.2z"/>
	<path class="st21" d="M1,70.4c0.6,0.3,1.2,0.7,1.9,1c1,0.7,1.2,1.8,1.2,2.9c-0.1,0.8-0.3,1.6-0.8,2.2C2.4,76.9,1.7,77,1,76.4
		C1,74.4,1,72.4,1,70.4z"/>
	<path class="st22" d="M117.4,44.6c1.2,0,2.4,0,3.6,0c0,1.7,0,3.3,0,5c-2.2-0.3-1.5-3-3.1-3.9C117.8,45.3,117.6,45,117.4,44.6z"/>
	<path class="st23" d="M48.6,3c0.8-1.6,3.1-0.4,4-2c0.7,0,1.3,0,2,0c0.6,0.5,1.4,0.8,1.3,1.7c-0.3,0.5-0.6,0.8-1.1,1.1
		C52.5,4.3,50.4,4.7,48.6,3z"/>
	<path class="st24" d="M1,22.8c1.4,0.1,2,0.8,1.9,2.2c-0.1,1.2-0.9,1.6-1.9,1.7C1,25.5,1,24.1,1,22.8z"/>
	<path class="st25" d="M3,28.8c-0.2,1.6,0.7,3.6-2,4c0-1.3,0-2.6,0-4C1.7,28.8,2.3,28.8,3,28.8z"/>
	<path class="st26" d="M1,76.4c0.6,0,1.3,0,1.9,0c1.2,1.3,1.2,2.6,0,4c-0.7,0-1.3,0-2,0C1,79,1,77.7,1,76.4z"/>
	<path class="st27" d="M64.5,120c0,0.3,0,0.7,0,1c-2.3,0-4.6,0-6.9,0c0.7-1.2,1.9-0.9,3-1C61.8,119,63.2,118.9,64.5,120z"/>
	<path class="st28" d="M121,64.5c-0.3,0-0.7,0-1,0c-1-1.3-1.1-2.6,0-4c0.1-1.1-0.2-2.3,1-3C121,59.8,121,62.2,121,64.5z"/>
	<path class="st29" d="M60.5,1c-0.6,1.2-1.9,0.9-2.9,1.1c-0.4,0.2-0.8,0.2-1.2,0c-0.2-0.4-0.2-0.8,0.2-1.1C57.9,1,59.2,1,60.5,1z"/>
	<path class="st30" d="M56.5,1c0,0.3,0,0.6,0,0.9c-0.3,0.4-0.6,0.4-1,0.1c-0.3-0.3-0.7-0.7-1-1C55.2,1,55.9,1,56.5,1z"/>
	<path class="st31" d="M93,112c-0.6,0.3-1.3,0.7-1.9,1c-0.5,0.3-1,0.3-1.4-0.3c-0.8-1.5-0.8-3,0-4.5c1.5-1.8,4.2-0.8,5.7-2.6
		c3.6-3.1,7.2-6.3,10.2-10c1.8-3.3,1.8-8.3,7.4-8.1c0.5,0.1,0.9,0.4,1.2,0.7c0.7,1.7-0.3,2.7-1.4,3.7c-1.8,1-2.6,2.9-3.8,4.3
		c-2.9,4.5-6.4,8.3-10.9,11.1c-0.9,0.6-1.4,1.7-2.1,2.6C95.4,111.1,94.1,111.4,93,112z"/>
	<path class="st32" d="M112.2,91.3c1.1-0.7,1.7-1.7,1.8-3c0.1-1.2,0.4-2.2,1.9-2.1c0.6,2.7-0.7,5.5,1,8.2c0.8,1.2,0.5,1.4-2.9,1.9
		c-0.7-0.9-2.1-1.1-2.5-2.3C111.3,92.9,111.4,92,112.2,91.3z"/>
	<path class="st33" d="M82.3,118.1c-0.7,0-1.4,0-2-0.1c-0.3-1.7,0.8-2.3,2-2.9c2.7-0.3,5-3,7.9-1.1
		C88.4,116.9,85.5,117.7,82.3,118.1z"/>
	<path class="st34" d="M90.2,114c-2.9-0.4-5,2.6-7.9,2.1c-0.6-1.3,0.6-2,0.9-2.9c0.3-0.6,0.7-1.2,1.3-1.6c1.1-0.6,2.3-0.6,3.4-0.2
		c1,0.3,1.6,1,2.3,1.6c0.3,0,0.6,0.1,0.9,0.1C90.8,113.3,90.5,113.6,90.2,114z"/>
	<path class="st35" d="M111.2,108.6c-1.2-2.9-2-4.7-2.8-6.6C111.3,102.9,112.6,104.6,111.2,108.6z"/>
	<path class="st36" d="M102,108.6c1.8,1.1,3.8,1.3,6.6,2.6C104.7,112.8,103.3,110.7,102,108.6z"/>
	<path class="st37" d="M112.2,91.3c-0.1,1-0.2,1.9-0.3,2.9c-0.1,1.1-1,1.4-1.6,2c-0.4,0-0.8,0-1.1,0C108.9,93.8,110,92.2,112.2,91.3
		z"/>
	<path class="st38" d="M110.2,96.2c0.5-0.7,1.1-1.4,1.6-2c1.3,0,2.1,0.6,2.2,2C112.8,96.2,111.5,96.2,110.2,96.2z"/>
	<path class="st39" d="M116,86.2c-0.6,0.7-1.3,1.4-1.9,2.1c0,0-0.2,0-0.2,0c-0.4-0.5-0.6-1-0.7-1.7c0-0.6,0-1.2,0.2-1.8
		c0.2-0.4,0.4-0.7,0.7-1c0.5-0.4,1-0.7,1.7-0.6c0.2,0.1,0.3,0.3,0.5,0.4C116.1,84.4,116,85.3,116,86.2z"/>
	<path class="st39" d="M116,80.3c0.3-0.3,0.7-0.6,1-1c0.3-0.5,0.6-0.5,0.9,0c0.2,1.7-0.3,3.1-1.7,4.1c0,0-0.3-0.2-0.3-0.2
		C115.1,82.2,115.3,81.3,116,80.3z"/>
	<path class="st13" d="M117.9,79.3c-0.3,0-0.6,0-0.9,0c-0.9-1.9-0.4-3.5,0.9-5c0.1,1.1,0.1,2.1,0.2,3.2
		C118.1,78.2,118,78.8,117.9,79.3z"/>
	<path class="st40" d="M93,112c0.7-1.2,1.7-1.9,3.1-2C96.1,112.2,94.6,112.1,93,112z"/>
	<path class="st41" d="M8.8,32.6c0-3,0.2-5.8,2.9-7.8c1.4-1,1.5-2.5,0.3-3.8c-4.3-4.9-0.1-4.1,2.8-4.2c1,1.5,2,2.7,3,0l0,0
		c1.1-1,2.3-1.1,3.6-0.5c1.5,1.7-0.1,2.7-0.8,3.9c-4.2,3.4-6.8,8.1-9.9,12.4c-0.4,0.3-0.8,0.4-1.3,0.4C9.2,32.9,9,32.8,8.8,32.6z"/>
	<path class="st41" d="M21.7,16.8c-1.3,0-2.6,0-3.9,0c-0.8-1.8-1.9-3.8-0.2-5.4c1.6-1.5,2.8,0.6,4.2,1.2c0.9,0.4,1.9,0.2,2.9,0.3
		c0.3,0.4,0.4,0.8,0.3,1.3C24.4,15.6,24.1,17.5,21.7,16.8z"/>
	<path class="st42" d="M38.7,3c3,0,6,0,9,0.1C47.8,4.9,46,5,45,5.8c-2.9,1.7-6.7,1.1-9.4,3.3c-0.6,0.3-1.3,0.4-2,0.3
		c-0.5-0.1-0.8-0.4-0.9-0.8c0-0.6,0-1.1,0-1.7C33.6,3.9,36.8,4.5,38.7,3z"/>
	<path class="st43" d="M38.7,3c-1.1,2.7-4.1,2.5-6,4c-1.3,0-1.9-0.7-2-2c1.3,0,2-0.7,2-2C34.7,3,36.7,3,38.7,3z"/>
	<path class="st44" d="M6.9,36.6c-0.5-2-2.7-3.5-1.9-5.9c1.3,0.6,2.6,1.3,3.8,1.9c0,0,0.1,0.1,0.1,0.1c0.5,0.5,0.7,1.1,0.6,1.8
		c-0.4,1.1-0.8,2-2,2.4C7.3,36.8,7.1,36.7,6.9,36.6z"/>
	<path class="st45" d="M27.8,10.9c1.6-0.8,3.3-1.5,4.9-2.3c0,0,0,0.3,0,0.3c0.6,1-0.1,1.7-0.5,2.4c-0.4,0.5-0.9,1-1.5,1.4
		c-1.2,0.8-2.5,1.3-3.9,0.4C26.1,12,27,11.5,27.8,10.9z"/>
	<path class="st46" d="M17.8,16.9c1.2,2.2-1.3,2.4-1.9,5.1c-0.6-2.6-0.8-3.8-1.1-5C15.9,16.9,16.9,16.9,17.8,16.9z"/>
	<path class="st47" d="M27.8,10.9c-0.3,0.7-0.6,1.4-1,2c-0.1,1.6-0.9,1.5-2,0.9c0-0.3,0-0.7,0-1C24.9,10.9,26.3,10.9,27.8,10.9z"/>
	<path class="st48" d="M117.2,41.7c-0.1,0.3-0.3,0.7-0.4,1c-1.3,0.7-2,1.9-2.7,3.1c-1.2,4.3-1.4,8.6,0.4,12.8
		c1.3,3.2-0.7,6.9,1.5,9.9c-0.4,1.7,1.2,4.3-2,5c-2.1,1.8-0.3,4.5-1.3,6.5c-0.2,0.4-0.5,0.7-0.8,1c-2,0.5-2.6,2.5-4.1,3.7
		c-2.5-0.3-2.9-2.7-4-4.3c-0.1,0.2,0,0.3,0.1,0.5c0.6,1.9,0.7,3.8-0.6,5.6c-3.5-0.1-1.6-4.2-3.9-5.2c-0.3-0.4-0.6-0.8-0.7-1.3
		c-0.1-1.9-0.1-3.7,0-5.1c-0.1-1.1-1,0.1-0.4-0.3c0.5,2,0.7,4.1-0.2,6.1c-3.8-1.4-1.4-5.1-2.7-7.5c-0.4-1.4-0.5-2.9-1-4.4
		c-0.4-1.4-0.6-2.8-1-4.1c-0.4-1.4-0.9-2.7-0.9-4.2c0.3-2.2,1.6-4.1,1.4-6.4c1.1-4.5,0.1-9.2,2-13.5c0.4-0.3,0.8-0.7,1.2-0.7
		c4.6,0.1,6.2-2.4,5.7-6.7c0.1-0.8,0.2-1.5,0.5-2.3c0.5-1.2,1.2-2.3,2.5-2.8c3.7-0.4,4.1-0.1,3.6,2.3c-0.1,0.6-0.7-0.2-0.2,0.2
		c0.4,0.4,0.6-0.3,1-0.3c0.7-0.2,1.2,0,1.6,0.5c0.3,1,0.8,1.9,2,2c0.6,0.4,0.9,0.9,1,1.6c0.1,1.5,0,3,1,4.3
		C116.4,39.7,116.8,40.7,117.2,41.7z"/>
	<path class="st49" d="M102.2,16.9c0.7,0,1.3,0,2,0c0,0,0,0,0,0c0.4,0.9,1.3,1.3,2,2c1,2.8,3.9,4.7,4,7.9c-2.2,0.6-3-1.4-4.4-2.4
		c-0.8-0.8-1.5-1.6-2.2-2.5c-0.7-1.4-2.2-2.2-2.6-3.7C101,17.5,101.4,17,102.2,16.9z"/>
	<path class="st50" d="M106.1,23.7c1.3,1,2.6,2,3.9,3c0.4,1.4,2.1,2.2,1.8,4c-0.6,0-1.2,0-1.8,0c-0.7,0.6-1.3,0.5-2,0
		c0.4-0.5,1.1-1.3,1-1.4c-0.7-1.1-2-0.3-3-0.5C104.7,27.1,104.7,25.4,106.1,23.7z"/>
	<path class="st51" d="M110.1,16.9c0.2-3.1-0.5-6.3,1-9.3c1.5,3,0.8,6.2,1,9.3C111.4,17.5,110.7,17.5,110.1,16.9z"/>
	<path class="st52" d="M96.2,6.9C95.1,6.7,93,7.6,93,6c-0.1-1.5,1.5-2.7,3.2-3C96.2,4.3,96.2,5.6,96.2,6.9z"/>
	<path class="st1" d="M106.1,18.9c-1.3,0-1.9-0.7-2-2c2,1.4,2-1.3,3.1-2C108.2,16.9,107.1,17.9,106.1,18.9z"/>
	<path class="st53" d="M114.1,34.7c0-0.6-0.1-1.3-0.1-1.9c2.8,0.1,1.8,2.4,2.3,3.9c0,0-0.3,0.1-0.3,0.1
		C114.1,37.2,114.9,35.2,114.1,34.7z"/>
	<path class="st54" d="M110.1,16.9c0.7,0,1.3,0,2,0c-0.1,1-0.1,2.1-0.2,3.3C110.4,19.3,110.2,18.1,110.1,16.9z"/>
	<path class="st55" d="M119.8,27.9c0,1.2,0,2.5,0,3.9C118.4,30.5,119.1,29.2,119.8,27.9z"/>
	<path class="st56" d="M6.9,96.2c2.8,0,1.3-3.3,3.1-4.1c0.4-0.2,0.8-0.2,1.3-0.1c1,0.6,1.8,1.4,2.2,2.5c0.2,0.6,0.4,1.3,0.4,2
		c-0.5,4.4,2.9,5.2,5.8,6.5c1.3,0.5,2.4,1.3,3.4,2.3c1,1.6,3.7,2.1,3.4,4.7c-2.7-0.2-6.4,1.4-6.3-3.7c-2.4,1-0.9,3.1-2.3,4.1
		c-1.6,0-1.6-2.3-3.6-2.5C5.9,106.7,5,105.4,5,96.2C5.6,95.7,6.3,95.6,6.9,96.2z"/>
	<path class="st57" d="M32.5,112.2c-0.6-0.1-1.1-0.1-1.7-0.2c-0.4-0.4-0.7-0.9-1-1.4c-0.2-2.7-1.6-5.9,2.6-6.9
		c2.6,1.8,6.1,0.4,8.6,2.4c1.1,1.8,1.1,3.8,0.9,5.9c-0.1,0.9-0.4,1.7-1,2.3C37.5,116.1,35.3,112.7,32.5,112.2z"/>
	<path class="st58" d="M32.5,112.2c3.1-1.1,5.1,2.7,8.2,1.9c1.1-1.1,2.5-1.7,4-1.8c1.4,0,2.5,0.4,3.4,1.4c1.2,2,1.9,3.7-1.6,3.4
		c-1.3-0.1-2.6-0.1-3.8,0.3c-1.6,0.4-2.8-0.3-4-1.2c-1.8-1.1-3.6-2.2-5.8-2.4C32.7,113.2,32.6,112.7,32.5,112.2z"/>
	<path class="st59" d="M6.9,96.2c-0.7,0-1.3,0-2,0c-0.7,0-1.3,0-2,0c0.2-1.4-0.7-3.6,1.7-3.8C7.6,92.2,6.7,94.6,6.9,96.2z"/>
	<path class="st60" d="M30.7,111.1c0,0.3,0,0.6,0.1,0.9c-1.8,0.3-2.6-1.5-4.1-1.9c-1.1-1.6-3.3-2-3.9-4c0.3-0.3,0.8-0.5,1.2-0.6
		C27.1,106.4,29.3,108.3,30.7,111.1z"/>
	<path class="st61" d="M86.2,7c0.7,0.6,1.4,1.2,2.1,1.8c0.5,0.7,0.5,1.4,0,2.1c-1,1-2.3,1-3.5,0.6c-1.9-1-3.1-2.8-4.9-4
		c-0.8-0.8-2.2-1.3-1.5-2.9c0.7-0.3,1.4-0.5,2.1-0.6C82.9,4.1,84.4,5.9,86.2,7z"/>
	<path class="st62" d="M102.2,16.9c-0.3,0.3-0.6,0.7-0.9,1c-0.7,0-1.3-0.3-1.8-0.7c-1.5-1.5-3.3-2.6-5.3-3.5
		c-0.9-0.6-1.9-1.1-2.2-2.2c0.1-0.2,0.3-0.3,0.4-0.5C97.5,9.9,100.2,12.7,102.2,16.9z"/>
	<path class="st41" d="M86.2,7c-2.3,0.2-3.8-1.8-5.9-2.2c-0.6-0.6-0.6-1.2-0.1-1.9C83.4,2.7,85.5,3.9,86.2,7z"/>
	<path class="st63" d="M80.3,3c0,0.6,0,1.2,0.1,1.9C79.7,4.9,79,5,78.4,5c-0.3,0.3-0.7,0.4-1.2,0.4c-1-0.3-2.1-0.5-2.8-1.5
		c0-0.3-0.1-0.6-0.1-0.9C76.3,2.4,78.3,4,80.3,3z"/>
	<path class="st64" d="M88.3,10.9c0-0.7,0-1.4,0-2.1c1.8-0.1,3.1,0.6,4.1,2.1c-0.2,0-0.4,0.1-0.5,0.1c-0.9,1-2,0.9-3.2,0.4
		C88.6,11.2,88.5,11,88.3,10.9z"/>
	<path class="st65" d="M116,68.4c-0.5-0.2-1.3-0.3-1.3-0.5c-0.7-7.3-3.8-14.4-2.5-21.9c0.2-0.9,1-1.2,1.8-1.4c1.2,1,0.9,2.4,1,3.7
		c0.4,2.7-0.9,5.6,1,8.2C116,60.5,116,64.5,116,68.4z"/>
	<path class="st66" d="M112.1,80.3c0-2.1-0.1-4.2,0.1-6.3c0.1-1.3,0.8-1.7,1.9-0.6c0,2.3,0,4.6,0,6.9
		C113.4,80.9,112.7,80.9,112.1,80.3z"/>
	<path class="st67" d="M116,56.5c-4-1.8-1.1-5.3-2-7.9c0.7-0.6,1.3-0.6,2,0C116,51.2,116,53.9,116,56.5z"/>
	<path class="st68" d="M116,48.6c-0.7,0-1.3,0-2,0c0-1.3,0-2.6,0-4c0.1-1.9,1.4-2,2.8-2c0,0.3,0,0.7,0,1
		C115.4,45.1,116.3,46.9,116,48.6z"/>
	<path class="st69" d="M112.1,80.3c0.7,0,1.3,0,2,0c0.3,0,0.7,0,1,0c0.4,1.5-0.3,2.7-1,4l0,0C110.1,84.6,111.1,82.4,112.1,80.3
		L112.1,80.3z"/>
	<path class="st70" d="M120,60.5c0,1.3,0,2.6,0,4c-0.7,0-1.3,0-2,0C118.2,62.9,117.3,60.8,120,60.5z"/>
	<path class="st13" d="M114.1,84.3c-0.2-1.4,0.3-2.7,1-4c0.3,0,0.7,0,1,0c0,1-0.1,1.9-0.1,2.9C115.3,83.6,114.7,83.9,114.1,84.3z"/>
	<path class="st71" d="M3,80.3c0-1.3,0-2.6,0-4c0-0.7,0.1-1.4,0.1-2.2c1.9,0.1,2,1.8,2.6,3c0.5,2,1,4,2,5.8c0.8,1.7,1.5,3.4,1.9,5.2
		c0.1,0.7,0,1.4-0.5,2C6.8,87,2.9,84.9,3,80.3z"/>
	<path class="st72" d="M9,90.2c0-0.7-0.1-1.3-0.1-2c1.8-0.9,2.5,0.1,2.8,1.7c0,0.9-0.2,1.6-0.8,2.2c-0.3,0-0.6,0-0.9,0
		C9.7,91.5,9.4,90.9,9,90.2z"/>
	<path class="st44" d="M3,48.5c0.7-4.2-2.1-9.5,3.9-11.9c0,0,0.1,0.1,0.1,0.1c1.4,2.8-1.1,5-1.2,7.5c-0.4,1.1-0.6,2.3-1.1,3.4
		c-0.4,0.7-0.8,1.2-1.7,1.1L3,48.5z"/>
	<path class="st20" d="M38.7,116.1c1.3,0.3,2.6,0.6,3.9,0.9c0.2,0.2,0.3,0.4,0.3,0.6c-0.1,0.2-0.1,0.3-0.2,0.3c0,0-0.2,0.2-0.2,0.2
		C41.1,117.8,39,118.7,38.7,116.1z"/>
	<path class="st73" d="M44.5,4.8c1.1-0.6,2.1-1.2,3.2-1.7c0.3,0.1,0.6,0,0.9-0.1c2.3-0.1,4.5-0.2,6.8-0.2c0.7,0.7,0.7,1.5,0.3,2.3
		c-3.2,2-6.6,1.2-9.9,0.8C45.2,5.6,44.8,5.3,44.5,4.8z"/>
	<path class="st74" d="M4.9,77.4c-0.6-1.1-1.2-2.2-1.8-3.2c-0.1-0.9-0.1-1.9-0.2-2.8c0-0.7,0-1.3,0-2c-0.8-1.4-0.3-2.8-0.4-4.3
		c0.1-0.5,0.3-0.9,0.8-1.2c0.5-0.1,1-0.1,1.5,0.1c0.4,0.3,0.7,0.8,0.9,1.3c0.5,3.8,1,7.7-0.4,11.5C5.3,77.1,5.1,77.3,4.9,77.4z"/>
	<path class="st75" d="M2.1,64.3c0-3.3,0-6.5,0.1-9.8c1.2-0.4,1.2-2.5,2.9-2.1c0.9,0.9,0.9,2,0.8,3.1c-0.1,0.4-0.2,0.9-0.4,1.3
		c-0.3,0.8-0.7,1.6-0.9,2.5C4,61,4.4,63,3,64.4l-0.1,0.2C2.5,64.9,2.3,64.8,2.1,64.3z"/>
	<path class="st76" d="M5,52.6c-1,0.6-1.4,2.1-2.8,2c0.8-1.9,1-3.8,0.9-5.9C3.4,48.3,3.7,48,4,47.6C7.1,48.7,6.2,50.6,5,52.6z"/>
	<path class="st77" d="M2.1,64.3c0.3,0.1,0.6,0.1,0.9,0.2c0,1.6,0,3.3,0,4.9C1.4,67.9,2.1,66.1,2.1,64.3z"/>
	<path class="st78" d="M42.7,117.9c-0.1-0.3-0.1-0.6-0.1-0.9c1.1-1.4,2.6-1.1,4-0.9c3.4,0.6,0.8-1.4,1-2.1c0.3-0.4,0.7-0.7,1.2-0.9
		c2.1-0.6,4.3-0.6,6.3,0.1c1.6,0.5,0.8-0.8,1.3-1.2c3.2-1.7,6.2-2.4,8.8,1c0.2,0.8,0.2,1.6-0.1,2.4c-0.2,0.5-0.6,0.9-1,1.2
		c-3,1.5-6.6-1-9.5,1.3c-2.1,0-4.1,0.1-6.2,0.1C46.5,118.1,44.6,118,42.7,117.9z"/>
	<path class="st79" d="M54.6,118c2.6-4.2,6.7-0.9,9.9-2c0.7,0.5,1,1.1,1,2c-0.3,0.7-0.7,1.3-1,2c-1.3,0-2.6,0-3.9-0.1
		C59.5,116.5,56.5,118.7,54.6,118z"/>
	<path class="st78" d="M65.5,118c-0.8-0.4-1-1.2-1-2c0,0,0,0,0,0c0.5-0.5,1.1-1,1.7-0.9c1.8,0.2,2.8,0.1,1.1-1.8
		c0.8-1.2,2-1.4,3.3-1.4c3,0.7,6,0.7,9,1.1c1.5,0.6,3.4-0.4,4.7,0.9c-0.7,0.7-1.3,1.3-2,2c-0.7,0.6-1.3,1.3-2,1.9c0,0,0,0,0,0
		c-1.5,1-3,2.1-4.9,0.9C72.2,117.2,68.8,118.4,65.5,118z"/>
	<path class="st80" d="M75.4,118.8c1.6-0.3,3.3-0.6,4.9-0.9c-1,3.8-4,1.4-6.1,2C74.6,119.5,75,119.2,75.4,118.8z"/>
	<path class="st81" d="M62.5,3c0.8,0,1.6,0.2,2,1c2.3,1,5,0.2,7.3,1.4c0.7,0.5,1.1,1.1,0.4,2c-1.2,0.8-2.6,0.8-4,0.5
		c-3.7-1.2-7.7,0.3-11.3-1.3c-0.5-0.3-0.7-0.7-0.7-1.3C57.7,2.9,60.8,5,62.5,3z"/>
	<path class="st82" d="M62.5,3c-1,3.5-4,1.3-6,2c-0.3,0.3-0.7,0.3-1,0c0-0.7-0.1-1.5-0.1-2.2c0-0.3,0.1-0.5,0.1-0.8
		c0.3,0,0.6,0,1-0.1c0.3,0.1,0.7,0.2,1,0.3C59,3.6,60.8,2.7,62.5,3z"/>
	<path class="st83" d="M71.4,6c-2.2-1-4.9-0.4-6.9-2c3.3,0,6.6,0,9.9,0c1.1,0,2.2,0,3,1C75.7,7,73.4,5.5,71.4,6z"/>
	<path class="st84" d="M114.1,34.7c0.6,0.7,1.2,1.3,1.9,2c0,0.7,0,1.3,0.1,2C114.2,37.9,113.9,36.4,114.1,34.7z"/>
	<path class="st85" d="M100.2,80.3c3.8,0.6,0.6,4.6,3,5.9c1,0.3,1.9,0.8,2.7,1.5c1.9,2.8,1.6,5.6,0.2,8.4c-2.3,4.3-6,7.2-9.9,9.9
		c-1.7,1.3-3.6,1.1-5.5,0.6c-0.5-0.3-0.7-0.7-0.7-1.2c1.2-1.6,2.8-0.5,4-0.7c-1.5-0.4-3.2,0.1-5,0.1c-0.7-0.1-1.3-0.5-1.7-1.2
		c-0.2-0.4-0.3-0.9-0.3-1.3c0.2-0.4,0.6-0.7,1-0.8c1.4-0.4,2.9,0.4,4.3-0.4c1.1-0.6,2.4-0.9,3.7-0.9c3.8-1.2,3.3-3.9,2.4-6.7
		c-0.5-1.4-1.9-2.2-2.6-3.5c-0.3-0.7-0.3-1.5-0.1-2.2c1.2-2.1,0.8-4.8,2.7-6.6c2.3,0.8,0.3,3.2,1.6,4C99.6,83.7,99.3,82,100.2,80.3z
		"/>
	<path class="st86" d="M106.1,96.2c-0.9-2.6,2-6.1-2-7.9c-0.8-2.6-0.8-5.3,0-7.9c2.7,0,1.7,3.6,4,4c2,0.5,4.2,0.6,5.9,2
		c-0.1,0.6-0.1,1.3-0.2,1.9c-3.4,0.4-5.9,1.7-5.8,5.7C108.1,95.3,107.5,96.1,106.1,96.2z"/>
	<path class="st87" d="M90.2,106.1c2,0,4,0,6,0c-1,3.6-4,1.3-6,2c-1.4,1-2.8,1.2-4.2,0C86,104.4,88,105.1,90.2,106.1z"/>
	<path class="st88" d="M86.3,108.1c1.3,0,2.6,0,4,0c0,1.6,0,3.2,0,4.8c-0.8,0.1-1.5-0.1-2-0.9c-0.9-1.2-2.3-0.8-3.5-1.3
		c-0.4-0.2-0.7-0.5-0.9-1c-0.2-0.7,0-1.4,0.5-1.9C85.1,107.5,85.7,107.5,86.3,108.1z"/>
	<path class="st89" d="M84.3,114c-1.3-0.5-2.6,1-4,0c-0.5-0.6-0.9-1.4-0.9-2.2c0.1-0.9,0.3-1.6,1-2.2c1.4-0.7,2.7-0.6,3.8,0.4l0,0
		c0.6,0.7,0.6,1.3,0,2C84.3,112.7,84.3,113.4,84.3,114z"/>
	<path class="st90" d="M84.3,112.1c0-0.7,0-1.3,0-2c1.6,0.2,3.6-0.7,4,2C86.9,112.1,85.6,112.1,84.3,112.1z"/>
	<path class="st91" d="M114,86.3c-2-0.6-4.9,1.6-5.9-2c-0.4-3.1,0.9-4.4,4-4c0.2,1.6-0.7,3.6,2,4C114,85,114,85.6,114,86.3z"/>
	<path class="st58" d="M24.8,13.9c0.9,0.1,1.5-0.2,2-0.9c1.4,0.1,2.7-0.4,3.9-1.2c0.4,0.3,0.6,0.6,0.7,1.1c0.3,1.4-0.7,2.5-1.1,3.7
		c0,0.9,0.7,1.2,1.4,1.4c0.6,0.2,1.1,0.6,1.5,1.1c0.6,1.1,0.7,2.3,0.6,3.5c0,0.5-0.1,1-0.3,1.5c-0.2,0.5-0.5,0.9-0.9,1.2
		c-0.7,0.4-1.4,0.6-2.2,0.7c-1.3,0.1-2.5,0-3.6-0.7c-1.2-2.5-3.4-3.4-5.9-3.8c-0.7-0.4-1.1-0.9-1.3-1.7c0.7-1,1.4-1.9,2.1-2.9
		C23.3,16.5,23.7,14.8,24.8,13.9z"/>
	<path class="st92" d="M19.7,19.8c0.4,0.4,0.8,0.7,1.2,1.1c0.5,0.6,0.6,1.3,0.4,2c-1.3,1.7-1,4.1-2.1,5.8c-0.5,0.5-1.2,0.7-1.9,0.5
		c-0.5,0-0.5-0.7-1-0.8C16,30.5,14.6,31.8,13,33c-0.6,0.4-1.3,0.5-2,0.4c-0.5-0.1-0.9-0.4-1.2-0.8C12.3,27.8,15.2,23.2,19.7,19.8z"
		/>
	<path class="st93" d="M9.8,32.7c0.4,0,0.8,0.1,1.2,0.1c2,2.4,0.7,5.7,2.4,8.1c0.2,1.9-1,2.5-2.6,2.6c-0.9-0.1-1.7-0.3-2.3-1.1
		c-1.5-2.7-0.2-5.2,0.5-7.8c0-0.6,0-1.3,0.1-1.9C9.2,32.7,9.5,32.7,9.8,32.7z"/>
	<path class="st94" d="M34.6,8.8c2.5-3.2,6.8-2.1,9.9-4c0,0,0.2,0.3,0.2,0.3c0.5,0.7,0.4,1.5-0.1,2.2c-2.8,2.4-5.8,3.6-9.5,2.1
		C35,9.2,34.8,9,34.6,8.8z"/>
	<path class="st95" d="M31.7,10.9c0.3-0.6,0.7-1.3,1-1.9c0.6-0.1,1.3-0.1,1.9-0.2c0,0,0.2,0.2,0.2,0.2
		C35.2,12.1,33.7,11.8,31.7,10.9z"/>
	<path class="st96" d="M8.9,34.6c0,2.7,0,5.3,0,8c-0.3,0.8-0.9,1.4-1.4,2c-0.3,0.3-0.7,0.5-1.1,0.6c-0.7,0.1-1.3-0.1-1.7-0.7
		c0.8-2.6,1.5-5.2,2.3-7.8C7.6,36,8.3,35.3,8.9,34.6z"/>
	<path class="st97" d="M31.7,10.9c1.5,0.1,2.8,0.1,3.1-1.9c3.5,0.5,6.6-1.1,9.8-2.1C44.8,7,45,7.1,45.3,7.2c1.3,1.1,2.7,2.2,1.2,4.2
		c-2.7,1.5-5.5,2.6-8.1,4.2c-1.7,0.6-3.4,0.7-5.2,0c-1.3-0.5-1.5-1.9-2.5-2.7c0-0.4,0-0.8-0.1-1.2C31,11.4,31.4,11.2,31.7,10.9z"/>
	<path class="st98" d="M94.4,64.4c1.2,1.1,0.9,2.5,0.9,3.8c0.5,3.9,1.5,7.8,0.5,11.8c-0.8,1.2-1.9,1.4-3.2,1.4
		c-0.9,0-1.7-0.3-2.4-0.8c-2.4-4.2-1.1-8.5-0.5-12.6c0,0.6-0.2,1.4-1.2,1.6c-2.2-1.6-1.3-4.1-1.8-6.2c-0.1-0.5-0.1-0.9,0-1.4
		c0.4-1.5,2-2.4,1.8-4.1c0.1-1.2,0.6-2.2,1.9-2.7c1.8,0.2,2.5,1.3,2.6,2.9c0,0.7-0.2,1.4-0.4,2.1C93,61.7,93.5,63.2,94.4,64.4z"/>
	<path class="st99" d="M96.2,40.7c0.4,4.7-0.8,9.3-1,13.9c-3.7-2.6-2.7-7.1-4.6-10.5c-0.1-0.5-0.1-1,0-1.5c0.4-1.7,0.5-3.5,0.4-5.3
		c0.1-1.6,0-3.3,1-4.7c0.4-0.4,0.9-0.7,1.5-0.8c1.2-0.2,2.4,0,3.2,1.1C97.9,35.6,98,38.2,96.2,40.7z"/>
	<path class="st100" d="M96.2,40.7c0-2.6,0-5.3,0-7.9c0.4-1.1,1.1-1.9,2.1-2.4c0.7-0.2,1.3-0.1,1.9,0.1c1.2,0.9,2.8,1.1,3.9,2.3
		C104,41.8,105.2,40.5,96.2,40.7z"/>
	<path class="st101" d="M91.2,43.7c2.3,3.3,2.3,7.4,3.9,10.9c0.3,2.2-1,4-1.9,5.8c-0.4,0.6-0.7,0.6-0.9-0.1c0-0.6,0-1.1,0-1.7
		c1-2.4-0.3-3.2-2.3-3.6c-0.7-0.3-1-0.8-0.9-1.6c2.3-1.6,1.1-3.3,0.2-5.1C88.7,46.3,87.6,44,91.2,43.7z"/>
	<path class="st102" d="M106.1,23.7c0,1.7,0,3.3,0,5c-0.7,0.7-1.3,1.3-2,2c-0.2-0.1-0.4-0.1-0.7-0.2c-1.4-0.8-3.3-0.8-4.1-2.5
		c-0.6-2.4-0.8-4.6,1.7-6.1c1-0.4,2-0.4,3.1-0.2C105.1,22.1,105.8,22.8,106.1,23.7z"/>
	<path class="st103" d="M100.2,80.3c0,1.6,0,3.3,0,5c-1.7-0.6-0.4-2.2-1.6-3.1c-0.5,2.1-0.4,4.4-2.1,6c-1.2-0.8-1.7-2.2-1.5-3.4
		c0.6-4.1,0.3-8.4,1.4-12.5c2,2.3-0.5,5.7,1.8,7.9c0.3-0.5,0.7-0.5,1,0C99.5,80.3,99.8,80.3,100.2,80.3z"/>
	<path class="st104" d="M96.4,72.4c0,5.3,0,10.6,0.1,15.9c0,0.7-0.1,1.3-0.1,2c-0.3,0.1-0.5,0.1-0.8,0.2c-0.9-0.2-1.5-0.7-1.9-1.5
		c-0.7-3.1-0.1-6,1.6-8.6c0-4,0.1-8.1,0.1-12.1C96.4,69.4,95.9,71,96.4,72.4z"/>
	<path class="st105" d="M104.1,80.3c0,2.6,0,5.3,0,7.9c-0.8-0.4-1-1.2-1-2c0-3.3,0-6.5,0-10.1C104.8,77.5,103.8,79.1,104.1,80.3z"/>
	<path class="st106" d="M99.2,80.3c-0.3,0-0.7,0-1,0c0-2.3,0-4.5,0-6.8c0.3,0,0.7,0,1,0C99.2,75.8,99.2,78.1,99.2,80.3z"/>
	<path class="st102" d="M108.1,30.7c0.7,0,1.3,0,2,0c-0.1,1.4-0.8,2-2.2,1.9c-0.6,0-1.4-0.3-1.3-1C106.7,31.2,107.6,31,108.1,30.7z"
		/>
	<path class="st107" d="M104.1,32.7c-1.6-0.2-3.6,0.7-4-2c0.2-0.2,0.4-0.3,0.5-0.5c1.3-0.6,2.4-0.4,3.4,0.5c0,0,0,0,0,0
		C104.1,31.4,104.1,32.1,104.1,32.7z"/>
	<path class="st108" d="M92.3,60.3c0.3,0.1,0.6,0.1,0.9,0.1c0.4,1.3,0.7,2.7,1.1,4C92.8,63.5,92.3,62,92.3,60.3z"/>
	<path class="st109" d="M104.2,21.8c-0.4,0.8-1.2,1-2,1c-1.4-1.3-3.3-2.2-3.4-4.5c0.1-0.7,0.6-1.1,1.3-1.3c0.4,0.3,0.8,0.5,1.2,0.8
		C102.2,19.2,104.4,19.6,104.2,21.8z"/>
	<path class="st110" d="M23.8,106c-0.3,0-0.7,0.1-1,0.1c-1-0.7-1.9-1.4-2.9-2.1c-3.3-1.8-5.3-4.8-7-7.9c0-0.6-0.1-1.1-0.1-1.7
		c-0.3-0.4-0.3-0.9-0.2-1.4c0.6-0.8,1.3-1.3,2.4-1c1.1,0.7,0.2,2.9,2.2,3c0.7,0.8,1.3,1.8,2.4,2c0.6,0.2,1.2,0.5,1.7,1
		c0.8,1.8,1.7,3.5,2.6,5.3C24,104.3,24.3,105.2,23.8,106z"/>
	<path class="st111" d="M12.9,96.1c3,2,4.7,5.3,7,7.9C15.5,103.3,11.8,101.8,12.9,96.1z"/>
	<path class="st112" d="M12.9,93.2c0,0.4-0.1,0.8-0.1,1.2c-0.9-0.5-1.5-1.3-1.9-2.3c0-0.6,0-1.3,0-1.9
		C14.1,89.6,13.7,91.3,12.9,93.2z"/>
	<path class="st113" d="M40.7,106.1c-2.6-0.8-6.1,2-7.9-2c-0.3-0.4-0.3-0.9,0-1.3c2.8-1.4,6.1,0.2,8.9-1.5c1.9-0.4,3.8-1.2,5.8-0.8
		c0.7,0.3,1.3,0.8,1.7,1.5c0.2,0.8,0.2,1.5-0.2,2.2c-0.4,0.3-0.8,0.6-1.3,0.7C45.1,104.8,43.2,107.3,40.7,106.1z"/>
	<path class="st114" d="M32.8,103c0,0.4-0.1,0.8-0.1,1.2c-3.7,1.4-1.3,4.6-2,6.9c-2.3-1.7-4.6-3.3-7-5c-0.3-0.6-0.6-1.3-1-1.9
		c2.7-0.8,5.3-2.2,8.1-2.8C31.9,101.5,32.8,101.7,32.8,103z"/>
	<path class="st115" d="M40.7,106.1c2.2-0.9,4.2-2.7,6.9-2c0.3,2.9-1.5,5.3-1.9,8.1c-0.5,0.2-0.9,0.3-1.4,0.3
		c-1.3,0.3-2.6,0.6-3.6-0.5C40.7,110.1,40.7,108.1,40.7,106.1z"/>
	<path class="st116" d="M40.7,112.1c1.3,0,2.6,0,4,0c0.3,0.2,0.4,0.4,0.3,0.7c-0.1,0.2-0.2,0.3-0.3,0.3c-1.2,0.7-2.5,1.1-4,1
		C40.7,113.4,40.7,112.7,40.7,112.1z"/>
	<path class="st117" d="M44.6,113.1c0-0.3,0-0.7,0-1c0.3,0,0.7,0,1,0c0.9-0.8,2-0.9,3-0.2c0.5,0.8,0.5,1.5-0.1,2.2c-0.3,0-0.7,0-1,0
		C46.6,113.7,45.6,113.4,44.6,113.1z"/>
	<path class="st118" d="M84.3,10.9c1.3,0,2.7,0,4,0c0,0,0,0,0,0c1,0.9,2.4,1.2,3.2,2.2c0.5,0.4,1,0.9,1.4,1.3
		c0.7,0.7,1.8,1.3,1.4,2.6c-0.6,0.6-1.3,0.9-1.9,1.4c-0.4,3.4,3.6,2.8,4.5,4.9c0.5,1.3,0.4,2.5-0.5,3.7c-1.2,0.9-2.4,0.9-3.7,0.5
		c-3-4.8-7.1-8.3-12.4-10.3c-0.5-0.7-0.5-1.4-0.3-2.1c0.4-0.6,1.1-0.9,1.8-1.1c3.4,1.4,1.3-1.7,2-2.5C84,11.3,84.1,11.1,84.3,10.9z"
		/>
	<path class="st119" d="M80.3,7c2.1,0.6,3.4,1.9,4,4c0,0,0,0,0,0c-0.6,0.5-1.2,0.9-2,0.9c-0.8,0-1.5-0.1-2.2-0.5
		c-2-1.5-4.9-0.7-6.9-2.5c-0.2-0.5-0.1-1.1,0.2-1.5C75.6,5.1,78,6.2,80.3,7z"/>
	<path class="st93" d="M80.3,7c-2.4,0.1-4.8-0.4-6.9,1c-0.9,0.2-1.2-0.1-1-1c-0.3-0.3-0.7-0.7-1-1c1.8-1.8,4-0.6,6-1
		c0.3,0,0.6,0,0.9,0.1C79,5.7,79.7,6.3,80.3,7z"/>
	<path class="st120" d="M92.2,14.9c-0.3-0.3-0.7-0.7-1-1c0.8-1.1,2-0.9,3.1-1.1c2.6,0.6,4.6,1.8,5.8,4.3c-0.3,0.3-0.6,0.6-0.9,0.9
		c-1.1,0.6-2,0-2.9-0.5c-0.4-0.2-0.7-0.5-0.9-0.8C94.7,15.2,93.2,15.6,92.2,14.9z"/>
	<path class="st121" d="M94.3,12.8c-0.7,1.2-1.9,1.1-3.1,1.1c-1.3-0.7-2.3-1.6-3-3c1.2,0,2.4,0.1,3.7,0.1
		C92.7,11.6,93.5,12.2,94.3,12.8z"/>
	<path class="st122" d="M12.9,93.2c0-1.4,0-2.8-2-3c-0.1-1.3-0.7-1.9-2-2c-1.1-1.5-1.7-3.1-2.1-4.9C7,83.2,7.2,83.1,7.3,83
		c0.6-0.1,1.1-0.1,1.7-0.2c1-0.2,1.7-1,2.6-1.3c1.1-0.3,2.2-0.3,3.2,0.3c2.2,1.7-0.5,5,2,6.6c0.1,0.2,0.2,0.4,0.3,0.5
		c0.1,0.4,0.1,0.8,0,1.2c-0.6,0.9-1.3,1.6-2.3,2C14.2,92.6,13.6,92.9,12.9,93.2z"/>
	<path class="st74" d="M6.8,83.4c-1.6-1.6-2-3.7-2-5.9c0,0,0.2-0.2,0.2-0.2c2,0.1,2,1.9,2.6,3.1c0.2,1,0.2,2-0.6,2.8L6.8,83.4z"/>
	<path class="st123" d="M4.7,44.6c0.7,0,1.5,0.1,2.2,0.1c1.1,1,1.1,2.4,0.9,3.8c-0.7,2-0.5,4.2-0.8,6.2c-0.4,1-0.6,2.2-2.1,1.9
		c0-1.3,0-2.6,0-4c-0.2-1.7,0.7-3.6-1-5C3.9,46.5,3.6,45.4,4.7,44.6z"/>
	<path class="st124" d="M44.6,6.9c0-0.6,0.1-1.2,0.1-1.8C48.3,5,51.9,5,55.5,5c0.3,0,0.7,0,1,0c0,0.3,0,0.6,0,1
		c2.6,1.3,5.5-0.2,8.1,0.9c0.4,0.9,0.3,1.7-0.3,2.4c-2.4,1.6-5,0.9-7.6,1.1c-2.5,0-5,0.2-7.5-0.5C47.7,8.9,46.2,7.9,44.6,6.9
		L44.6,6.9z"/>
	<path class="st125" d="M5,56.5c0.8-0.4,1-1.2,1-2c0.5-0.3,1-0.3,1.4,0.1c0.5,0.6,0.7,1.4,0.8,2.2c0.2,2.7-0.3,5.6,1.5,8
		c0.8,2.3,0.6,4.7,0.6,7.1c0,1.3,0,2.7-0.1,4c-0.2,1.6-0.6,3.1-1.8,4.3c-0.5,0.4-1,0.4-1.4,0c-0.6-1-1.2-2-1.8-3C5,73,5,68.7,5,64.5
		C3.2,61.8,4.1,59.2,5,56.5L5,56.5z"/>
	<path class="st126" d="M5,56.5c0,2.6,0,5.3,0,7.9c-0.3,0-0.7,0-1,0c-0.8-2-0.8-4,0-5.9C4,57.7,4.2,57,5,56.5z"/>
	<path class="st127" d="M4,58.5c0,2,0,4,0,5.9c-0.3,0-0.6,0-0.9-0.1C3.3,62.4,2.2,60.2,4,58.5z"/>
	<path class="st128" d="M48.6,112.1c-1,0-2,0-3,0c-1.3-3.1-0.3-5.7,2-7.9c0.3,0,0.7,0,1,0c1,0.8,1.2,2.1,1.6,3.2
		c4.2,2.3,10.7,2,13.6-0.8c5.2-3.3,10.7-1.7,16.1-1.2c0.9,0.5,1.2,1.3,1.4,2.2c0.1,1-0.3,1.8-0.9,2.5c0,0.7,0,1.3,0,2
		c-3.1,2.3-6.7-0.1-9.9,1c-1.1,0-2.3-0.2-3,1c-1,0.9-2,0.8-3,0c-2.2-3.7-5.1-2.1-7.9-1C53.8,113.4,51.1,113.4,48.6,112.1z"/>
	<path class="st129" d="M48.6,112.1c2.7-0.2,5.3,0.2,7.9,1c-2.4,2.4-5.3,0.3-7.9,1C48.6,113.4,48.6,112.7,48.6,112.1z"/>
	<path class="st130" d="M64.5,114c1,0,2,0,3,0c0.7,0.5,1.8,0.5,2.1,2c-1.8,0-3.4,0-5.1,0C64.5,115.4,64.5,114.7,64.5,114z"/>
	<path class="st131" d="M70.4,113.1c3.1-2,6.6-0.5,9.9-1c0,0.7,0,1.3,0,2C77,114.1,73.6,114.2,70.4,113.1z"/>
	<path class="st61" d="M64.5,8.9c0-0.7,0-1.3,0-2c1.3-0.7,2.6-0.7,4,0c1.3,0,2.6,0,4,0c0.3,0.3,0.7,0.7,1,1c0,0.3,0,0.7,0,1
		c-0.3,0.4-0.8,0.7-1.3,0.9c-2.4,0.5-4.8,0.7-7.1-0.3C64.8,9.3,64.7,9.1,64.5,8.9z"/>
	<path class="st132" d="M68.4,6.9c-1.3,0-2.6,0-4,0c-2.6-0.5-5.5,1-7.9-1C60.5,6.5,64.6,4.9,68.4,6.9z"/>
	<path class="st133" d="M96.3,90.3c3.8,1.1,4.2,4.1,3.9,7.4c-0.2,2.3-1.4,3.8-3.9,3.5c-1-1.1-1.3-2.4-1.3-3.8c0-1.9-0.1-3.8,0.2-5.8
		c0.1-0.5,0.4-1,0.8-1.4L96.3,90.3z"/>
	<path class="st134" d="M87.3,102.2c0,0.3,0,0.6,0,0.9c-0.2,0.2-0.4,0.4-0.5,0.6c-1.9,1-4,0.7-6,0.6c-1.5-0.1-2.8-0.7-4.3-0.8
		c-2.3-1.1-5.8,2.3-7.3-1.8c0.6-1.3,1.8-1.5,3.1-1.7c1.5-0.1,2.9-0.2,4.4-0.5c1.3-0.1,2.5,0.3,3.6,0.8
		C82.4,101.5,85.3,100,87.3,102.2z"/>
	<path class="st135" d="M96.2,97.2c0,1.3,0,2.6,0,4c-1.4-0.1-2.7,0.3-4,1c-2,0.2-1.7-1.3-1.9-2.5c0.1-1,0.6-1.9,1.4-2.5
		C93.2,96.6,94.7,96.1,96.2,97.2z"/>
	<path class="st31" d="M86.3,108.1c-0.7,0-1.3,0-2,0c-0.1-0.1-0.3-0.3-0.4-0.4c-0.2-0.6-0.2-1.2,0-1.8c0.3-0.7,0.6-1.5,1.3-2
		c0.7-0.4,1.6-0.1,2.1-0.8c0,0,0,0,0,0c0.3,0.3,0.7,0.7,1,1c0.5,0.6,1.5,0.3,2,1c0,0.3,0,0.7,0,1C88.7,106.3,86.6,105.4,86.3,108.1z
		"/>
	<path class="st136" d="M87.3,102.2c-2.6-0.4-5.5,0.9-8-1c0.3-0.4,0.7-0.7,1.1-0.8c0.7-0.2,1.4-0.3,2.1-0.3c1.4,0,2.8-0.1,4.2,0.2
		c0.5,0.1,0.9,0.3,1.3,0.6c0.2,0.3,0.3,0.5,0.3,0.8c-0.1,0.3-0.1,0.4-0.2,0.4C87.8,102.1,87.5,102.1,87.3,102.2z"/>
	<path class="st137" d="M88.1,102.1c0.1-0.3,0.2-0.6,0.3-0.8c0-0.2,0.1-0.5,0.1-0.7c0.7-0.9,1.3-2.1,2.8-1.2c0,1.1-0.2,2.2,1,2.8
		C90.8,103.9,89.5,101.7,88.1,102.1z"/>
	<path class="st87" d="M90.2,105.1c-0.8,0-1.6-0.2-2-1c2.3,0,4.5,0,6.8,0c0,0.3,0,0.7,0,1C93.5,105.1,91.9,105.1,90.2,105.1z"/>
	<path class="st138" d="M80.3,110.1c0-0.7,0-1.3,0-2c1.3-1.1,2.6-1.1,4,0c0,0,0,0,0,0c0,0.7,0,1.3,0,2
		C83,110.1,81.7,110.1,80.3,110.1z"/>
	<path class="st139" d="M32.7,22.8c0-1.3,0-2.6,0-4c-0.6-0.9-0.6-1.6,0.2-2.4c2.6-1.1,5.3-0.3,7.9-0.9c1.8,0,3.6-0.1,5.4,0.2
		c2,0.3,3.4,1.4,2.8,3.7c-2.6,3.1-6.3,1.1-9.3,2.1c-0.9,0.4-1.9,0.7-2.8,1.3C35.6,23.5,34.2,24.1,32.7,22.8z"/>
	<path class="st140" d="M32.7,24.8c0-0.3,0-0.7,0-1c5.4-0.6,10.8-0.4,16.1,1c0.4,0.8,0.4,1.5,0,2.3c-1.6,1.7-3.5,2.7-5.9,3
		c-3.5,0-7.1,0.9-10.4-1C31.5,27.6,31.7,26.2,32.7,24.8z"/>
	<path class="st141" d="M20.8,22.8c0-0.7,0-1.3,0-2c2.7,0.2,6.6-1.3,5.9,4c1.2,2.5-0.9,3.4-2.3,4.5c-1.5,0.5-2.8,0.5-4-0.7
		C19.6,26.6,19.5,24.7,20.8,22.8z"/>
	<path class="st142" d="M48.6,24.8c-5.4,1-10.6-0.1-15.9-1c0-0.3,0-0.7,0-1c1.4,0.2,2.7-0.3,4-1c3.6-0.1,7.2-0.7,10.7,0
		c0.5,0.2,1,0.4,1.3,0.8C49.2,23.4,49.2,24.1,48.6,24.8z"/>
	<path class="st143" d="M24.8,28.8c0.7-1.3,1.3-2.6,2-4c1.3,0,2.6,0,4,0c1.3,2.2-0.6,3.1-1.7,4.3c-1.2,0.7-2.4,0.7-3.7,0.2
		C25.2,29.1,25,28.9,24.8,28.8z"/>
	<path class="st144" d="M28.8,28.8c0.7-1.3,1.3-2.6,2-4c0.7,0,1.3,0,2,0c0,1.3,0,2.6,0,4c-0.4,1.1-1.2,2-2.3,2.5
		c-0.7,0.2-1.4,0-2-0.5C28.2,30,28.2,29.4,28.8,28.8z"/>
	<path class="st145" d="M32.7,16.9c0,0.7,0,1.3,0,2c-0.7,0-1.3,0-2,0c-0.9-0.4,0.1-2.7-2-2c0.7-1.3,1.3-2.6,2-4c1.3,0,1.9,0.7,2,2
		C33.3,15.6,33.3,16.2,32.7,16.9z"/>
	<path class="st139" d="M28.8,16.9c2.4-1.1,1.9,0.7,2,2C29.5,18.8,28.8,18.2,28.8,16.9z"/>
	<path class="st146" d="M12.9,40.7c-4-1.8-1.2-5.3-1.9-7.9c0.6,0,1.3,0,1.9-0.1c0.2,0.2,0.4,0.4,0.5,0.6c0.9,2.3,0.9,4.6,0,6.8
		C13.3,40.3,13.1,40.5,12.9,40.7z"/>
	<path class="st147" d="M12.9,32.7c1-1.6,1.8-3.4,3.1-4.8c0.8-0.9,0.7,0.5,0.9,0.9c0.9,0.9,1.1,2,0.7,3.3c-0.2,0.4-0.5,0.8-0.8,1.1
		c-0.6,0.4-1.3,0.5-2,0.5C14,33.6,13.4,33.2,12.9,32.7L12.9,32.7z"/>
	<path class="st148" d="M20.8,22.8c0,2,0,4,0,6c-0.1,0.1-0.3,0.3-0.4,0.4c-0.4,0.1-0.8,0.1-1.1,0c-0.1-0.1-0.3-0.3-0.4-0.4
		C19.5,26.8,17.2,23.8,20.8,22.8z"/>
	<path class="st149" d="M16.9,32.7c0-1.3,0-2.6,0-4c0.7,0,1.3,0,2,0c0,0,0,0,0,0c1,1.2,1.2,2.5,0.3,3.9
		C18.4,33.3,17.6,33.3,16.9,32.7z"/>
	<path class="st150" d="M10.9,42.6c1.3,0,1.9-0.7,2-2c0,0,0,0,0,0c0.9-0.8,1.2-2.2,2.6-2.5c0.8-0.1,1.5,0.2,2,0.9
		c0.8,1.8,0.7,3.6,0.1,5.5c-2.2,3-1,6.6-1.5,9.8c-0.1,0.8-0.5,1.6-1,2.2c-0.8,0.5-1.6,0.6-2.3,0.1c-0.6-0.7-0.8-1.4-1-2.3
		c-0.2-2.1-0.6-4.2-1.4-6.2C9.5,46.3,9.4,44.3,10.9,42.6z"/>
	<path class="st151" d="M10.9,42.6c-1,4.2,3,7.7,2,11.9c-1.2,1-2.6,1.2-4,0.4c-1.5-1.6-1.3-3.5-1.2-5.4c0.4-2-0.2-3.9-0.7-5.8
		c0.4-0.8,1.1-1,1.9-1.1C9.6,42.6,10.3,42.6,10.9,42.6z"/>
	<path class="st152" d="M7,43.7c1.3,1.4,1.5,3.2,1.9,4.9c-0.7,0.6-1.3,0.5-2,0c0-1.3,0-2.6,0-4C7,44.3,7,44,7,43.7z"/>
	<path class="st153" d="M38.7,14.9c1.9-2.8,4.7-3.7,7.9-4c0.7-0.6,1.5-0.6,2.2-0.1c0.5,0.7,0.7,1.5,0.7,2.4
		c-0.1,0.9-0.4,1.6-1.1,2.2c-2.4,0.9-5,0.4-7.5,0.5C40.1,15.8,39.3,15.6,38.7,14.9z"/>
	<path class="st154" d="M38.7,14.9c0.7,0,1.3,0,2,0c0.6,0.7,0.6,1.3,0,2c-2.6,0-5.3,0-7.9,0c0-0.7,0-1.3,0-2
		C34.7,14.9,36.7,14.9,38.7,14.9z"/>
	<path class="st155" d="M48.6,10.9c-0.7,0-1.3,0-2,0c-0.7-1.3-1.3-2.6-2-4c1.6,0.2,3.6-0.7,4,2C49.2,9.6,49.1,10.3,48.6,10.9z"/>
	<path class="st156" d="M88.4,101.2c-0.4,0-0.7-0.1-1.1-0.1c-0.4-0.4-0.9-0.5-1.3-0.9c-0.1-0.3-0.2-0.7-0.1-1
		c0.2-0.7-0.1-1.4-0.2-2.1c0.1-1.4,0.5-2.8,0.8-4.2c0.6-1.6,0.5-3.6,2.1-4.8c0.5-0.1,0.9,0.1,1.1,0.5c0.2,1,0,1.9,0.1,3.1
		c0-1.4-0.1-2.7,0-3.9c0.3-2.7,0.6-5.3,2.4-7.5c1,0,2,0,3,0c-0.3,3-0.7,5.9-1,8.9c0.3,1-0.3,1.2-1.1,1.1c-0.2-0.4-0.4-0.8-0.3-1.3
		c-0.5,0.3-0.1,0.7,0,1c0.1,0.6,0.5,1.1,0.7,1.7c0.4,1.4-0.1,2.7-0.6,4c-0.2,0.4-0.5,0.7-0.9,1C90.8,98.2,89.1,99.3,88.4,101.2
		L88.4,101.2z"/>
	<path class="st157" d="M89.2,88.3c-1.6,1.3-0.7,3.5-2,5c-1.9,0.1-1.8-1.4-2.1-2.6c-0.5-2.8,1.6-5.6-0.3-8.4
		c-0.6-2.2,1.1-3.7,1.6-5.6c1.1-2.3-0.3-5.2,1.9-7.3c1.8-1.2,0.3-3.4,2-5.5c0,5.9,0,11.2,0,16.4C91.9,83.2,90,85.7,89.2,88.3z"/>
	<path class="st158" d="M87.3,61.5c0,0.3,0,0.7,0,1c1,4,0.2,8,0.4,12c0,0.6-0.3,1-0.9,1.2c-2.9-2-1.6-5.1-2.1-7.7
		c-1.4-3.9-1.2-7.8-0.1-11.7c1.9-0.5,2.8,0.7,3.4,2.2C88.3,59.6,87.9,60.6,87.3,61.5z"/>
	<path class="st159" d="M87.2,58.5c-0.6-1.3-1.5-2.1-3-1.9c-0.3,0-0.5-0.1-0.8-0.1c-1.2-0.6-3.5-1.1-2.9-2.5c1-2.6,3.8-1.5,5.9-1.7
		c1.1,0.1,2.1,0.3,2.8,1.2c0.3,0.3,0.6,0.6,1,1c0.3,0.2,0.5,0.4,0.4,0.7c-0.1,0.2-0.2,0.4-0.3,0.4c-0.3,1-0.7,2-1,3
		C88.6,59,87.9,59.1,87.2,58.5z"/>
	<path class="st160" d="M89.2,88.3c-0.5-2.7,0.9-5.2,1-7.9c0.7,0,1.3,0,2,0c0.1,2.8-0.6,5.5-2,7.9C89.9,88.7,89.6,88.7,89.2,88.3
		L89.2,88.3z"/>
	<path class="st108" d="M87.2,75.4c0-4.3,0-8.6,0.1-12.9c1.8,2.1,0.6,4.6,1,6.9c-0.5,2.6,1,5.5-1,7.9C86.7,76.7,86.7,76,87.2,75.4z"
		/>
	<path class="st108" d="M87.2,58.5c0.7,0,1.3,0,2,0c1.7,2.5-1.2,2-1.9,3C87.3,60.5,87.3,59.5,87.2,58.5z"/>
	<path class="st108" d="M90.3,55.5c0-0.3,0-0.7,0-1c2.5,0.5,4,1.4,2.1,4.1C92.2,57.2,91.6,56.1,90.3,55.5z"/>
	<path class="st161" d="M91.2,43.7c-2.9,1.1-1,3.2-1,4.9c0.6,0.9,0.9,1.9,0.1,2.7c-0.9,0.9-1.2-0.1-1.5-0.8
		c-0.2,1.4-0.9,2.3-2.3,2.6c-0.7,0-1.4,0.1-2.1-0.1c-1.1-0.4-2.3-0.7-2.4-2.2c0.5-1.2,1.8-2.1,1.9-3.6c0.3-2.2-0.3-4.5,1-6.5
		c1-1,2.2-1.1,3.4-0.9c1,0.3,1.6,0.9,2.3,1.6c0.3,0.4,0.5,0.8,0.7,1.2C91.2,43,91.2,43.3,91.2,43.7z"/>
	<path class="st162" d="M93.2,32.7c-0.3,0-0.7,0-1,0c-1.6-0.5-0.9,0.9-1,1.4c-0.3,1.2-0.1,2.7-2,2.7c-1.2-1.1-1.5-2.7-2.5-3.9
		c-1-2.7-2.6-4.8-4.6-6.8c1.3-1.6,0-4.4,2.3-5.6c3.7,1.4,5.1,5.4,8.5,7.2C94.3,29.3,94.6,31,93.2,32.7z"/>
	<path class="st163" d="M89.3,36.7c2.2-2,0-4.9,1.5-7.2c1.8,0.5,1.3,2,1.5,3.2c0,1.7,0,3.3,0,5c-1.4,1.3-0.5,3.6-2,4.9
		c-0.8-0.4-1-1.2-1-2c-0.8-0.9-2.3-1.3-2.2-2.9C87.6,37,88.3,36.6,89.3,36.7z"/>
	<path class="st164" d="M93.2,32.7c0.1-1.7-0.1-3.4-1-5c-0.3-0.2-0.4-0.4-0.3-0.7c0.1-0.2,0.2-0.3,0.3-0.3c1.3,0,2.6,0,4,0
		c0.4,0.3,0.6,0.6,0.8,1c0.4,1,0.9,1.9,1.2,3c0,1.3-0.7,2-2,2C95.2,32.7,94.2,32.7,93.2,32.7z"/>
	<path class="st165" d="M90.3,42.6c0-1.9-0.3-3.9,2-4.9c-0.2,1.7,0.7,3.6-1,5c0,0-0.5,0-0.5,0L90.3,42.6z"/>
	<path class="st166" d="M98.2,30.7c-2-0.1-2-1.5-2-3c1.1-1.7,1.5-3.3,0-5c-3.9-0.1-6.5-1.3-5-5.9c1.7,1.6,3.3,1.8,5,0
		c1,0.4,2,0.7,3,1.1c1,1.6,2,3.3,3,4.9c-3.6,1-1.3,4-2,5.9c0.6,0.7,0.6,1.3,0,2c0,0,0,0,0,0C99.5,30.7,98.8,30.7,98.2,30.7z"/>
	<path class="st167" d="M86.2,52.6c1.3-1.4,3.2-2.2,4.1-4c1.2,2,4.4,4.3-1,5c-1,0-2,0-2.9-0.1c-0.3-0.1-0.5-0.3-0.4-0.5
		C86,52.8,86.1,52.6,86.2,52.6z"/>
	<path class="st109" d="M100.2,30.7c0-0.7,0-1.3,0-2c1.5,0.2,3.6-0.7,4,2C102.8,30.7,101.5,30.7,100.2,30.7z"/>
	<path class="st168" d="M92.4,96.4c-0.4-1.5,0.2-2.8,0.8-4.2c-0.5-0.7-0.5-1.3,0.1-1.9c0.3-0.3,0.7-0.7,1-1c0.6,0.3,1.1,0.6,1.7,0.9
		c0.1,0.3,0.1,0.7,0.2,1C94.8,92.8,96.9,97,92.4,96.4z"/>
	<path class="st169" d="M30.9,102.1c-2.6,1-4.8,3.6-8.1,2c-0.6-2-2.7-3.5-2-5.9c0.4-0.3,0.8-0.4,1.2-0.3c1.4,0.6,2.9,1.3,4.3,0
		c0.6-0.3,1.2-0.4,1.9-0.4c0.6,0.1,1.1,0.5,1.6,0.9c0.5,0.4,0.9,0.9,1.2,1.4c0.2,0.4,0.3,0.7,0.3,1.1
		C31.3,101.4,31.2,101.8,30.9,102.1z"/>
	<path class="st170" d="M18.8,98.2c-2-0.1-2-1.5-2-3c-1.3-1.7-1.2-3.3,0-5l0,0c0.9-0.8,1.1-2.2,2.6-2.5c0.8-0.1,1.5,0.2,2,0.9
		c1,2.3,0.9,4.6,0.2,7C21.2,96.9,19.7,97.2,18.8,98.2z"/>
	<path class="st171" d="M16.9,90.2c0,1.7,0,3.3,0,5c-3.7,1-1.3-2-2-3C14.9,90.9,15.6,90.3,16.9,90.2z"/>
	<path class="st172" d="M18.8,98.2c0-1.3,0.7-2,2-2c0.8-0.4,1.2,0.1,1.4,0.8c0,0.5-0.1,0.9-0.4,1.2c-0.3,0-0.7,0-1,0
		C20.2,98.2,19.5,98.2,18.8,98.2z"/>
	<path class="st173" d="M85.3,104.1c0,0.8-0.2,1.6-1,2c-1.3,1.1-2.6,1.1-4,0c-4,0-8.1,0-12.1,0c-1.6,0-3.4-0.4-3.7,2
		c-5.3,1.6-10.6,1.6-15.9,0c0-1.3,0-2.6,0-4c0-0.7,0-1.4,0-2.1c-0.3-1.1,0.2-1.7,1.1-2.1c1.2,0,2,0.8,3,1.3
		c4.4,2.1,9.1,1.8,13.9,1.6c3.2,1,6.4,0.4,9.6,0.3c1.4,0,2.7,0.6,4.2,0.5C82,103.8,83.7,103.2,85.3,104.1z"/>
	<path class="st174" d="M30.9,102.1c0-0.3,0-0.7,0-1c2.2-1.1,4.9,0.1,6.9-1.6c0.9,0.2,1.5,0.8,2.1,1.2c0.3,0.2,0.7,0.4,1,0.6
		c0.3,0.2,0.6,0.5,0.8,0.9c-2.8,2.7-5.9,0.8-8.9,0.8C32.2,102.7,31.5,102.4,30.9,102.1z"/>
	<path class="st175" d="M41.7,102.2c-0.4,0-0.7-0.1-1.1-0.1c-0.2-0.8,0.3-1.2,0.9-1.6c1.4-0.5,2.6-1.4,3.5-2.6
		c0.9-1.3,2-0.8,2.9,0.1c0.4,0.6,0.5,1.3,0.4,2c-0.1,0.5-0.4,0.9-0.7,1.2C45.6,101.3,43.8,102.6,41.7,102.2z"/>
	<path class="st176" d="M47.6,101.1c0-0.3,0-0.7,0-1c1.1-0.8-0.4-3.1,1.9-3.1c0.6,0.5,0.8,1.2,0.8,1.9c0,0.5-0.2,0.9-0.5,1.3
		c-0.5,0.6-0.9,1.2-1.4,1.8C48.3,101.7,47.9,101.4,47.6,101.1z"/>
	<path class="st177" d="M92.2,26.8c0,0.3,0,0.7,0,1c-4.2-0.5-5.4-4.4-7.9-6.9c-3.2,1.4-6.4,1.4-9.8,0.8c-1-0.4-2-0.9-2.5-1.9
		c-0.4-2.2,1.1-3,2.7-3.7c2-0.5,3.9-0.6,5.6,0.8C86.4,17.7,91,20.2,92.2,26.8z"/>
	<path class="st178" d="M80.3,16.9c-2,0-4,0-5.9,0c-0.7,0.6-1.4,0.5-2.2,0.1c-0.9-1.2-0.9-2.5-0.3-3.8c0.3-0.5,0.7-0.8,1.2-1.1
		c2.5-0.6,4.9-0.9,7.3,0.5c0.5,0.8,0.6,1.5,0,2.3C80.3,15.5,80.3,16.2,80.3,16.9z"/>
	<path class="st179" d="M96.2,16.9c-0.1,1,0.3,2.6-1.2,2.7c-1.9,0.2-3.4-0.5-3.7-2.7c1,0,2,0,3,0C94.9,16.2,95.5,16.3,96.2,16.9
		L96.2,16.9z"/>
	<path class="st180" d="M82.3,10.9c0.7,0,1.3,0,2,0c-0.6,1.4,2,4.3-2,4C81.3,13.6,81.2,12.2,82.3,10.9z"/>
	<path class="st181" d="M96.2,22.8c3.7,1.6,2.1,3.3,0,5c0-0.3,0-0.7,0-1C96.2,25.5,96.2,24.1,96.2,22.8z"/>
	<path class="st182" d="M82.3,10.9c0,1.3,0,2.6,0,4c-0.7,0-1.3,0-2,0c0-0.7,0-1.3,0-2c-0.6-0.7-0.5-1.3,0-2
		C81,10.9,81.7,10.9,82.3,10.9z"/>
	<path class="st183" d="M96.2,16.9c-0.7,0-1.3,0-2,0c-0.7-0.7-1.3-1.3-2-2C93.8,15.1,95.9,14.2,96.2,16.9z"/>
	<path class="st184" d="M80.3,10.9c0,0.7,0,1.3,0,2c-2.6,0-5.3,0-7.9,0c-1.2-1.3-1-2.6,0-4c0.3,0,0.7,0,1,0
		C75.7,9.6,78.9,7.3,80.3,10.9z"/>
	<path class="st185" d="M7.9,80.3c0.3-1.3,0.7-2.6,1-4c2.1-1.4,3.1-3.3,2.7-5.9c0-1.7,0-3.3,0.3-4.9c0.1-0.5,0.4-0.9,0.7-1.3
		c0.6-0.5,1.4-0.7,2.1-0.7c0.8,0,1.5,0.2,2.2,0.6c0.4,0.4,0.6,0.8,0.8,1.3c0.5,2.2,0.5,4.5-0.2,6.7c-1.8,2.1-1.2,4.8-1.8,7.3
		c-0.2,0.4-0.4,0.8-0.7,1.2c-1.2,1.1-3.1,0.3-4.1,1.7c0,1.3-0.7,2-2,2C8.4,83,6.8,82,7.9,80.3z"/>
	<path class="st186" d="M16.9,89.3c-5.9-0.8-1.1-4.7-2-6.9c-0.6-0.7-0.6-1.3,0-2l0,0c0.7-0.6,1.4-0.6,2.2-0.2
		c0.4,0.4,0.6,0.9,0.8,1.4C18.1,84.2,18.8,86.9,16.9,89.3z"/>
	<path class="st187" d="M16.9,89.3c0-3,0-6,0-8.9c0.9-0.6,1.7-0.4,2.4,0.3c1.3,2.6,1.4,5.2-0.4,7.6c0,1.3-0.7,2-2,2
		C16.9,89.9,16.9,89.6,16.9,89.3z"/>
	<path class="st188" d="M14.9,80.3c0,0.7,0,1.3,0,2c-1.3,0-2.6,0-4,0C11.2,79.6,13.3,80.5,14.9,80.3z"/>
	<path class="st189" d="M7.9,80.3c0.3,1.3,0.7,2.6,1,3.9c-0.6-0.3-1.2-0.7-1.9-1c-0.1-1-0.1-1.9-0.2-2.9C7.3,80.3,7.6,80.3,7.9,80.3
		z"/>
	<path class="st190" d="M7,48.6c0.7,0,1.3,0,2,0c0,2,0,4,0,5.9c2,3,1.7,6.1,0.6,9.3c-0.2,0.2-0.4,0.4-0.6,0.6c-4-1.8-1.1-5.3-2-7.9
		c1-1.3,0.2-2.8,0.6-4.2c-0.2,0.8,0.1,1.6-0.6,2.3c-0.3,0-0.7,0-1,0C6.3,52.6,5.1,50.3,7,48.6z"/>
	<path class="st191" d="M48.6,10.9c0-0.7,0-1.3,0-2c2.6,0,5.3,0,7.9,0c0.9,1,2.6,1.3,2.4,3.1c-3.2,3.5-6.7,2.5-10.4,0.8
		C48.6,12.2,48.6,11.6,48.6,10.9z"/>
	<path class="st153" d="M58.5,10.9c-1.3,0-2-0.7-2-2c2.6,0,5.3,0,7.9,0c0,0,0,0,0,0c1,1.2,1.1,2.5,0.3,3.8
		C61.9,14.8,60.3,12.4,58.5,10.9z"/>
	<path class="st8" d="M12.9,64.5c0,2,0,4,0,5.9c-1.2,0.9-1.6,3.5-4,2c0-2.6,0-5.3,0-7.9c0,0,0,0,0,0C10.3,63.5,11.6,63.3,12.9,64.5z
		"/>
	<path class="st192" d="M8.9,72.4c1.3-0.7,2.6-1.3,4-2c-0.2,2.7,1.3,6.6-4,6C8.9,75,8.9,73.7,8.9,72.4z"/>
	<path class="st126" d="M6.9,72.4c-0.2,1.4,1.5,2.6,0.4,4.4C5.6,75.4,5.5,74,6.9,72.4L6.9,72.4z"/>
	<path class="st193" d="M7,72.4c0-1.6,0-3.2,0-4.8C8,69.3,8.4,70.9,7,72.4C6.9,72.4,7,72.4,7,72.4z"/>
	<path class="st194" d="M6.9,54.6C7,53.9,7,53.3,7.1,52c1,2,1.2,3.3-0.2,4.5C6.9,55.9,6.9,55.2,6.9,54.6z"/>
	<path class="st115" d="M48.6,108.1c5.3,0,10.6,0,15.9,0c-0.2,1.4-0.9,2-2.3,2c-3.8,0-7.5,0-11.3,0
		C49.5,110.1,48.8,109.5,48.6,108.1z"/>
	<path class="st195" d="M80.3,106.1c1.3,0,2.6,0,4,0c0,0.7,0,1.3,0,2c-1.3,0-2.6,0-4,0C80.3,107.4,80.3,106.8,80.3,106.1z"/>
	<path class="st196" d="M64.5,12.9c0-1.3,0-2.6,0-4c2.6,0,5.3,0,7.9,0c0,1.3,0,2.6,0,4c0,0,0,0,0,0c-2.3,1.7-4.8,1.6-7.3,0.6
		C64.9,13.3,64.7,13.1,64.5,12.9z"/>
	<path class="st197" d="M92.4,96.4c3-0.5,2.2-3.7,3.8-5.2c0,2,0,4,0,6.1c-1.2-0.2-2.4,1.2-3.6,0c-0.7-0.1-0.8-0.5-0.3-1L92.4,96.4z"
		/>
	<path class="st198" d="M85.3,82.3c2.1,0.2,2.2,1.7,1.7,3.2c-0.5,1.6-0.8,3.1-0.7,4.7c-1.1,1.8-4.1,2.4-3.5,5.3
		c-0.7,1.6-1.2,3.2-2.1,4.7c-1.6,0.7-2.3-1.3-3.7-1.3c-0.6-0.3,0.3-0.4-0.4-0.2c-0.2,0.1-0.2,0.2-0.2,0.4c0,0.2,0.2,0.3,0.3,0.3
		c0.1,0.4,0,0.6-0.4,0.8c-1.1,1.4-2.6,0.9-3.9,0.9c-1.8-0.6-3.9-0.6-5.3-2.3c-0.5-0.5-0.9-1-1.1-1.7c0-0.5,0.1-0.9,0.4-1.2
		c2-1.3,4.4-1.9,6.4-3.3c1.1-0.7,2.3-1.4,3.4-2.1C80,88.6,81.8,84.5,85.3,82.3z"/>
	<path class="st199" d="M76.4,104.1c-3.6,0-7.3,0-10.9,0c-0.4-0.4-1-0.6-1.4-1c-0.2-0.4-0.2-0.8-0.2-1.2c0.1-0.4,0.2-0.8,0.4-1.1
		c0.4-0.5,0.8-0.9,1.4-1.1c0.6-0.2,1.2-0.2,1.8,0.1c1,0.5,1.5,1.3,2,2.3c2.3,1.7,4.7-0.4,7,0.2C77,102.8,76.9,103.5,76.4,104.1z"/>
	<path class="st200" d="M69.4,102c-1-0.3-1.6-0.9-2-1.9c-0.6-0.6-0.5-1.3,0.1-1.9c1.7,0.9,3.3,1.9,5,2.8
		C71.4,101.3,70.2,101,69.4,102z"/>
	<path class="st201" d="M76.4,98.2c1.9-0.4,2.8,0.9,4,2c0.2,0.2,0.3,0.4,0.2,0.6c-0.1,0.2-0.2,0.3-0.2,0.3c-0.3,0-0.7,0.1-1,0.1
		c-1-0.3-1.9-0.7-2.9-1c0-0.3,0-0.7,0-1c-0.3-0.2-0.4-0.4-0.3-0.7C76.1,98.3,76.3,98.2,76.4,98.2z"/>
	<path class="st202" d="M85.3,104.1c-1.7,0-3.3,0-5,0c-0.3-0.2-0.4-0.4-0.3-0.6c0.1-0.2,0.2-0.3,0.3-0.3c2.3,0,4.6,0,6.9,0
		C86.8,103.9,86.1,104.1,85.3,104.1z"/>
	<path class="st203" d="M80.3,103.2c0,0.3,0,0.7,0,1c-1.3,0-2.6,0-4,0c0-0.7,0-1.3,0-2C77.7,102.5,79,102.8,80.3,103.2z"/>
	<path class="st168" d="M92.3,96.2c0.1,0.3,0.2,0.7,0.3,1c-0.4,0.7-0.9,1.4-1.3,2.1c-1,0.6-2,1.3-3,1.9
		C87.9,98.1,90.5,97.5,92.3,96.2z"/>
	<path class="st204" d="M80.3,101.1c0-0.3,0-0.6,0-0.9c-0.3-2,0.3-3.7,2-5c0.5-0.2,0.9-0.2,1.3,0.2c0.2,2.8,0.2,2.8,2.7,3.8
		c0,0.3,0,0.6,0,1c-1.1,1.1-2.8-0.1-4,1C81.7,101.1,81,101.1,80.3,101.1z"/>
	<path class="st201" d="M82.3,101.1c1-1.4,2.6-0.8,4-1c0.3,0.3,0.6,0.6,0.9,1C85.6,101.1,84,101.1,82.3,101.1z"/>
	<path class="st205" d="M72.4,19.8c0.8,0,1.6,0.2,2,1c0.6,0.5,0.6,1.2,0.4,1.9c-0.9,1.3-2.9,1.2-3.4,3c-0.3,0.7-0.8,1.2-1.4,1.6
		c-1.8,0.8-3.6,0.8-5.3-0.1c-0.6-0.5-1.1-1.1-1.5-1.7c-3-2.8-6.6-0.9-9.9-1.4c-1.7,0-3.3-0.2-4.6-1.4l0,0c-3-2.4-7,0.4-9.9-2
		c3.1-2,6.6-0.5,9.9-1c1.5-1.2,2.9-0.3,4.4,0.1c3.7,1,7.4,0.6,11.1,0.3C66.9,20.7,69.6,20.1,72.4,19.8z"/>
	<path class="st206" d="M52.6,20.8c-1.3-0.3-2.6-0.7-4-1c-0.9-5.8-5.4-1.8-7.9-3c0-0.7,0-1.3,0-2c2.6,0,5.3,0,7.9,0
		c2.2-1.6,4.7-0.8,7.2-0.8c2.4,1.8,5.4,1.3,8,2.1c0.5,0.2,0.9,0.6,1.1,1.1c0.2,0.8,0,1.6-0.7,2.1c-2.1,1.1-4.4,0.7-6.7,0.8
		C55.9,20.1,54.1,19.8,52.6,20.8z"/>
	<path class="st207" d="M38.7,20.8c3.2,1.1,7.3-2.2,9.9,2c-4-0.5-8.1,1.1-11.9-1C37.1,21,37.9,20.9,38.7,20.8z"/>
	<path class="st208" d="M48.6,22.8c1.7,0,3.3,0,5,0c0.8,1.1,3-0.3,3.3,1.8c-0.7,2.4-3.1,3.2-4.7,4.6c-2.3,1.4-1.1,3.2-0.5,4.9
		c0.9,5.2-1.8,9.8-2.8,14.6c-1.2,0.9-2.5,1-3.9,0.4c-2.2-4.2-3.5-8.6-1.4-13.3c0.5-1.2,0.7-2.5,1-3.7c0.6-2.4,2.6-3.7,4.1-5.4
		c0-0.7,0-1.3,0-2C48.6,24.1,48.6,23.5,48.6,22.8z"/>
	<path class="st209" d="M30.7,30.8c0.1-1.3,0.7-2,2-2c3.6,0,7.3,0,10.9,0c0.1,3.6-3.5,5-4.7,7.8c-1.3,2.2-2.4,4.5-3.9,6.6
		c-0.8,0.6-1.6,1.2-2.6,0.3c-0.7-1.1-0.8-2.4-0.9-3.6c0-2.4,0.3-4.8-1.2-7C30.1,32.1,30.2,31.4,30.7,30.8z"/>
	<path class="st210" d="M37.7,35.7c2-2.3,4-4.6,5.9-6.9c1.6-0.7,3.3-1.3,4.9-2c0.1,2.3-2.3,3.1-3,5c-1.6,2.1-0.9,5.8-4.7,6.3
		C39.6,37.6,38.7,36.6,37.7,35.7z"/>
	<path class="st148" d="M20.8,28.8c1.3,0,2.6,0,4,0c0,0,0,0,0,0c0.6,0.9,0.5,1.6-0.2,2.4C22.4,31.9,20.4,32.3,20.8,28.8L20.8,28.8z"
		/>
	<path class="st211" d="M24.8,30.7c0-0.7,0-1.3,0-2c1.3,0,2.6,0,4,0c0,0.7,0,1.3,0,2c0.5,3.5-1.6,3.1-3.8,2.4
		C24.2,32.4,24.2,31.6,24.8,30.7z"/>
	<path class="st97" d="M24.8,32.7c1.6-0.2,3.6,0.7,4-2c0.7,0,1.3,0,2,0c0,0.7,0,1.3,0,2c1.8,2,0.4,4.9,2,7c0,1.3,0,2.6,0,4
		c0.1,1.8-0.9,3.2-1.6,4.7c-1.9,4-1.2,8.3-1,12.4c0.1,2.5,0,4.2-3.1,4.1c-3.5-1.9-1.1-5.7-2.7-8.2c-0.2-0.7-0.2-1.3,0-2
		c0.9-1.3,1.2-2.5-0.5-3.5c-3.6-2-3.4,0.7-3.6,2.8c-0.4,3.5,0.9,7.2-1.2,10.6c-0.7,0.4-1.4,0.3-2.1-0.2l0,0
		c-0.9-0.9-1.1-1.9-1.2-3.1c0-1.4,0-2.9-0.7-4.2c-0.1-0.2-0.1-0.4-0.1-0.6c0-0.7,0-1.3,0-2c2.4-3-0.4-6.9,2-9.9c0-2,0-4,0-6
		c-1.6-2-1.6-4,0-6c0,0,0,0,0,0c0.7,0,1.3,0,2,0C20.8,31.3,22.8,31.4,24.8,32.7z"/>
	<path class="st93" d="M14.9,38.7c0,1.3-0.7,2-2,2c0-2.6,0-5.3,0-7.9c0.7,0,1.3,0,2,0C16.2,34.7,16.2,36.7,14.9,38.7z"/>
	<path class="st212" d="M14.9,38.7c0-2,0-4,0-5.9c0.7,0,1.3,0,2,0c0,2,0,4,0,6C16.2,38.7,15.5,38.7,14.9,38.7z"/>
	<path class="st213" d="M24.8,32.7c-2,0-4,0-5.9,0c0-1.3,0-2.6,0-4c0.7,0,1.3,0,2,0c0.3,2.7,2.4,1.8,4,2
		C24.8,31.4,24.8,32.1,24.8,32.7z"/>
	<path class="st214" d="M12.9,64.5c-1.3,0-2.6,0-4,0c0-3.3,0-6.6,0-9.9c1.3,0,2.6,0,4,0c0,0.7,0,1.3,0,2
		C14.7,59.2,14.7,61.8,12.9,64.5L12.9,64.5z"/>
	<path class="st215" d="M16.9,44.6c-1.1,3.2,2.2,7.3-2,9.9C15.9,51.3,12.6,47.2,16.9,44.6z"/>
	<path class="st216" d="M12.9,64.5c0-2.6,0-5.3,0-7.9c0.7,0,1.3,0,2,0c0,0,0,0,0,0c1.1,1.1,1,2.6,1,4c0,1.4,0.1,2.8-1,4
		C14.2,64.5,13.6,64.5,12.9,64.5z"/>
	<path class="st217" d="M56.5,14.9c-2.6,0-5.3,0-7.9,0c0-0.7,0-1.3,0-2c3.2-1.1,7.3,2.2,9.9-2c2.4-0.6,3.5,2.6,5.9,2c0,0,0,0,0,0
		c0.6,0.9,0.6,1.6-0.2,2.4C61.6,16.1,59,16.4,56.5,14.9z"/>
	<path class="st218" d="M83.3,95.2c-0.3,0-0.7,0-1,0c-2.4-4.6,1.9-3.9,4-5c0,1.1-0.2,2.3,1,3c-0.3,1.7-0.7,3.3-1,5
		C82.7,99.8,85,95.4,83.3,95.2z"/>
	<path class="st198" d="M83.3,95.2c2.6-0.6,0.5,3.5,3,3c0.7,0.3,0.7,0.7,0,1C82.4,100,83,97.5,83.3,95.2z"/>
	<path class="st219" d="M93.2,90.3c0,0.6,0,1.3-0.1,1.9c-1.5-1.5-1-3.2-0.7-5C93.7,88.1,93,89.3,93.2,90.3z"/>
	<path class="st220" d="M89.3,88.3c0.3,0,0.7,0,1,0c0,1.3,0,2.6,0,3.9c-0.3,0-0.5,0-0.8,0.1C89.4,90.9,89.3,89.6,89.3,88.3z"/>
	<path class="st221" d="M85.3,82.3c-2.2,3.8-4.7,7.3-9,9c-0.6-4.3,4.1-5.8,4.9-9.4c3.1-1,2.5-5,5-6.5c0.3,0,0.6,0,1,0
		c0,0.7,0,1.3,0,2C86.6,79,86,80.7,85.3,82.3z"/>
	<path class="st222" d="M86.3,75.4c-0.1,3-2.1,5-4,6.9c-0.4,0.3-0.9,0.3-1.3,0c-1.2-1.8-0.5-3.5,0.7-5c1.1-1.4,1.4-2.9,0.8-4.6
		c-0.2-1.8-1.3-3.3-1.5-5.1c0.4-1.1,1.2-1.9,2.2-2.5c1.7-0.2,2,1.5,3,2.2C86.3,70.1,86.3,72.7,86.3,75.4z"/>
	<path class="st223" d="M86.3,67.4c-1.5,0.2-1.9-1.3-2.9-2c-1,0-1.7-0.4-2.2-1.2c0.1-1.5-0.5-2.9-0.5-4.4c0.1-0.9,0.4-1.7,0.8-2.6
		c0.2-0.4,0.5-0.8,0.9-1.1c0.7-0.3,1.3-0.1,2,0.2c0,0-0.1,0.2-0.1,0.2C86.6,59.9,83.3,64.3,86.3,67.4z"/>
	<path class="st224" d="M84.3,56.4c-0.7,0-1.3,0.1-2,0.1c-1.5,0.4-3.1,0.3-4.7,0.3c-1.9-0.1-4,0.2-5.5-1.4c-0.9-1.4-0.9-2.8,0.1-4.2
		c4.3-2.4,8.2-0.5,12,1.3c0.6,0,1.3,0.1,1.9,0.1c0.1,0.3,0.1,0.6,0.2,0.9c-1.6,0-3.3,0-5.1,0C81.9,55.1,83.9,54.9,84.3,56.4z"/>
	<path class="st225" d="M85.3,48.6c-0.5,1.3-1.6,2-3,2c-1,1.1-2.2,0.4-3.4,0.4c-1.4-0.8-3.4-0.5-4.3-2.2c-0.9-2.7-0.6-5.5-0.5-8.2
		c0.1-4.1-0.2-8-1.9-11.8c0.5-0.7,1.2-0.9,2-1c3.4,0.1,4.5,3.2,6.6,5C81.7,38.2,85.6,42.8,85.3,48.6z"/>
	<path class="st226" d="M85.3,48.6c0.1-5.8-6.8-9.5-5-15.9c0.4-0.3,0.8-0.3,1.2-0.1c1.5,1.4,2.4,3.1,3.4,4.9c0.4,1,1.1,2,0.4,3.2
		C85.3,43.3,85.3,45.9,85.3,48.6z"/>
	<path class="st227" d="M85.3,40.7c-0.3-1-0.7-2-1-3c-0.7-0.9-0.6-1.9-0.3-2.8c2.5-0.6,3,1,3.3,2.9c0.6,1,2.2,1.4,2,3
		C87.9,40.7,86.6,40.7,85.3,40.7z"/>
	<path class="st228" d="M78.3,50.5c1.3,0,2.6,0,4,0.1c0.7,0.7,1.3,1.3,2,2c-4-0.1-7.8-1.5-11.9-1c-0.3-0.4-0.4-0.9-0.4-1.4
		c0.5-1.1,1.4-1.3,2.4-1C75.4,50.7,77.3,49.3,78.3,50.5z"/>
	<path class="st229" d="M74.4,28.8c-0.7,0-1.3,0-2,0c-0.8-0.3-1.3-0.8-1.8-1.4c-0.1-0.2-0.1-0.4-0.2-0.5c0-0.7,0-1.3,0-2
		c1-1.3,3-0.6,4-2c0-0.7,0-1.3,0-2c3.3,0.6,6.6-1.4,9.9,0c-0.9,1.6,0.3,3.9-2,5c-1,1.3-2.3,2-3.8,2.4C77.1,28.6,75.6,27.2,74.4,28.8
		z"/>
	<path class="st142" d="M78.3,27.8c1-1.3,2.4-1.8,4-2c3.5,1,4.6,3.7,5,6.9c-0.7,1.1-1.7,1.4-2.9,1.3c-0.7-0.1-1.2-0.5-1.7-1
		C81.6,31,78.3,30.8,78.3,27.8z"/>
	<path class="st230" d="M84.3,33.7c1-0.3,2-0.7,2.9-1c2.7,0.3,1.8,2.4,2,4c-0.4,0.8-1.2,1-2,1c-1-1-2-2-3-3
		C84.1,34.4,84.1,34,84.3,33.7z"/>
	<path class="st231" d="M29.8,99.2c-0.4-0.3-0.7-0.7-1.1-1c-1.6-1.4-2.2-3.4-2.8-5.3c-0.5-2.5-1.4-5-1.4-7.7c0-1.6,0-3.2,0-4.8
		c0.3-3.2,0.3-6.6,3-9.1c0.9-0.3,1.5,0.2,2,0.9c0.6,1.4,0.9,3,0.4,4.3c-2.1,4.6-0.1,8.9,0.7,13.3c0.4,1.4,0.5,2.8,0.9,4.2
		c0.1,0.7,0.1,1.4,0,2.1C31.1,97.3,30.8,98.4,29.8,99.2z"/>
	<path class="st232" d="M38.7,100.2c-2.5,0.9-4.9,2.3-7.7,0.9c-0.1-0.3-0.2-0.6-0.3-0.9c0.4-1,1.1-1.8,2.1-2.3
		c0.9-0.3,2-0.1,2.6-1.3c0.4-0.5,0.9-0.9,1.5-0.9C39.4,96.4,39.3,98.2,38.7,100.2z"/>
	<path class="st170" d="M21.8,98.2c0-0.3,0-0.7,0-1c1-0.7,2.2-0.8,3.1-1.7c0.8-0.4,1.6-1,2.3,0.1c0.3,0.9,0.4,1.9-0.4,2.6
		C25.1,101.9,23.5,100.3,21.8,98.2z"/>
	<path class="st233" d="M32.7,98.2c0,1.4-0.8,2-2.1,2c-0.3-0.3-0.6-0.7-0.9-1c0.1-1.1-0.2-2.3,1-3c0.5,0,1,0.3,1.3,0.7
		C32.4,97.2,32.7,97.7,32.7,98.2z"/>
	<path class="st234" d="M26.8,98.2c0-1,0-2,0-2.9c-0.6-0.7-0.5-1.3,0-2c1.3,1.4,1.6,3.2,1.9,4.9C28.1,98.2,27.4,98.2,26.8,98.2z"/>
	<path class="st235" d="M18.8,88.3c0-2.6,0-5.3,0-7.9c0.2-0.2,0.3-0.3,0.4-0.5c0.6-0.3,1.2-0.4,1.9-0.4c0.7,0.1,1.3,0.3,1.9,0.7
		c0.3,0.4,0.5,0.8,0.6,1.2c0.3,2.1,0.6,4.3-0.9,6.1c-0.6,0.5-1.2,0.7-2,0.7C20.2,88.3,19.5,88.3,18.8,88.3z"/>
	<path class="st110" d="M20.8,88.3c0.3-0.3,0.7-0.7,1-1c0.6,0.3,1.2,0.6,1.6,1.2c1,2.3,0.2,4.8,1.2,7.1c0.1,0.2,0.1,0.4,0.2,0.6
		c-0.2,2.6-1.7,1.5-3,1c-0.3-0.3-0.7-0.7-1-1C20.8,93.5,20.8,90.9,20.8,88.3z"/>
	<path class="st236" d="M64.5,103.1c0.3,0.3,0.7,0.7,1,1c-4.8,0.2-9.5,0.1-13.9-2c-0.6-0.7-0.5-1.6-0.5-2.5c0.2-0.4,0.5-0.7,0.9-0.8
		c0.4,0,0.8,0.1,1.2,0.3c1.6,1.2,3.6,0.7,5.4,1.2c0.4,0.1,0.7,0.3,1,0.6c0.2,0.3,0.3,0.7,0.2,1C61.3,102.5,63.3,101.5,64.5,103.1z"
		/>
	<path class="st237" d="M51.6,99.1c0,1-0.1,2-0.1,3.1c-0.5-0.6-1.1-1.2-1.6-1.9c-0.1-0.3-0.2-0.6-0.2-0.9c0.6-0.7,0.1-2.3,1.5-2.1
		C52.1,97.3,52.1,98.3,51.6,99.1z"/>
	<path class="st238" d="M38.7,100.2c-0.9-1.2,0.3-3.4-1.9-4c-1.9-2.4-2.6-5.3-3.3-8.3c0.1-2.8-0.7-5.6,1-8.2
		c2.4,0.7,2.4,0.7,2.6,5.3c-0.1,1.7,0.6,3.2,1,4.8c0.6,2.5,2.1,1.2,3.4,1.1c0.7,0.1,1.4,0.3,2.1,0.7c1.8,1.9,6,2.4,4.1,6.7
		c-1-0.4-1.8-0.7-2.1,0.8c-0.4,2.1-2.1,2.2-3.8,2.1c-0.7,0.3,0-1.9-1.1-0.6c-0.4,0.4-0.4,1.2-0.9,1.6
		C38.8,101.7,38.7,101,38.7,100.2z"/>
	<path class="st239" d="M39.7,102.1c0.1-1.2-0.3-2.9,1.4-3.1c0.7-0.1,0.5,1.4,0.6,2.1c-0.3,0.3-0.7,0.6-1,0.9c0,0-0.5,0.1-0.5,0.1
		L39.7,102.1z"/>
	<path class="st240" d="M47.6,98.2c0.2-3.5-3.1-4.1-4.9-6c-0.8-1-0.5-1.8,0.5-2.4c1.8-0.4,3.1,1,4.7,1.2c0.9,0.3,1.7,0.7,2.4,1.3
		c1.7,2.1,4.4,2.6,6.6,3.9c0.1,0.5,0.2,0.9,0,1.4c-0.9,1.5-2.2,1.6-3.7,1.1c-1.2-0.6-1.7-2.8-3.7-1.6c-0.6,1-1.3,2-1.9,2.9
		C47.6,99.5,47.6,98.8,47.6,98.2z"/>
	<path class="st238" d="M49.6,97.2c1.7-1.7,2.6-1,3.1,1c0.3,0.4,0.2,0.7-0.1,1c-0.3,0-0.6-0.1-0.9-0.2c-1.1-2.8-1.3,0.5-2,0.3
		C49.6,98.6,49.6,97.9,49.6,97.2z"/>
	<path class="st166" d="M64.5,18.8c0-0.7,0-1.3,0-2c2.6-2,5.3-1.8,7.9,0c0.7,0,1.3,0,2,0c-0.6,1-2.1,1.4-2,3c-2.3,2.8-5.1,2.4-7.9,1
		c-0.3-0.3-0.5-0.6-0.5-1C64,19.4,64.1,19.1,64.5,18.8z"/>
	<path class="st241" d="M72.4,16.9c-2.6,0-5.3,0-7.9,0c0,0,0,0,0,0c-0.6-0.7-0.6-1.3,0-2c0-0.7,0-1.3,0-2c2.6,0,5.3,0,7.9,0
		C72.4,14.2,72.4,15.5,72.4,16.9z"/>
	<path class="st242" d="M16.9,64.5c0.7,0,1.3,0,2,0c1.8,1.7,1.2,4,1.4,6.1c-0.3,3.3,0.9,6.8-1.4,9.8c0,0,0,0,0,0c-0.7,0-1.3,0-2,0
		c0,0,0,0,0,0c-1.4-2.6-1.4-5.3,0-7.9C16.9,69.8,16.9,67.1,16.9,64.5z"/>
	<path class="st48" d="M16.9,72.4c0,2.6,0,5.3,0,7.9c-0.7,0-1.3,0-2,0C15.7,77.7,12.9,74.2,16.9,72.4z"/>
	<path class="st243" d="M14.9,64.5c0-1.3,0-2.6,0-4c0.7-0.6,1.3-0.6,2,0c0,1.3,0,2.6,0,4C16.2,64.5,15.5,64.5,14.9,64.5z"/>
	<path class="st244" d="M81.3,82.3c0.3,0,0.7,0,1,0c-0.9,3.7-4.6,5.6-5.9,9c-1,0.7-1.9,1.3-2.9,2c-1.4,0.5-2.7,1-4.1,1.5
		c-0.4,0-0.8-0.2-1.1-0.5c-0.3-1.3-0.3-2.6,0.7-3.7c4.2-1.6,7-5,10.5-7.6C80,82.6,80.6,82.3,81.3,82.3z"/>
	<path class="st245" d="M67.5,98.3c0,0.6-0.1,1.2-0.1,1.9c-0.6,0-1.2,0.1-1.8,0.1c-2.1,0.2-3.5-0.7-4.3-2.7c1.6-2.1,3.3-1.7,5.1-0.4
		C66.8,97.5,67.1,97.9,67.5,98.3z"/>
	<path class="st246" d="M68.4,94.2c1.7-0.3,3.4-0.6,5-1c-2,1.7-4.3,2.8-7,3c-0.7,0.5-1.4,0.4-2.2,0C64.7,93.6,66.7,94.2,68.4,94.2z"
		/>
	<path class="st247" d="M64.5,96.1c0.7,0,1.3,0.1,2,0.2c0,0.3,0,0.6,0,0.9c-1.7,0.3-3.6-0.7-4.9,1c-2,1-3.4,0.5-4.2-1.5
		C59.5,94.1,62,94.5,64.5,96.1z"/>
	<path class="st248" d="M76.4,98.2c0,0.3,0,0.7,0,1c-0.7,0.2-1.5,0.4-2.2,0.5c0,0-0.3-0.6-0.2-0.7C74.4,97.9,75.5,98.3,76.4,98.2z"
		/>
	<path class="st249" d="M73.8,97.1c-0.4-0.3-0.7-0.6-1-0.8c0.3-0.3,0.5-0.7,0.9-0.8c0.3-0.1,0.7,0.3,1,0.5
		C74.4,96.3,74.1,96.6,73.8,97.1z"/>
	<path class="st250" d="M57.4,97.1c1.4,0.4,2.7,0.7,4.1,1.1c1.9-0.5,2.9,1.1,4.1,2.1c-0.4,0.3-0.7,0.6-1.1,1c-1.7,1.2-3.4,1.1-5.2,0
		l-0.4,0l-0.4-0.1c-1.7-1.7-4.7,0.9-6-1.9c0,0,0,0,0,0c0-0.3,0.1-0.7,0.1-1c1.4-0.2,3,0.4,3.9-1.2C56.9,96.7,57.2,96.7,57.4,97.1z"
		/>
	<path class="st251" d="M64.5,103.1c-2.3,0-4.6,0-7.1,0c0.7-1.3,1.6-0.8,2.3-1.1c1.6-0.6,3.2-0.6,4.8,0
		C64.4,102.4,64.4,102.8,64.5,103.1z"/>
	<path class="st247" d="M64.4,102c-1.6,0-3.2,0-4.8,0c-0.1-0.3-0.2-0.6-0.3-0.8c1.7,0,3.4,0,5.2,0C64.5,101.5,64.4,101.7,64.4,102z"
		/>
	<path class="st252" d="M51.6,28.8c1.1-2,3.3-2.6,5-4c2.6-1.5,5.3-1.4,7.9,0c0,0.7,0,1.3,0,2c0.6,0.8,0.6,1.6-0.1,2.4
		c-2.5,1.4-5.1,1-7.8,1C54.8,30.1,53,30.2,51.6,28.8z"/>
	<path class="st253" d="M64.5,28.8c0-0.7,0-1.3,0-2c2,0,4,0,5.9,0c0,0,0,0,0,0c1.9,3,0.5,4.9-2,6.6c-1.5,0.5-2.9,0.6-4.2-0.5
		C63.3,31.4,63.4,30.1,64.5,28.8z"/>
	<path class="st254" d="M64.5,19.8c0,0.3,0,0.7,0,1c-4,1.6-7.9,1.6-11.9,0c-0.3-4,2.8-1,4-2C59,20.2,61.9,18.5,64.5,19.8z"/>
	<path class="st207" d="M64.5,24.8c-2.6,0-5.3,0-7.9,0c-1-0.7-2-1.3-3-2c2.6,0,5.1,0,7.7,0C62.7,22.8,64.2,22.8,64.5,24.8z"/>
	<path class="st177" d="M74.4,22.8c-0.3,2.7-2.4,1.8-4,2C70.7,22.1,72.8,23,74.4,22.8z"/>
	<path class="st255" d="M64.5,14.9c0,0.7,0,1.3,0,2c-2.6-0.8-6.1,2-7.9-2C59.2,14.9,61.8,14.9,64.5,14.9z"/>
	<path class="st256" d="M64.5,19.8c-2.6-0.4-5.5,1-7.9-1c2.6,0,5.3,0,7.9,0C64.5,19.2,64.5,19.5,64.5,19.8z"/>
	<path class="st257" d="M68.4,32.7c1.3-1.8,2.4-3.6,2-5.9c1.3,0,1.9,0.7,2,2c1.6,1,2.9,1.9,2.8,4.3c-0.2,5.5,0.1,11,0.2,16.5
		c-0.3,0.4-0.6,0.4-1,0c-0.9,0-1.6,0.2-2,1.1c-0.4,0.2-0.8,0.4-1.3,0.4c-1.7-0.3-3.5-0.4-5.2-0.1c-3.1,1.4-6-0.6-9-0.7
		c-2.6-1.2-6,1.1-8.3-1.7c-1.2-5.5,3.2-10.3,2-15.9c0.8-0.8,1.8-0.9,2.8-0.4c1.9,3.2,2.2,7.1,4.3,10.3c1.5,2.3,2.8,2.8,5.2,1.7
		C70,41.1,70,41.1,68.4,32.7z"/>
	<path class="st258" d="M40.7,37.7c3.1-0.8,2.3-4.8,5-5.9c-2.1,5.5-1.3,11.2-1,16.9c-0.4,1-1.1,1.8-2.1,2.3c-1.7,0-3.3-0.7-5-0.7
		c-0.4-0.1-0.8-0.4-1.1-0.7c-0.5-1.7-0.8-3.4-0.7-5.2c0-0.7,0.2-1.3,0.5-2C37.6,40.7,37.9,38,40.7,37.7z"/>
	<path class="st259" d="M42.6,50.6c0-1.3,0.7-1.9,2-2c1.3,0,2.6,0,4,0c2.6,0.5,5.4-0.5,7.9,1c0.3,0.3,0.3,0.5,0.3,0.8
		c-0.1,0.3-0.1,0.4-0.2,0.4c-0.9,0.8-2.1,1.1-3.3,1.5c-1,0.2-1.9,0.2-2.9,0c-2.5-1.2-5.2,0.9-7.7-0.4c-0.2-0.3-0.3-0.6-0.3-0.8
		C42.5,50.7,42.6,50.6,42.6,50.6z"/>
	<path class="st260" d="M53.6,32.7c-1,0-2,0-3,0c-3.1-2.2-1.2-3.1,1-4c1.7,0,3.3,0,5,0c1.2,1.7,0.3,3-0.8,4.2
		C55,33.3,54.2,33.3,53.6,32.7z"/>
	<path class="st261" d="M36.7,42.7c0,0.7,0,1.3,0,2c-1.5,1.7-0.7,3.3,0,5l0,0c0.9,0.8,0.5,1.7,0.2,2.5c0.2,1.1,1.7,0.6,2.1,1.4
		c0.1,0.4,0.1,0.9-0.1,1.3c-0.8,1.1-1.8,1.4-3.1,1.3c-5.2-0.4-3.4-5.2-4.9-7.9c-0.1-0.2-0.2-0.4-0.2-0.6c0.2-1.6,0.7-3,2-4
		c0.7-0.3,1.3-0.7,2-1C35.4,42.1,36,42.1,36.7,42.7z"/>
	<path class="st262" d="M36.7,42.7c-0.7,0-1.3,0-2,0c-0.1-2.8,2.8-4.3,3-6.9c1.4,0,2.9,0,2.9,2C39.3,39.3,38,41,36.7,42.7z"/>
	<path class="st263" d="M32.7,39.7c-2.3-1.9-2-4.4-2-7C34.4,34.2,32.1,37.4,32.7,39.7z"/>
	<path class="st186" d="M18.8,70.4c0-2,0-4,0-5.9c0-4.2,0-8.5,0-12.7c0-1.9,0.4-3.1,2.7-3.2c2.2-0.1,3.5,0.6,3.3,3c0.9,1,0.8,2,0,3
		c0,0.7,0,1.3,0,2c1.7,2.2-0.1,4.7,0.7,6.9c-1,2.2-4.2,3-3.8,6.1c-0.2,0.5-0.5,0.8-0.8,1.2C20.1,71,19.4,71,18.8,70.4z"/>
	<path class="st264" d="M27.9,71.4c-1.4,2.8-2.2,5.7-2.1,8.8c-0.2,0.1-0.4,0.3-0.6,0.4c-0.5-0.2-0.8-0.6-1.1-1
		c-0.9-5.4-0.8-10.5,2.7-15.1c2.1-0.4,2.4-1,2.2-3.5c-0.3-4.4-2.1-9.3,1.7-13.3c0,0,0.1,0,0.1,0c1.7,3.8-0.8,7.9,0.8,11.7
		c0.4,1.6,0.4,3.2,0.2,4.8C30.8,66.7,30.5,69.7,27.9,71.4z"/>
	<path class="st265" d="M26.8,64.5c-1.4,5.2-2.4,10.4-2,15.8c-0.6,0.6-1.3,0.6-1.9,0.1l0,0c-2.1-2.2-0.6-5.5-2.4-7.8
		c-0.2-0.8-0.1-1.5,0.4-2.2l0,0c1.3-2,1.4-4.8,4-5.9c0-2.6,0-5.3,0-7.9c1.4,0.1,2.4,1,1.7,2.2C25.4,60.9,26.6,62.6,26.8,64.5z"/>
	<path class="st266" d="M16.9,60.5c-0.7,0-1.3,0-2,0c0-1.3,0-2.6,0-4C17.5,56.9,16.7,58.9,16.9,60.5z"/>
	<path class="st265" d="M24.8,54.5c0-1,0-2,0-3c0.7-0.1,1.6-0.9,1.9,0.4C27,53.3,26.5,54.5,24.8,54.5z"/>
	<path class="st267" d="M81.3,82.3c-0.3,0.3-0.7,0.7-1,1c-0.9,0.7-1.9,0.7-2.9,0.3c-1.2-1.4-0.5-2.8,0.2-4.1c1-1.2,1.7-2.5,2-4.1
		c0.6-1.8,1.3-3.5,3.7-3.1c1.6,2,1.5,4.1-0.5,5.6C81.3,79.2,81.3,80.7,81.3,82.3z"/>
	<path class="st268" d="M83.3,72.4c-1,1-2,2-3,3c-1.4,0.2-2.7,0.1-3.8-0.8c-1.2-2.5,2.9-3.1,1.9-5.5c0-0.9,0.1-1.8,0.6-2.6
		c0.6-0.5,1.3-0.6,2-0.4c0.4,0.3,0.6,0.7,0.5,1.2C82.8,68.7,83.7,70.3,83.3,72.4z"/>
	<path class="st269" d="M81.5,67.3c-0.1-0.3-0.1-0.5-0.2-0.8c-0.5-0.5-0.6-1-0.3-1.6c0.1-0.1,0.3-0.3,0.4-0.4c0.9,0,1.6,0.2,2.1,1
		C83.3,66.6,82.8,67.4,81.5,67.3z"/>
	<path class="st270" d="M78.3,55.6c1.4,0.1,2.9-0.5,4,0.9c0,0.3,0,0.7,0,1c-0.4,0.4-0.6,1-1.1,1.4c-0.4,0.2-0.7,0.3-1.1,0.3
		c-0.4-0.1-0.8-0.2-1.1-0.4c-0.5-0.4-0.9-0.9-1.1-1.5C77.7,56.6,77.8,56.1,78.3,55.6z"/>
	<path class="st271" d="M80.3,58.6c0.3,0,0.6,0,1,0c0.3,0.2,0.4,0.4,0.3,0.6c-0.1,0.2-0.2,0.3-0.3,0.3c-0.1,1.7,3,3.4,0,5
		c0,0,0,0,0,0c-0.9,0.3-1.4-0.3-1.7-1c-0.2-0.5-0.3-1-0.3-1.5C79.1,60.7,79.4,59.5,80.3,58.6z"/>
	<path class="st272" d="M81.4,59.4c0-0.3,0-0.6-0.1-0.9c0.3-0.3,0.7-0.7,1-1C82.3,58.3,82.2,59.1,81.4,59.4z"/>
	<path class="st273" d="M71.4,50.6c0.3,0,0.6,0.1,1,0.1c0,0.3,0,0.5,0,0.8c0,1.2,0,2.4,0,3.6c0,0.5-0.3,0.7-0.7,0.9
		c-0.9,0.1-1.6-0.4-2.3-1c-0.9-0.9-2.3-1.5-2.2-3.1C68.2,50.3,69.8,50.4,71.4,50.6z"/>
	<path class="st274" d="M78.3,55.6c0,0.6,0,1.3,0,1.9c-1.5,1.3-3,0.3-4.5,0c-0.4-0.1-0.8-0.4-1.2-0.6c-0.3-0.4-0.4-0.8-0.3-1.2
		c0,0,0.1-0.5,0.1-0.5C74.4,55.3,76.4,55.5,78.3,55.6z"/>
	<path class="st275" d="M78.3,27.8c1.6,1.7,3.9,2.7,5,4.9c-0.7,0.5-1.3,0.6-2,0c-0.3,0-0.7,0-1,0c-3.5,0.9-2.7-4.5-5.9-4
		C75,25.5,76.8,27.2,78.3,27.8z"/>
	<path class="st276" d="M74.4,49.6c0.3,0,0.7,0,1,0c1.2-0.5,2.7-1.6,3,1C77,50.5,75.4,51,74.4,49.6z"/>
	<path class="st277" d="M81.3,32.7c0.7,0,1.3,0,2,0c0.3,0.3,0.7,0.7,1,1c0,0.3,0,0.6,0,1c0,1,0,2,0,3C83,36.2,81.5,34.8,81.3,32.7z"
		/>
	<path class="st278" d="M34.7,79.3c0,3,0,5.9,0,8.9c-0.3,0.3-0.6,0.4-1,0.3c-0.6-0.5-1.2-0.6-1.9-0.1c-0.4,0.1-0.8,0.1-1.1-0.2
		c-0.5-0.8-0.4-1.6-0.4-2.5c-0.4-2.1,0.9-4.3,0-6.7c0.6,2.8-0.3,5.2,0,7.7c-0.1,1.2,0.7,2.5-0.5,3.5c-3.7-5.8-1.2-11.9-1-17.8
		c0.5-1,0.9-2.1,2.3-2.3c1.2,0.2,1.8,1.2,2.3,2.2c0.5,1.3,0.4,2.8,0.8,4.2c0.2,0.7,0.5,1.5,0.6,2.3C34.7,79,34.7,79.1,34.7,79.3z"/>
	<path class="st264" d="M22.8,80.3c0.6,0,1.3,0,1.9-0.1c0,0,0.2,0.2,0.2,0.2c0.9,1.6-0.2,3.4,0.8,5c0.3,2.6,0.7,5.2,1,7.8
		c0,0.7,0,1.3,0,2c-0.6,0.3-1.3,0.6-1.9,1c0,0,0,0,0,0c-2.1-2.3,0.2-5.7-2-7.9c-0.3-0.3-0.7-0.7-1-1C23.7,85.2,22.4,82.6,22.8,80.3z
		"/>
	<path class="st279" d="M30.8,70.4c-0.4,0.9-1,1.6-2,2c-0.3-0.3-0.6-0.7-0.9-1c1-2.3,2-4.6,3-7c0.7-0.6,1.3-0.5,2-0.1
		C33.5,66.8,32.6,68.8,30.8,70.4z"/>
	<path class="st280" d="M31.7,97.2c-0.3-0.3-0.7-0.7-1-1c0-0.7,0-1.3,0-2c-0.9-2.2-0.6-4.2,1-6l0,0c2.1,0,1.8,1.7,2.2,2.9
		c0.2,2,0.3,4-0.8,5.8C32.8,97.5,32.3,97.6,31.7,97.2z"/>
	<path class="st281" d="M31.7,88.3c-0.3,2-1.3,3.9-1,6c-1.4-1-0.8-2.6-1-4c0-1.3,0-2.7,0-4c0.3-0.4,0.7-0.5,1,0
		C30.8,87.1,30.9,87.8,31.7,88.3z"/>
	<path class="st278" d="M25.7,85.4c-1.3-1.5-0.7-3.3-0.8-5c0.3-0.1,0.6-0.1,0.8-0.2C25.7,81.9,25.7,83.7,25.7,85.4z"/>
	<path class="st282" d="M32.7,97.2c0-2,0-4,0-6c1-0.8,0-2.2,1-3c0.3,0,0.7,0,1,0c0.4,2.7,2.6,5,2,7.9c-0.3,0.3-0.7,0.7-1,1
		C34.7,98.1,33.7,97.9,32.7,97.2z"/>
	<path class="st283" d="M32.7,97.2c1,0,2,0,3,0c0.6,0.4,1,1,0.4,1.5c-1.2,1.1-2.3-0.1-3.4-0.5c-0.3-0.3-0.7-0.7-1-1
		C32.1,97.2,32.4,97.2,32.7,97.2z"/>
	<path class="st284" d="M20.8,70.4c0,0.7,0,1.3,0,2c1.4,2.6,1.4,5.3,0,7.9c-0.7,0-1.3,0-2,0c0-3.3,0-6.6,0-9.9
		C19.5,70.4,20.2,70.4,20.8,70.4z"/>
	<path class="st285" d="M20.8,80.3c0-2.6,0-5.3,0-7.9c4,1.8,1.1,5.3,2,7.9C22.2,80.3,21.5,80.3,20.8,80.3z"/>
	<path class="st170" d="M22.8,88.3c4,1.8,1.1,5.3,2,7.9C20.8,94.4,23.7,90.9,22.8,88.3z"/>
	<path class="st238" d="M52.5,99.2c1.5,2.2,4.9-1.4,6,1.9C56.4,100.9,53.6,102.6,52.5,99.2z"/>
	<path class="st286" d="M43.6,90.2c-0.8,0.4-1,1.2-1,2c-0.3-0.3-0.7-0.7-1-1c-3.5,0.2-4.2-3-5.9-5c-0.4-2.3,0.9-4.9-1-6.9
		c0,0,0,0,0,0c-0.5-2-1.9-4.1,0.2-6.1c1.8-0.1,2,1.4,2.6,2.5c0.2,0.7,0.3,1.4,0.4,2.1c0.4,2.6,1,5.1,3.1,6.9c1,1.2,2.2,2.2,3,3.6
		C44.3,89.1,44.2,89.7,43.6,90.2z"/>
	<path class="st287" d="M35.7,86.3c2.6,0.9,3.4,3.9,5.9,5c-1,0.7-2,1.5-3.4,2.5C37.4,91.2,36.6,88.7,35.7,86.3z"/>
	<path class="st288" d="M57.4,97.1l-0.4,0c0,0-0.4,0-0.4,0c0-0.3-0.1-0.6-0.2-0.8c-0.7-0.8-2.1-0.5-2.7-1.6
		c-2.3-0.9-3.7-3.2-6.3-3.6c-0.4-0.2-0.8-0.5-1.1-0.8c-0.1-0.5-0.1-0.9,0.1-1.4c0.7-0.8,1.5-1.2,2.5-1c2.8,1.2,5.5,2.8,8.5,3.7
		c3.4,1.9,7.7,0.3,11,2.6c0,0,0,0,0,0c-0.9,1.6-3.1,0.4-4,1.9C62.2,96.6,59.6,95.3,57.4,97.1z"/>
	<path class="st289" d="M46.6,90.3c3.3,0,5.5,2.2,7.9,4c-2,1.1-3.4-0.1-4.9-1.2c-0.6-0.3-1.3-0.6-1.9-1C47,91.7,46.1,91.4,46.6,90.3
		z"/>
	<path class="st238" d="M49.6,93.1c1.6,0.4,3.3,0.8,4.9,1.2c0.6,0.6,1.3,1.3,1.9,1.9C53.4,96.7,51.3,95.4,49.6,93.1z"/>
	<path class="st287" d="M46.6,90.3c0.4,0.6,0.8,1.3,1.1,1.9c-1.8,0.3-2.7-1.4-4.1-1.9c0-0.6,0-1.3,0-1.9
		C45.6,87.5,45.8,89.3,46.6,90.3L46.6,90.3z"/>
	<path class="st290" d="M77.3,83.3c1,0,2,0,3,0c-3.7,3.1-6.4,7.5-11.9,7.9c-0.2,0-0.4,0-0.7-0.1c-1.3-0.6-3-0.8-3.6-2.6
		c0.2-0.8,0.9-1.3,1.5-1.8c0.5-0.5,0.9-1.1,1-1.8c-0.4-1.2-2.3-0.8-2.4-2.2c0.4-1,1.3-1.3,2.2-1.6c2.3-0.2,4.5-0.3,6,1.9
		c0.1,2.5,1.3,1.6,2.4,0.7C75.7,83.3,76.4,82.8,77.3,83.3z"/>
	<path class="st291" d="M68.4,94.2c-4-0.2-8.3,0.9-11.9-2c-0.9-0.7-1.9-1.5-0.5-2.6c4.4-1.7,8.4-0.1,12.4,1.6c0,0,0,0,0,0
		C69,92.2,69.1,93.2,68.4,94.2z"/>
	<path class="st292" d="M55.5,32.7c0.3-1.3,0.7-2.6,1-4c2.6,0,5.3,0,7.9,0c0,1.3,0,2.6,0,4C61.5,34.8,58.5,34.8,55.5,32.7z"/>
	<path class="st293" d="M55.5,32.7c3,0,5.9,0,8.9,0c1.3,0,2.6,0,4,0c3.8,2.3,1.3,6.7,3.2,9.8c0.5,0.8-13.5,4.4-13.9,3
		c-1-3.5-4.7-5.8-4.2-9.8c0.1-1,0-2,0-2.9C54.2,32.7,54.9,32.7,55.5,32.7z"/>
	<path class="st294" d="M56.5,50.5c0-0.3,0-0.6,0-1c3-1.8,6,2.7,9,0.1c1,0.7,1.8,1.5,0.4,2.6c-3.1,0.9-6.1,1.1-9.1-0.2
		C56.3,51.6,56.2,51.1,56.5,50.5z"/>
	<path class="st228" d="M66.3,51.8c-0.3-0.7-0.5-1.4-0.8-2.1c2,0.2,4.2-0.9,5.9,0.9c-1.3,0.6-2.6,1.2-3.9,1.8
		c-0.2,0.4-0.6,0.5-1,0.4c-0.1-0.2-0.2-0.3-0.4-0.5C66.2,52.1,66.3,51.9,66.3,51.8z"/>
	<path class="st295" d="M35.7,52.6c0.3-1,0.7-2,1-3c2.2-0.9,4.2-0.8,5.9,1c0,0.3,0,0.7,0,1C40.7,54.2,38.2,53.2,35.7,52.6z"/>
	<path class="st295" d="M36.7,49.6c-2.7-1.7-2.6-3.3,0-5C36.4,46.3,37.8,47.9,36.7,49.6z"/>
	<path class="st295" d="M40.7,44.8c-0.2,0.3-0.4,1-0.6,1c-0.8,0.1-1.2-0.6-1.1-1.3c0-0.4,0.4-1,0.7-1.1
		C40.8,43.2,40.5,44.2,40.7,44.8z"/>
	<path class="st296" d="M35.7,52.6c2.4,0.3,4.7-0.4,6.9-1c2.7,0.4,5.3-2.4,8-0.1c-0.1,0.2-0.3,0.4-0.4,0.7c-2.2,2.1-5.3,1.3-7.9,2.3
		c-1.3,0.3-2.6,0.1-3.6-0.9C37.7,53.1,36.2,54.5,35.7,52.6z"/>
	<path class="st297" d="M50.6,51.5c1,0,2,0,2.9,0c1.4-0.4,1.5,0.6,1.7,1.6c0,0.5-0.1,0.9-0.4,1.3c-1.8,0.7-3.4,0.9-4.7-0.8
		c-0.2-0.7-0.2-1.3,0.4-1.8L50.6,51.5z"/>
	<path class="st298" d="M54.6,53.7c-0.1-0.9-0.2-1.7-1.1-2.2c0.7-1.1,1.9-0.9,2.9-1c0,0.3,0,0.6,0,0.9c0.2,0.2,0.3,0.5,0.3,0.7
		c0,0.3,0,0.4-0.1,0.4C56.3,53.4,55.7,54,54.6,53.7z"/>
	<path class="st299" d="M30.7,59.5c-2.3-4-0.3-8,0.1-11.9c1.8,0.2,2.7,0.9,2.1,2.9c-0.9,2.6,0.4,4,2.8,4.8c-0.1,0.2-0.1,0.4-0.2,0.6
		c-0.7,0.8-1.7,1.2-2.6,1.7C32,58.1,31.6,59.1,30.7,59.5z"/>
	<path class="st300" d="M35.7,55.3c1.1,0.4,1.9-0.4,2.9-0.8c1.5-0.6,3-0.9,3.7,1.2c0,0.8-0.3,1.4-0.9,2c-1.3,1-2.9,1.4-4.3,2.2
		c-0.7,0.3-1.3,0.3-2,0.1c-0.4-0.2-0.7-0.6-0.9-1c-0.5-1.6,0.3-2.7,1.6-3.4L35.7,55.3z"/>
	<path class="st301" d="M41.7,56.5c-0.1-2.1-1.7-1.9-3.1-2.1c0.1-0.3,0.1-0.6,0.2-0.9c1.3,0,2.6,0,3.9,0c0.4-0.3,0.9-0.4,1.3-0.2
		c1.6,0.6,3.5-0.3,4.8,1.3c-1,3.1-3.8,1.8-5.7,2.4C42.5,57,42.1,56.9,41.7,56.5z"/>
	<path class="st264" d="M24.8,64.5c-1.1,2.1-1.5,4.7-4,5.9C21.1,67.7,19.5,63.8,24.8,64.5z"/>
	<path class="st302" d="M30.7,59.5c0.2-1.3-0.2-3,2-2.9c0.6,0.6,0.9,1.4,1,2.3c0.2,1.9,0.8,4-1,5.6c-0.6,0-1.3,0-1.9,0
		C30.8,62.8,30.7,61.2,30.7,59.5z"/>
	<path class="st303" d="M72.4,84.3c-1.3-2.7-3.8-1.8-5.9-2c-0.8-1.5-0.1-2.7,0.6-4c0.3-0.3,0.7-0.6,1.2-0.7c0.7-0.1,1.3-0.1,2,0.1
		c1.3,0.5,2.4,1.5,3.9,1.3c1-0.1,1.7-1,2.8-1.2c0.9,0.1,1.8,0.2,1.5,1.5c-0.3,1.3-0.7,2.6-1,4c-0.7,0.3-1.3,0.7-2,1
		C74.4,85,73.4,85.2,72.4,84.3z"/>
	<path class="st304" d="M78.3,79.3c-0.4-0.8-1.2-1-2-1c-0.6-0.4-0.8-1-0.9-1.7c0-0.7,0.1-1.3,0.4-1.9c0.2-0.1,0.3-0.3,0.5-0.4
		c1.4,0.2,2.9-0.5,4,1C80.1,76.9,81,79,78.3,79.3z"/>
	<path class="st305" d="M79.2,66.5c0,1,0.1,1.9,0.1,2.9c-1.5,2.7-3.4,4.5-6.8,3.4c-0.6-0.5-0.9-1.2-1-2c-0.1-0.7,0.1-1.4,0.4-2.1
		c0.3-0.4,0.7-0.6,1.1-0.7c3.7,0.2,0.9-1.9,1.1-3c0.5-1.4,1.7-1.4,2.9-1.2C78.2,64.3,79,65.1,79.2,66.5z"/>
	<path class="st306" d="M72.4,72.4c2.8,0.1,4.9-1.4,6.9-3.1c2,3.4-2.8,2.9-2.9,5c0,0,0,0,0,0c-0.9,0.9-2,1.1-3.2,0.7
		c-0.4-0.2-0.8-0.4-1.1-0.8C71.8,73.6,71.9,73,72.4,72.4z"/>
	<path class="st307" d="M79.2,66.5c-0.6-0.7-1.3-1.4-1.9-2c0.7-1,1.7-1.5,2.9-1.1c0.4,0.4,0.7,0.8,1.1,1.1c0,0.7,0,1.3-0.1,2
		C80.6,66.5,79.9,66.5,79.2,66.5z"/>
	<path class="st308" d="M80.3,58.6c0,1.3,0,2.7-0.1,4c-0.7,0.4-1.4,0.5-2.2,0.2c-1.3-1.2-3-2.3-1.7-4.5c1-0.3,2-0.5,2.9,0.2
		C79.7,58.5,80,58.5,80.3,58.6z"/>
	<path class="st309" d="M79.3,58.5c-1,0-1.9,0-2.9,0.1c-1,0.7-2,0.9-3,0.2c-0.6-0.7-0.6-1.5-0.1-2.2c1.7,0.3,3.4,0.6,5.1,0.9
		C78.7,57.8,79,58.2,79.3,58.5z"/>
	<path class="st310" d="M78.4,62.4c0.6,0.1,1.3,0.1,1.9,0.2c0,0.2,0,0.5,0,0.7c-1,0.4-2,0.7-2.9,1.1c-1,0.1-2.2-0.2-2.8,1
		c0.4,1.3,0.5,2.3-1.4,1.8c-1.1-1.7-1-3.4,0.2-5.1C75,61,76.7,61.3,78.4,62.4z"/>
	<path class="st311" d="M72.4,55.7c0,0.3,0.1,0.6,0.1,0.8c-0.1,0.2-0.3,0.3-0.4,0.5c-0.6,0.3-1.2,0.5-1.9,0.6
		c-0.7,0.1-1.4,0.1-2.1,0.1c-1,0-1.9-0.2-2.8-0.6c-0.6-0.4-1.1-1-1.4-1.7c-0.3-1-0.3-2,0.5-2.9c0.7-0.3,1.5-0.4,2.1,0.2l0.2-0.1
		c0.8,1.4,2.6,1.2,3.6,2.2C70.9,55,71.6,55.3,72.4,55.7z"/>
	<path class="st312" d="M70.2,54.7c-1.8,0.2-3.1-0.4-3.6-2.2c0.3,0,0.6,0,0.9-0.1C68.4,53.2,69.3,53.9,70.2,54.7z"/>
	<path class="st313" d="M73.5,62.5c0,1.6,0,3.2,0,4.9c0.2,0.4,0.1,0.7-0.2,1c-0.3,0.1-0.5,0.2-0.8,0.3c-0.5-0.3-0.8-0.8-1-1.3
		c-0.2-0.5-0.3-1.1-0.4-1.7c0.2-3-0.8-6.2,1-9c0,0,0.4-0.1,0.4-0.1c0.3,0.1,0.5,0.1,0.8,0.1c0.1,0.6,0.2,1.3,0.3,1.9
		C74.5,59.9,74.5,61.2,73.5,62.5z"/>
	<path class="st314" d="M32.7,64.5c0-2,0-4,0-5.9c1.1-0.6,1.4,0.4,2,1l0,0c2,4.4,2.3,8.8-0.2,13.1c-0.6,0.2-1.2,0.2-1.7-0.2
		c-0.7-0.7-1.3-1.3-2-2C31.4,68.4,32.1,66.4,32.7,64.5z"/>
	<path class="st315" d="M33.7,72.4c2.2-4.2,0.4-8.6,1-12.9c0.7,0,1.3,0,2,0c1.7,4.8,3,9.5-1.1,13.9c-1.8,1.7-0.6,4-1,5.9
		c-0.8-0.4-1-1.2-1-2C33,75.7,33,74,33.7,72.4z"/>
	<path class="st316" d="M30.7,86.3l-0.5,0c0,0-0.5,0-0.5,0c0-2.9,0-5.9,0-8.9C33.5,80.1,30.6,83.3,30.7,86.3z"/>
	<path class="st317" d="M33.7,88.3c0,1.1,0.2,2.3-1,3c0-1.1,0.2-2.3-1-3c0.2-0.9-0.5-2.6,1.2-2.4C34,86,33.6,87.4,33.7,88.3z"/>
	<path class="st318" d="M33.7,72.4c0,1.6,0,3.3,0,4.9c-1.6-1.4-0.7-3.3-1-4.9C33.1,72.4,33.4,72.4,33.7,72.4z"/>
	<path class="st319" d="M35.7,73.4c2.1-4.5,0.6-9.3,1.1-13.9c0.8-1.7,2.3-2,3.9-2c0.9,0.6,1.3,1.6,1.9,2.4c0.3,0.4,0.4,0.8,0.4,1.2
		c-0.4,1.1-1.4,1.7-2.2,2.3c-3.5,3.1-0.9,7.1-1.4,10.6c-0.4,1.2-0.8,2.3-2.4,2.3C36.5,75.3,36.1,74.4,35.7,73.4z"/>
	<path class="st320" d="M36.9,76.3c0.6-0.6,1.1-1.3,1.7-1.9c0.6-0.6,1.2-0.6,1.9-0.4c0.4,0.3,0.7,0.6,1,1c1.3,2,2.6,4,0.4,6.3
		c-1.6,0.8-2.6-0.3-3.7-1.1c-0.7-0.5-1.3-1.2-1.6-2.1C36.8,77.5,36.9,76.9,36.9,76.3z"/>
	<path class="st321" d="M46.6,90.3c-1-0.6-2-1.3-3-1.9c-1.8-0.2-2.2-1.9-3-3.1c-0.5-0.7-0.5-1.4,0-2.1c3.1,0.9,6.7,1.4,6,6.1
		C46.6,89.6,46.6,89.9,46.6,90.3z"/>
	<path class="st287" d="M40.6,83.3c0,0.7,0,1.3,0,2c-3.5-1.2-3-4.5-3.8-7.2c0.6,0.4,1.2,0.8,1.8,1.2C39.4,80.6,40.4,81.8,40.6,83.3z
		"/>
	<path class="st322" d="M40.6,83.3c-1.7-0.8-2-2.3-2-3.9c1,0.6,2.1,1.3,3.1,1.9c0.3-0.3,0.7-0.5,1.2-0.5c1,0.1,1.7,0.7,2.3,1.4
		c0.9,1.3,1.8,2.5,2.9,3.6c0.5,0.8,1,1.5,0.5,2.5c-0.7,0.3-1.3,0.7-2,1C46,85.8,42.6,85.3,40.6,83.3z"/>
	<path class="st323" d="M48.6,88.3c-0.3-0.7-0.7-1.3-1-2c0.1-0.5,0.4-0.8,0.7-1.2c0.2-0.1,0.5-0.1,0.7-0.2c2.4,1.2,4.9,2.2,7.5,3
		c0.7,1.2-0.2,1.7-1,2.2c0.3,0.7,0.7,1.3,1,2C53.5,91.7,50.8,90.5,48.6,88.3z"/>
	<path class="st324" d="M67.4,78.4c0.2,1.4-0.3,2.7-1,3.9c-0.8,0-1.6,0.2-2,0.9c-2.6,2.2-5.6,1.2-8.4,1.1c-0.5-0.1-1-0.3-1.4-0.6
		c-0.3-0.4-0.4-0.8-0.4-1.3c0.1-1.2,2.9,0,1.9-2.2c0.3-1,0.8-1.9,2-2.2c0.8,0.1,1.5,0.8,2.3,0.9c1.1,0.2,2.1,0.2,3.2,0.1
		c1,0,1.8-0.5,2.7-0.9C66.7,78.1,67.1,78.2,67.4,78.4z"/>
	<path class="st325" d="M54.6,83.3c3.3,0,6.6-0.1,9.9-0.1c1.4,0.4,3.1-0.8,4.2,0.9c0.1,0.1-0.8,0.8-1.2,1.2c-0.9,0.7-1.9,1.1-3,1.2
		c-3,0.1-6,0.1-9,0.2C53.7,85.9,53.5,84.8,54.6,83.3z"/>
	<path class="st326" d="M55.5,90.2c0.3-0.7,0.7-1.3,1-2c-0.4-0.5-0.3-0.9,0.1-1.3c0.7-0.4,1.4-0.5,2.2-0.4c1.9,0.6,4.1,0,5.6,1.7
		c1,1.4,3.5,0.9,4,3C64.1,90.8,59.9,89.8,55.5,90.2z"/>
	<path class="st327" d="M58.5,87.3c-0.7,0-1.3,0-2,0c-0.4-0.5-0.3-1,0.2-1.3c2.5-0.5,5.2,0.5,7.7-0.6c1,0,2,0,3,0c0,0.8-0.2,1.5-1,2
		C63.8,88.1,61.2,88,58.5,87.3z"/>
	<path class="st328" d="M72.4,84.3c1,0,2,0,3,0c-0.4,1.1-1.4,1.7-2.4,2.2C72.1,86.8,71.3,87,71,86C70.8,85,71.7,84.6,72.4,84.3z"/>
	<path class="st329" d="M58.5,87.3c2.6,0,5.3,0,7.9,0c-0.4,0.8-1.2,1-2,1C62.5,87.9,60.3,89.1,58.5,87.3z"/>
	<path class="st330" d="M66.4,52.6c-0.7,0-1.3,0-2,0c-2.1,1.7-4.5,1.4-6.9,0.8c-0.5-0.2-0.9-0.6-1.2-1c0-0.3,0.1-0.6,0.1-0.9
		c3.3,0.1,6.6,0.2,9.8,0.3C66.4,52,66.4,52.3,66.4,52.6z"/>
	<path class="st331" d="M43.7,53.6c-0.4,0-0.7,0-1.1-0.1c2.4-1.6,5.4-0.9,8-1.8c0,0.7,0.1,1.4,0.1,2.1c0.8,1.6-0.1,2.5-1.3,3.3
		c-0.5,0.3-1,0.4-1.5,0.5c-1.9,0.2-3.8,0.5-5.3-1.1c1.5-2.1,4.4,0.1,5.9-2C47.1,53.4,45.2,54.7,43.7,53.6z"/>
	<path class="st311" d="M54.6,53.7c0.6-0.4,1.2-0.9,1.8-1.3c0,0,0.3,0.4,0.3,0.4c0.8,1,1.2,2.2,2,3.2c0.2,0.4,0.4,0.8,0.5,1.2
		c0,0.4,0,0.9-0.2,1.3c-0.2,0.4-0.5,0.7-0.9,0.9c-0.5,0.4-1.1,0.6-1.8,0.8c-0.7,0.1-1.3,0.1-1.9-0.2c-0.6-0.3-1.1-0.8-1.5-1.3
		c-0.7-0.9-1.1-1.9-0.6-3.1c0.5-0.8,1.7-0.3,2.2-1.2C54.5,54.1,54.6,53.9,54.6,53.7z"/>
	<path class="st332" d="M54.4,54.3c-0.2,1-1,1.1-1.8,1.3c-0.6,0.7-1,1.5-2.1,1.5c-0.5-0.1-0.9-0.3-1.2-0.6c0.8-0.7,1.4-1.6,1.4-2.7
		C51.9,54,53.2,54.1,54.4,54.3z"/>
	<path class="st315" d="M34.7,59.5c-0.7-0.3-1.3-0.7-2-1c0-0.6,0-1.3,0-1.9c1-0.3,2-0.7,3-1C35,56.8,34.6,58.1,34.7,59.5z"/>
	<path class="st333" d="M42.6,56.5c2,0,4,0,6,0c0.2,0.3,0.3,0.5,0.3,0.8c0,0.3-0.1,0.4-0.2,0.4c-1.9,1.9-4.9,1.3-7,2.7
		c-1.2-0.7-1-1.9-1.1-3c0.3-0.3,0.7-0.6,1-1C42,56.5,42.3,56.5,42.6,56.5z"/>
	<path class="st334" d="M43.7,53.6c1.7,0.2,3.5-0.7,4.9,0.9C46.9,54.3,45.1,55.2,43.7,53.6z"/>
	<path class="st335" d="M58.4,78.3c-0.6,0.7-1.3,1.3-1.9,2c-0.6,0.6-1.2,0.5-1.9,0.1c0.2-4-1-6.3-5.7-5.1c-1.6,0.4-3.2-0.6-3.8-2.4
		c-0.1-0.5,0-0.9,0.2-1.4c0.3-0.4,0.7-0.6,1.2-0.6c2.1,0.6,4.1,0.6,6.2,0.2c3.3,0,6.7-0.4,10,0.3c1.5,0.4,2.7,1.5,4.3,1.8
		c0.8,0.3,1.5,0.7,1.9,1.3c0.7,1.4,0.5,2.6-0.5,3.8c-0.3,0-0.7,0-1,0c-0.3,0-0.6,0-1,0c-0.2-0.1-0.4-0.1-0.5-0.2
		c-0.9-0.2-1.3,0.6-2.1,0.9c-1.1,0.3-2.1,0.3-3.2-0.2C60,78.5,59.4,77.9,58.4,78.3z"/>
	<path class="st304" d="M74.4,80.3c-1.7,0.1-3.2-0.2-4-2c-1-2,0.3-2.5,1.9-2.9c0.9,0,1.7,0.1,2.4,0.8C75.5,77.7,75.4,79.1,74.4,80.3
		z"/>
	<path class="st336" d="M72.4,76.4c-1.3,0-1.9,0.7-2,2c-0.7,0-1.3,0-2,0c0-1.3,0-2.6,0-4c1.3-1.2,2.6-1,4,0l0,0
		C73,75,73,75.7,72.4,76.4z"/>
	<path class="st337" d="M74.4,80.3c0-1.3,0-2.6,0-4c0.7-0.5,1.3-0.6,2,0c0,0.7,0,1.3,0,2C76.3,79.6,75.7,80.3,74.4,80.3z"/>
	<path class="st338" d="M76.4,76.4c-0.7,0-1.3,0-2,0c-0.7,0-1.3,0-2,0c0-0.7,0-1.3,0-2c1.3,0,2.6,0,4,0C76.4,75,76.4,75.7,76.4,76.4
		z"/>
	<path class="st339" d="M72.4,74.4c-1.3,0-2.6,0-4,0c-0.7,0-1.3,0-2,0c-0.6-0.6-0.6-1.2-0.3-1.9c1.3-1.5,3.4-1.1,4.9-2.2
		c0.4-0.2,0.9-0.1,1.2,0.2c0.1,0.6,0.1,1.3,0.2,1.9C72.4,73.1,72.4,73.7,72.4,74.4z"/>
	<path class="st340" d="M73.3,68.3c0.1-0.3,0.2-0.6,0.2-1c0.3-0.6,0.6-1.3,0.9-1.9c1.6,0.7,3.1,1.2,1.3,3.4
		C74.2,70.6,73.7,70.2,73.3,68.3z"/>
	<path class="st341" d="M72.2,70.5l-0.4,0l-0.3,0.1c-0.4,0.3-0.9,0.4-1.3,0.3c-0.8-0.3-1.1-0.8-1.2-1.6c0.6-1.6,1.6-2.4,3.4-1.9
		c0.1,0.4,0.1,0.8,0.2,1.2C72.4,69.2,72.3,69.9,72.2,70.5z"/>
	<path class="st342" d="M73.5,62.5c0-1.3,0-2.7,0.1-4c1,0,1.9,0,2.9,0.1c-0.3,1.8,2.1,2.2,1.9,3.9C76.7,62.5,75.1,62.5,73.5,62.5z"
		/>
	<path class="st343" d="M72.3,67.4c-1,0.7-1.9,1.3-2.9,2c-2.3,1.4-3.4,0.3-3.9-2c0-0.5,0.1-1,0.2-1.4c2.1-1.9,1.2-4.5,1.5-6.9
		c0.1-1,0.5-1.8,1.2-2.6c0.7,0,1.3,0,2,0c0.9,1.5,1.6,2.9,1.2,4.9c-0.4,1.6-0.6,3.5,0.8,5C72.3,66.8,72.3,67.1,72.3,67.4z"/>
	<path class="st56" d="M58.5,56.5c-2.6-0.3-1.9-2.2-1.8-3.8c2.6,0,5.2-0.1,7.8-0.2c0,1,0,2,0,3C62.7,57.2,60.6,56.9,58.5,56.5z"/>
	<path class="st344" d="M72.3,66.5c-0.5-0.3-1.5-0.6-1.5-0.9c-0.2-3-0.3-6-0.4-9c0.6,0,1.2,0,1.7,0.1C72.2,59.9,72.2,63.2,72.3,66.5
		z"/>
	<path class="st330" d="M58.5,56.5c1.7-1.8,4-0.7,5.9-1c0.3,0.3,0.7,0.7,1,1c-0.2,0.7-0.6,1.1-1.3,1.4c-1.9,0.2-3.8,0.1-5.7-0.4
		C58.5,57.2,58.5,56.9,58.5,56.5z"/>
	<path class="st344" d="M64.5,57.5c0.3-0.3,0.7-0.6,1-0.9c1,0,2,0,3,0c0,1,0,2,0,3c-0.3,0.3-0.7,0.4-1.1,0.3c-1-0.4-1.8-1.1-2.5-1.8
		C64.7,57.8,64.6,57.7,64.5,57.5z"/>
	<path class="st345" d="M40.6,74.4c-0.7,0-1.3,0-2,0c-0.8-2.7-1.1-5.4-1-8.2c0.1-2.1,0.7-3.5,3-3.7c0.6-0.6,1.4-0.5,2.1-0.3
		c0.8,0.7,1.4,1.4,0.6,2.5c-1.8,1-5.8-0.2-4.3,4c0-2.1-0.3-4.8,3.4-2.6c2.1,2.3,0,4.1-0.7,6C41.6,72.9,41.4,73.8,40.6,74.4z"/>
	<path class="st346" d="M41.7,60.5c1.4-3.1,4.5-2.2,6.8-2.9c0.6,0.6,0.6,1.3,0.3,2.1c-1.2,1.1-2.7,1.2-4.1,1.6
		c-0.8,0.1-1.5-0.1-2-0.6C42.3,60.5,42,60.5,41.7,60.5z"/>
	<path class="st347" d="M42.7,60.5c0.7,0,1.3,0,2,0c1.3-0.5,2.7-1.1,3.2,1c-1.3,2.3-3.1,2.2-5.1,1c-0.7,0-1.4,0-2.1,0
		C41.3,61.8,42,61.2,42.7,60.5z"/>
	<path class="st348" d="M42.7,81.3c-0.3,0-0.6,0-0.9,0c1.2-2.2-0.1-4-1-5.9c1-0.9,1.9-2,3.4-2.3c2,2.2,7,2.6,4.4,7.4
		C46.9,83.5,44.6,80.9,42.7,81.3z"/>
	<path class="st349" d="M43.6,73.4c-0.1,2-1.5,2-3,2c0-0.3,0-0.7,0-1c0-1,0-2,0-3c0.9-0.6,1.5,0,2.2,0.4
		C43.3,72.2,43.6,72.8,43.6,73.4z"/>
	<path class="st350" d="M42.7,81.3c1.4-1.9,3.7,1.5,5-0.9c0.4-0.3,0.8-0.4,1.2-0.1c0.5,0.6,0.7,1.2,0.8,1.9c0.1,0.7,0,1.4-0.2,2.1
		c-0.2,0.4-0.5,0.8-0.8,1.1l0,0c-2.4,0.5-2.6-2.1-4-3C44,82,43.3,81.6,42.7,81.3z"/>
	<path class="st351" d="M44.6,82.3c2.1-0.1,2.2,2.5,4,3c-0.3,0.3-0.7,0.7-1,1C46,85.4,44.7,84.3,44.6,82.3z"/>
	<path class="st351" d="M48.6,85.3c0-0.3,0-0.7,0-1c1.8-1.3,3.7-2.3,5.9-1c0,0,0.1,0.1,0.1,0.1c0,1.1-0.3,2.2,0.9,2.9
		c0.4-0.3,0.7-0.3,1,0.1c0,0.3,0,0.6,0,1c0,0.3,0,0.7,0,1C53.3,88.8,50.6,87.9,48.6,85.3z"/>
	<path class="st352" d="M54.5,83.3c-2,0.4-3.8,1.4-5.9,1c0-0.7,0-1.3,0-2c1.1-1,2.4-1.3,3.8-1.1c0.8,0.1,1.6,0.4,2.1,1.1
		C54.5,82.6,54.5,83,54.5,83.3z"/>
	<path class="st353" d="M58.4,78.3c0.3-0.9-0.4-2.6,1.3-2.4c1,0.1,0.7,1.5,0.8,2.4c0.3,0.2,0.4,0.6,0.3,1c-0.3,0.5-0.9,0.6-1.3,1
		C58.7,79.9,58.5,79.2,58.4,78.3z"/>
	<path class="st354" d="M60.5,79.3c0-0.3,0-0.7,0-1c1.3,0,2.6,0,3.9,0c0.7-0.6,1.3-0.6,2,0c0,0,0,0,0,0c-0.1,1.3-0.7,2-2,2
		C63.3,79.2,61.6,80.4,60.5,79.3z"/>
	<path class="st339" d="M54.6,82.3c-0.7,0-1.3,0-2,0c-0.4-1.2,0.5-1.6,1.3-1.9c0.2,0,0.5,0,0.7,0c0.7,0,1.3,0,2,0
		c0.4,0.5,1.1,1.3,1,1.5C56.8,82.9,55.6,82,54.6,82.3z"/>
	<path class="st355" d="M60.5,79.3c1.4,0.2,2.9-0.5,4,1c-1.6,0-3.3,0-4.9,0C59.9,80,60.2,79.6,60.5,79.3z"/>
	<path class="st356" d="M56.5,86.3c-0.3,0-0.7,0-1-0.1c2.8-1.8,6-0.5,8.9-0.9C62,87.3,59.2,85.8,56.5,86.3z"/>
	<path class="st357" d="M48.5,59.5c0-0.7,0-1.3,0-2c0-0.4,0-0.7,0.1-1.1c0.2,0,0.5,0,0.7,0c0.2,0,0.5,0.1,0.7,0.1
		c1.3,2.4,1.1,4.8,0.3,7.3c-0.3,0.5-0.7,0.8-1.3,0.7c-1.1-0.7-1.2-1.7-1-2.8C48.1,61,48,60.2,48.5,59.5z"/>
	<path class="st358" d="M53.5,58.5c0.4,0.4,0.7,0.8,1.1,1.2c0.8,1.9,0.8,3.9,0.7,5.9c-0.2,0.5-0.4,0.9-0.7,1.2
		c-0.7,0.3-1.4,0.4-2.1,0.1c-1-0.7-2-1.5-2.3-2.8c-0.1-1.3,0.3-2.5,0.2-3.8C50,57.5,51.6,57.5,53.5,58.5z"/>
	<path class="st359" d="M53.5,58.5c-5,0-1,4.4-3,5.9c1,2,2.1,4-1,5.1c-1.4-1.6-1.5-3.3-0.2-5c0.2-2.6,0.4-5.3,0.6-7.9
		c0.9-0.3,1.7-0.7,2.6-1C52.9,56.6,53.2,57.5,53.5,58.5z"/>
	<path class="st360" d="M58.5,57.6c1.9-1.9,4-0.3,5.9-0.1c0,0,0,0.2,0,0.2c1.1,0.6,1.9,1.3,1.3,2.8c-1.3,1-2.6,0.2-3.9,0.1
		c-0.4-0.1-0.9-0.2-1.3-0.4c-0.8-0.4-1.6-0.8-2-1.6C58.5,58.2,58.5,57.9,58.5,57.6z"/>
	<path class="st361" d="M54.7,65.4c-0.2-1.9-0.8-3.8,0-5.7c0.6,0,1.2-0.1,1.9-0.1c1.4,1.3,1.2,2.9,0.7,4.5
		C56.7,65.1,55.9,65.8,54.7,65.4z"/>
	<path class="st362" d="M56.5,64.5c0-1.6,0-3.3,0-4.9c0.4-0.3,0.7-0.7,1.1-1c0.6,0.7,1.3,1.3,1.6,2.3c0.4,1.5,0,2.8-0.9,4
		C57.6,65.3,56.7,66.5,56.5,64.5z"/>
	<path class="st363" d="M58.5,60.5c-0.8-0.4-0.9-1.1-0.9-1.9c0.3,0,0.6,0,0.9-0.1c0.6,0.3,1.3,0.6,1.9,0.8c-0.1,0.2-0.1,0.3-0.2,0.5
		c-0.4,0.3-0.8,0.6-1.3,0.7C58.8,60.5,58.6,60.5,58.5,60.5z"/>
	<path class="st339" d="M48.6,80.3c-0.3,0-0.7,0-1,0c2.3-4.4-3.1-4.4-4-6.9c-0.3-0.3-0.7-0.7-1-1c1-0.9,2-0.8,3,0
		c0.9,2,2.7,2.3,4.6,1.8c2.1-0.5,4-1.3,5.7,0.9c1.9,2.4-1.5,3.3-1.3,5.1c0,0,0,0,0,0C52.6,81.1,50.6,81.8,48.6,80.3z"/>
	<path class="st348" d="M45.6,72.4c-1,0-2,0-3,0c-0.7-0.3-1.3-0.7-2-1c0.5-1.7,2.9-2.7,2-5c0.2-0.1,0.5-0.1,0.7-0.2
		c0.7,0.1,1.3,0.5,1.8,1.1c0.6,1.3,1.3,2.6,0.5,4C45.6,71.7,45.6,72.1,45.6,72.4z"/>
	<path class="st364" d="M63.5,72.4c-4,0-8,0-12-0.1c0-0.6,0.2-1.1,0.7-1.5c3.9-1.3,7.7-1.1,11.6-0.2c0.5,0.3,0.9,0.7,1,1.3
		C64.5,72.6,64.1,72.8,63.5,72.4z"/>
	<path class="st365" d="M45.6,71.4c-0.7-1.2-1.1-2.5-0.9-3.9c0.3-0.3,0.7-0.5,1.2-0.6c1.2,0.1,2.3,0.5,3,1.6c0.2,0.7,0.3,1.4,0,2.1
		c-0.7,0.7-1.4,1.4-2.5,0.9C46.2,71.5,45.9,71.4,45.6,71.4z"/>
	<path class="st366" d="M46.5,71.5c0.8-0.4,1.5-0.8,2.3-1.1c0.3-0.3,0.7-0.5,1.1-0.4c0.7,0.1,1.2,0.4,1.5,1c0,0.2,0.1,0.4,0.1,0.6
		c0,0.3,0,0.5,0,0.8C49.7,72.9,47.9,73.3,46.5,71.5z"/>
	<path class="st367" d="M66.4,78.3c-0.7,0-1.3,0-2,0c0.3-0.7-0.5-2.1,0.8-2.1C66.3,76.2,66.4,77.4,66.4,78.3z"/>
	<path class="st303" d="M63.5,72.4c0.3,0,0.7,0,1-0.1c0.7-0.6,1.3-0.5,2,0.1c0,0.6,0,1.3,0,1.9C65,74.4,64,73.7,63.5,72.4z"/>
	<path class="st368" d="M66.4,72.4c-0.7,0-1.3,0-2-0.1c0-0.3,0-0.6,0-0.9c1.8-2,4.1-0.4,6.1-1c0.3,0,0.7,0,1,0.1
		C70.7,73.5,68.2,72,66.4,72.4z"/>
	<path class="st369" d="M70.5,70.5c-1.8,1.6-4.1,0.4-6.1,1c-4.3,0-8.7,0.1-13,0.1c0,0,0.2-0.3,0.2-0.3c-0.2-0.8,0.3-1.2,0.9-1.6
		c1.7-0.5,3.4-1,5-1.7c1.5-0.2,3,0.4,4.4,0c1.6-0.2,2.6-2.5,4.6-1.6c-0.3,2.2,0.7,3.2,2.9,2.9C69.8,69.8,70.1,70.1,70.5,70.5z"/>
	<path class="st370" d="M66.5,66.5c-1.4,1-2.7,1.9-4.1,2.9c-1.3-1.1-4.1-0.2-4-3.1c0.5-0.5,1.2-0.8,1.9-0.9c1.7-0.1,3.3-0.9,5-0.6
		c0.5,0.1,0.9,0.4,1.2,0.8C66.5,65.8,66.5,66.1,66.5,66.5z"/>
	<path class="st371" d="M66.5,65.5c-0.4,0-0.7,0-1.1,0c-0.5-0.5-0.6-1.1-0.5-1.8c0.2-0.4,0.4-0.8,0.6-1.1c0.9-0.9,0.8-2.4,1.9-3.1
		c0.3,0,0.6,0,0.9,0C67.5,61.4,70.5,64.6,66.5,65.5z"/>
	<path class="st372" d="M67.5,59.5c-0.3,1.3,0.7,3-1.2,3.8c-0.7-0.8-1.4-1.6-0.9-2.7c-0.3-1-0.6-2-0.9-2.9
		C65.9,57.5,66.8,58.3,67.5,59.5z"/>
	<path class="st373" d="M42.6,66.4c-4.3-1.6-2.3,2.5-3.5,4.3c-1.1-4.4-0.4-6.9,4.5-6.3c0.1,0.2,0.1,0.4,0.2,0.6
		C43.7,65.7,43.2,66.2,42.6,66.4L42.6,66.4z"/>
	<path class="st374" d="M48.5,61.5c0.1,1,0.1,2,0.2,3c-0.2,0.1-0.4,0.1-0.6,0.2c-0.8-0.3-1.5-0.1-2.1,0.4c-0.9,0.2-1.7,0.1-2.3-0.6
		c0,0,0,0,0,0c-0.3-0.6-0.6-1.3-0.9-1.9c1.7,0.1,3.4-0.1,4.9-1C47.9,61,48.2,61,48.5,61.5z"/>
	<path class="st375" d="M48.5,61.5c-0.3,0-0.6,0-0.9,0c-0.7-1.2-1.9-0.9-3-1c1-1.4,2.5-0.8,3.9-1C48.5,60.2,48.5,60.9,48.5,61.5z"/>
	<path class="st376" d="M48.6,80.3c2,0,4,0,5.9,0c-0.7,0.7-1.3,1.3-2,2c-1.3,0-2.6,0-4,0C48.6,81.7,48.6,81,48.6,80.3z"/>
	<path class="st377" d="M49.7,70.3c-0.3,0-0.7,0.1-1,0.1c-0.1-0.7-0.1-1.3-0.2-2c-0.9-1.3-1-2.6,0.1-3.9c0,0,0,0,0,0
		c0.2,0,0.5,0,0.7,0c0.1,1.6,0.3,3.2,0.4,4.9C50.1,69.7,50,70,49.7,70.3z"/>
	<path class="st378" d="M57.5,68.4c-1,2.3-3,1.9-4.8,1.8c-1.2-1.3-1.3-2.5-0.1-3.8c0.7,0,1.4,0,2,0c0.5-0.5,1.2-0.6,1.9-0.3
		C57.3,66.6,57.5,67.5,57.5,68.4z"/>
	<path class="st379" d="M52.6,66.4c0,1.3,0.1,2.6,0.1,3.8c-0.3,0.3-0.7,0.7-1,1c-0.6-0.3-1.3-0.7-1.9-1c0-0.3,0-0.6,0.1-0.9
		c1.3-1.5,0.6-3.3,0.8-4.9C51.9,64.5,52.5,65.2,52.6,66.4z"/>
	<path class="st380" d="M56.4,66.5c-0.6,0-1.2,0-1.8-0.1c0-0.3,0-0.7,0-1c0.6-0.3,1.3-0.6,1.9-0.9c0.4,0.7,0.7,0.6,1,0
		c0.3-0.3,0.7-0.4,1.2-0.3c1,0.5,2.1,0.8,1.8,2.3c-0.7,0-1.4,0-2,0.1C57.8,67.1,57.1,67,56.4,66.5z"/>
	<path class="st381" d="M58.4,64.5c-0.3,0-0.6,0-0.9-0.1c0.6-1.3,1.2-2.5,0.9-4c0,0,0.3,0.1,0.3,0.1c0.3-0.8,1.3-0.5,1.8-1
		c0,0-0.1-0.2-0.1-0.2c0.3,0.1,0.7,0.1,1,0.2c1.5,0.7,2.1,1.9,1.9,3.5C62.4,65.9,60.4,65.2,58.4,64.5z"/>
	<path class="st382" d="M62.5,62.5c-0.4-1-0.7-1.9-1.1-2.9c1.5-0.3,2.7,0.3,3.9,1c0.3,0.9,0.6,1.8,0.9,2.8c-0.3,0.1-0.6,0.1-0.9,0.2
		C64.1,64.2,63.3,63.3,62.5,62.5z"/>
	<path class="st383" d="M60.5,59.6c-0.6,0.3-1.2,0.7-1.8,1C59,59.6,59.7,59.5,60.5,59.6z"/>
	<path class="st384" d="M43.6,64.5c1,0,2,0,3,0c0.7,1.3-0.1,2.1-1,2.9c-0.3,0-0.6,0.1-0.9,0.1c-0.7-0.3-1.4-0.7-2.1-1
		C43,65.8,43.3,65.1,43.6,64.5z"/>
	<path class="st385" d="M45.6,67.4c0.3-1,0.7-1.9,1-2.9c0.7-1.2,1.3-0.1,2,0c0,1.3-0.1,2.6-0.1,3.9C47.5,68,46.6,67.7,45.6,67.4z"/>
	<path class="st386" d="M56.4,66.5c0.7,0,1.4,0,2.1,0c1.3,1,2.6,1.9,3.9,2.9c-1.7,0.2-3.4-0.1-4.9-0.9C56.7,68,56.6,67.3,56.4,66.5z
		"/>
	<path class="st387" d="M62.5,62.5c1,0.3,1.9,0.7,2.9,1c0,0.6,0,1.3,0,1.9c-1.6,0.3-3.3,0.6-4.9,1c-0.7-0.6-1.4-1.3-2.1-1.9
		C60,64.2,62.2,65.2,62.5,62.5z"/>
</g>
</svg>
