<svg xmlns="http://www.w3.org/2000/svg" width="16" height="16" viewBox="0 0 16 16">
    <g fill="none" fill-rule="evenodd">
        <g fill="#7E7E7E" fill-rule="nonzero">
            <g>
                <g>
                    <g>
                        <path d="M14.273 4.533c-.293-.29-.766-.29-1.06 0L8 9.867 2.787 4.533c-.293-.296-.77-.299-1.067-.006-.296.292-.3.77-.007 1.066l5.754 5.86c.14.145.332.227.533.227s.394-.082.533-.227l5.754-5.86c.14-.142.216-.333.214-.532-.003-.2-.085-.39-.228-.528z" transform="translate(-1336 -451) translate(200 365) translate(964 72) translate(172 14)"/>
                    </g>
                </g>
            </g>
        </g>
    </g>
</svg>
