<svg xmlns="http://www.w3.org/2000/svg" width="32" height="32" viewBox="0 0 32 32">
    <g fill="none" fill-rule="evenodd">
        <g>
            <g>
                <g transform="translate(-459 -856) translate(435 812) translate(24 44)">
                    <circle cx="16" cy="16" r="16" fill="#3ACE01"/>
                    <path fill="#FFF" d="M16.3 8.229c4.71 0 8.529 3.057 8.529 6.829 0 1.318-.466 2.548-1.273 3.59-.04.06-.092.126-.158.198l-.005.006c-.276.33-.586.64-.928.925-2.358 2.18-6.24 4.776-6.753 4.375-.445-.348.734-2.05-.626-2.334-.095-.01-.19-.022-.284-.036H14.8c-3.995-.567-7.029-3.362-7.029-6.724 0-3.772 3.819-6.83 8.53-6.83zm5.266 4.827h-1.72c-.245 0-.445.2-.445.444v3.3c0 .244.2.444.445.444h1.72c.244 0 .445-.2.445-.445v-.037c0-.244-.2-.444-.445-.444h-1.239v-.705h1.239c.244 0 .445-.2.445-.444v-.038c0-.244-.2-.444-.445-.444h-1.239v-.705h1.239c.244 0 .445-.2.445-.444V13.5c0-.244-.2-.444-.445-.444zm-10.177-.008h-.037c-.245 0-.445.2-.445.445v3.299c0 .244.2.444.445.444h1.72c.245 0 .445-.2.445-.444v-.038c0-.244-.2-.444-.445-.444h-1.238v-2.817c0-.245-.2-.445-.445-.445zm4.522 0h-.038c-.244 0-.444.2-.444.445v3.299c0 .244.2.445.444.445h.038c.244 0 .444-.2.444-.445v-1.973l1.62 2.212.015.022.017.022c.045.061.106.103.173.128.053.022.11.033.17.033h.036c.075 0 .146-.018.208-.051.03-.015.056-.031.079-.05l.03-.031c.079-.08.128-.191.128-.312v-3.3c0-.244-.2-.444-.445-.444h-.037c-.244 0-.445.2-.445.445v1.936l-1.607-2.156c-.077-.134-.222-.225-.386-.225zm-1.553 0h-.038c-.244 0-.444.2-.444.445v3.299c0 .244.2.444.444.444h.038c.244 0 .444-.2.444-.444v-3.3c0-.244-.2-.444-.444-.444z"/>
                </g>
            </g>
        </g>
    </g>
</svg>
