<svg xmlns="http://www.w3.org/2000/svg" width="24" height="24" viewBox="0 0 24 24">
    <g fill="none" fill-rule="evenodd">
        <g>
            <g>
                <g>
                    <g>
                        <g>
                            <path d="M0 1H24V25H0z" transform="translate(-29 -1036) translate(0 517) translate(16 507) translate(0 9) translate(13 3)"/>
                            <path fill="#7E7E7E" d="M11.784 5.7l.147.09 1.657 1.112.072-.125c.173-.277.396-.52.66-.718l.164-.112.173-.101c.303-.163.653-.197.98-.096.282.086.521.263.684.503l.076.126 1.963 3.731.147.1-.176-.893c-.25-1.312.524-2.59 1.76-3.003l.163-.048.162-.037c.337-.067.682.003.966.195.244.165.42.404.506.681l.036.142 1.561 8.229.06.29c.129.699.132 1.407.01 2.11-.145.836-.461 1.62-.938 2.33-.894 1.33-2.25 2.236-3.817 2.549-.392.078-.788.117-1.182.117-.38 0-.76-.036-1.131-.11l-.201-.044-.227.044c-.103.016-.206.03-.31.04l-.311.025-.313.009c-.468 0-.935-.056-1.39-.165l-.34-.092-8.504-2.583c-1.031-.313-1.613-1.41-1.298-2.446.053-.176.13-.342.227-.493l.104-.146.041-.049-.129-.072c-.191-.12-.36-.273-.5-.453l-.1-.14-.088-.15c-.244-.462-.296-.992-.144-1.491.053-.176.13-.342.227-.493l.104-.146.1-.118-.028-.019c-.543-.422-.833-1.112-.74-1.81l.029-.162.04-.15c.154-.51.503-.92.949-1.16l.152-.074.142-.055-.022-.07c-.062-.233-.082-.476-.055-.719L3.93 9.4l.046-.18c.151-.5.49-.912.95-1.16.41-.22.874-.288 1.322-.194l.167.043.971.295.032-.044c.216-.267.496-.471.814-.595l.163-.055.168-.041.158-.025.161-.013.004-.145c.016-.226.07-.448.163-.655l.076-.154.09-.147c.259-.385.638-.661 1.08-.79l.168-.04c.456-.092.92-.02 1.321.2zm-.966.991l-.114.014c-.193.039-.358.148-.467.31-.205.305-.152.708.107.945l.084.066 4.64 3.119c.283.19.358.572.168.854-.17.254-.497.34-.767.216l-.087-.049-5.037-3.385c-.159-.107-.35-.144-.541-.106-.193.039-.358.148-.467.31-.205.305-.151.707.108.945l.084.066 5.592 3.758c.171.116.271.307.272.51 0 .122-.036.241-.105.344l-.07.086-.036.034-.094.068-.046.024-.074.03-.053.014-.07.013-.076.003-.071-.005-.084-.017-.105-.04-.074-.042-4.68-3.146c-.33-.221-.783-.13-1.009.205-.205.304-.151.707.108.944l.084.066 5.235 3.519c.282.19.357.572.167.854-.115.172-.308.272-.51.272-.092 0-.182-.02-.264-.06l-.08-.045-4.025-2.706-.102-.06c-.14-.07-.3-.09-.46-.059-.192.039-.357.149-.466.31-.205.305-.152.708.108.945l.083.066 7.377 4.958c.443.298.926.516 1.402.643l.053.011.014.004c.375.096.76.144 1.15.144.312 0 .627-.031.939-.093 1.247-.25 2.324-.969 3.036-2.028.38-.567.632-1.19.747-1.855.096-.55.095-1.105-.005-1.663l-.06-.29-1.563-8.235c-.003-.015-.01-.025-.021-.033-.012-.008-.024-.01-.039-.008-.713.14-1.198.805-1.134 1.513l.019.133.466 2.35c.048.244-.055.494-.263.632-.178.118-.401.135-.592.05l-.092-.052-1.268-.852-.058-.014c-.117-.04-.22-.114-.296-.215l-.01-.015-6.181-4.155c-.127-.085-.275-.126-.427-.12zM5.5 17.388c-.325-.015-.63.195-.73.52-.107.354.065.727.387.876l.092.034 8.282 2.515-4.154-2.79-3.684-1.12-.099-.025-.094-.01zm-.963-2.908c-.173.093-.299.246-.355.433-.108.355.064.727.387.876l.091.035 1.734.525-.016-.022c-.28-.446-.372-.994-.245-1.513l.018-.068-1.065-.323c-.183-.055-.377-.036-.549.057zm-.624-2.464c-.108.354.065.726.387.875l.092.035 2.502.76.076-.05-.08-.082c-.35-.39-.527-.905-.496-1.426l.011-.12-1.588-.483c-.38-.115-.787.104-.904.49zm1.596-2.873c-.173.093-.299.246-.356.433-.107.355.065.727.387.876l.092.034 1.308.397.06-.062c.082-.078.17-.149.264-.211l.095-.059-.056-.079c-.211-.32-.323-.698-.322-1.085l.001-.02-.925-.281c-.182-.056-.376-.036-.548.057zm9.748-2.218l-.02.006c-.263.14-.469.355-.597.616l-.021.048 1.589 1.07-.9-1.713c-.004-.006-.008-.012-.013-.016l-.018-.01-.02-.001zM.862 5.545l.113.015.114.03 1.554.572c.396.146.6.586.454.982-.05.135-.136.252-.247.34-.127.099-.283.155-.481.155l-.125-.007-.13-.033-1.553-.571c-.397-.146-.6-.586-.454-.983.089-.242.29-.418.57-.48l.125-.02h.06zm2.803-4.4l.085.08.036.045.066.098 1.303 2.347c.206.37.072.835-.297 1.04-.067.038-.139.064-.213.08-.225.048-.458-.008-.665-.184l-.086-.082-.077-.111L2.514 2.11c-.205-.37-.072-.836.298-1.04.278-.155.615-.12.853.074zm4.696-.127l.116.016c.313.073.542.332.583.682l.006.12-.017.118-.376 1.612c-.088.377-.441.623-.815.588l-.123-.022-.019-.005c-.298-.085-.51-.34-.545-.68l-.005-.116.016-.114.377-1.611c.058-.251.237-.451.508-.547l.12-.035.06-.006h.114z" transform="translate(-29 -1036) translate(0 517) translate(16 507) translate(0 9) translate(13 3)"/>
                        </g>
                    </g>
                </g>
            </g>
        </g>
    </g>
</svg>
