<?xml version="1.0" encoding="utf-8"?>
<!-- Generator: Adobe Illustrator 24.0.2, SVG Export Plug-In . SVG Version: 6.00 Build 0)  -->
<svg version="1.1" id="圖層_1" xmlns="http://www.w3.org/2000/svg" xmlns:xlink="http://www.w3.org/1999/xlink" x="0px" y="0px"
	 viewBox="0 0 180 100" style="enable-background:new 0 0 180 100;" xml:space="preserve">
<style type="text/css">
	.st0{clip-path:url(#SVGID_2_);}
	.st1{filter:url(#Adobe_OpacityMaskFilter);}
	.st2{fill-rule:evenodd;clip-rule:evenodd;fill:#FFFFFF;}
	.st3{mask:url(#ogqz7mnc4b_1_);}
	.st4{fill-rule:evenodd;clip-rule:evenodd;fill:#F3F3F3;fill-opacity:0.55;}
	.st5{filter:url(#Adobe_OpacityMaskFilter_1_);}
	.st6{mask:url(#cczwwln4hd_1_);}
	.st7{fill-rule:evenodd;clip-rule:evenodd;fill:#00AFB8;}
	.st8{fill-rule:evenodd;clip-rule:evenodd;fill:#39C8D0;}
	.st9{fill-rule:evenodd;clip-rule:evenodd;fill:#86E4E9;}
	.st10{fill-rule:evenodd;clip-rule:evenodd;fill:#292929;}
	.st11{opacity:0.153;fill-rule:evenodd;clip-rule:evenodd;fill:#292929;enable-background:new    ;}
	.st12{fill:none;stroke:#292929;stroke-width:1.5;stroke-linecap:round;}
	.st13{fill-rule:evenodd;clip-rule:evenodd;fill:#DDDDDD;}
</style>
<g>
	<g>
		<defs>
			<rect id="SVGID_1_" width="180" height="100"/>
		</defs>
		<clipPath id="SVGID_2_">
			<use xlink:href="#SVGID_1_"  style="overflow:visible;"/>
		</clipPath>
		<g class="st0">
			<g>
				<g>
					<g>
						<g>
							<g transform="translate(-1086 -761) translate(363 640) translate(709 53) translate(14 68)">
								<defs>
									<filter id="Adobe_OpacityMaskFilter" filterUnits="userSpaceOnUse" x="11.4" y="1.2" width="168.3" height="168.8">
										<feColorMatrix  type="matrix" values="1 0 0 0 0  0 1 0 0 0  0 0 1 0 0  0 0 0 1 0"/>
									</filter>
								</defs>
								<mask maskUnits="userSpaceOnUse" x="11.4" y="1.2" width="168.3" height="168.8" id="ogqz7mnc4b_1_">
									<g class="st1">
										<path id="_x34_u6sd8pi5a_1_" class="st2" d="M0,0h180v146H0V0z"/>
									</g>
								</mask>
								<g class="st3">
									<g transform="translate(11 1)">
										<g>
											<path id="satbooaimc_1_" class="st4" d="M12,78c12.1,10,30.9,13.7,56.8,16.3c25.9,2.5,48.1,2.2,64.4,0
												c31.5-4.2,11.7-23.8,5.3-30.3s19.9-6,19-18.5c-0.4-5.7-16.3-13.5-19-18.5c-3.3-6,20-17.8-6.7-23
												c-30.1-5.8-58.2-4.8-88.1,2C13.3,12.9,8.1,20.5,3,32.5S-0.1,68,12,78z"/>
										</g>
										<defs>
											<filter id="Adobe_OpacityMaskFilter_1_" filterUnits="userSpaceOnUse" x="19.5" y="50" width="149.1" height="119">
												<feColorMatrix  type="matrix" values="1 0 0 0 0  0 1 0 0 0  0 0 1 0 0  0 0 0 1 0"/>
											</filter>
										</defs>
										<mask maskUnits="userSpaceOnUse" x="19.5" y="50" width="149.1" height="119" id="cczwwln4hd_1_">
											<g class="st5">
												<path id="satbooaimc_2_" class="st2" d="M12,78c12.1,10,30.9,13.7,56.8,16.3c25.9,2.5,48.1,2.2,64.4,0
													c31.5-4.2,11.7-23.8,5.3-30.3s19.9-6,19-18.5c-0.4-5.7-16.3-13.5-19-18.5c-3.3-6,20-17.8-6.7-23
													c-30.1-5.8-58.2-4.8-88.1,2C13.3,12.9,8.1,20.5,3,32.5S-0.1,68,12,78z"/>
											</g>
										</mask>
										<g class="st6">
											<g>
												<g>
													<path class="st7" d="M19.5,70.6c0,0,29.9,60.9,45,71.9c15.1,11.1,44.7-0.5,44.7-0.5l-15-59L64,77.1L19.5,70.6
														L19.5,70.6z"/>
													<path class="st8" d="M29.1,75.8c0,0,25.7,57,40.8,68c15.1,11.1,44.7-0.5,44.7-0.5l-15-59l-30.2-5.9L29.1,75.8z"/>
													<path class="st9" d="M19.5,70.6l14.7,2.1l-5.1,3.1c38.3,5,59.8,9.4,64.5,13.2c3.9-0.9-3.3-16.7-3.3-16.7
														C77.5,69.9,53.9,69.4,19.5,70.6z"/>
												</g>
												<g>
													<path class="st7" d="M44.4,50l11.2,60c12.4,26.6,21.3,42.8,26.5,48.5c16.5,18,60.4,7.5,60.4,7.5l0.7-83.7l-38.7-13.6
														L44.4,50z"/>
													<path class="st8" d="M59.2,62.5l1.9,60.2l88.3,46.2l0.7-83.8l-38.7-13.6L59.2,62.5z"/>
													<path class="st9" d="M55.3,51c-2.5-0.1-6.1-0.5-10.9-1l28,10.4l-13.3,2.1c44.9,11,80.7,19.8,107.6,26.5
														c5.6-0.5-3.3-21.5-3.3-21.5S69.4,51.8,55.3,51L55.3,51z"/>
												</g>
											</g>
										</g>
									</g>
								</g>
							</g>
							<g>
								<path class="st10" d="M99.5,15.9l29.8,3.7l-6.9,6.2l5.2,7.7l-29.8-3.7L99.5,15.9z"/>
								<path class="st11" d="M117,63.8c-0.1,0.8-6,0.4-13.1-0.8C96.7,61.7,90.9,60,91,59.2c0.1-0.8,6-0.4,13.1,0.8
									C111.3,61.3,117.1,63,117,63.8"/>
								<path class="st12" d="M94.5,59.5L100,15"/>
							</g>
							<path class="st13" d="M79.4,27.8l4.5,1.7l-4.8,0.9L77.5,35l-0.9-4.8L72,28.5l4.8-0.9l1.7-4.5L79.4,27.8z"/>
							<path class="st13" d="M138.8,14.4L143,16l-4.4,0.8L137,21l-0.8-4.4L132,15l4.4-0.8L138,10L138.8,14.4z"/>
						</g>
					</g>
				</g>
			</g>
		</g>
	</g>
</g>
</svg>
