<?xml version="1.0" encoding="utf-8"?>
<!-- Generator: Adobe Illustrator 24.0.2, SVG Export Plug-In . SVG Version: 6.00 Build 0)  -->
<svg version="1.1" id="圖層_1" xmlns="http://www.w3.org/2000/svg" xmlns:xlink="http://www.w3.org/1999/xlink" x="0px" y="0px"
	 viewBox="0 0 180 100" style="enable-background:new 0 0 180 100;" xml:space="preserve">
<style type="text/css">
	.st0{fill-rule:evenodd;clip-rule:evenodd;fill:none;}
	.st1{filter:url(#Adobe_OpacityMaskFilter);}
	.st2{fill-rule:evenodd;clip-rule:evenodd;fill:#FFFFFF;}
	.st3{mask:url(#udfrklz2ab_1_);}
	.st4{filter:url(#Adobe_OpacityMaskFilter_1_);}
	.st5{mask:url(#p951himttd_1_);}
	.st6{filter:url(#Adobe_OpacityMaskFilter_2_);}
	.st7{mask:url(#jstxkqvzpf_1_);fill-rule:evenodd;clip-rule:evenodd;fill:#39C8D0;}
	.st8{filter:url(#Adobe_OpacityMaskFilter_3_);}
	.st9{mask:url(#_x34_qedc43eth_1_);fill-rule:evenodd;clip-rule:evenodd;fill:#FFEEDF;}
	.st10{fill-rule:evenodd;clip-rule:evenodd;fill:#39C8D0;}
	.st11{filter:url(#Adobe_OpacityMaskFilter_4_);}
	.st12{mask:url(#_x38_ra89tv2ej_1_);fill-rule:evenodd;clip-rule:evenodd;fill:#FFEEDF;}
	.st13{filter:url(#Adobe_OpacityMaskFilter_5_);}
	.st14{mask:url(#_x30_e9t40osjl_1_);fill-rule:evenodd;clip-rule:evenodd;fill:#39C8D0;}
	.st15{filter:url(#Adobe_OpacityMaskFilter_6_);}
	.st16{mask:url(#mguufonq2n_1_);fill-rule:evenodd;clip-rule:evenodd;fill:#292929;}
	.st17{filter:url(#Adobe_OpacityMaskFilter_7_);}
	.st18{mask:url(#bdmzl89a9p_1_);fill-rule:evenodd;clip-rule:evenodd;fill:#FFEEDF;}
	.st19{fill-rule:evenodd;clip-rule:evenodd;fill:#FFEEDF;}
	.st20{fill-rule:evenodd;clip-rule:evenodd;fill:#292929;}
	.st21{filter:url(#Adobe_OpacityMaskFilter_8_);}
	.st22{mask:url(#rp0kzev20s_1_);fill-rule:evenodd;clip-rule:evenodd;fill:url(#SVGID_1_);}
	.st23{filter:url(#Adobe_OpacityMaskFilter_9_);}
	.st24{mask:url(#_x38_po43gk0hu_1_);fill-rule:evenodd;clip-rule:evenodd;fill:#DDDDDD;}
	.st25{fill-rule:evenodd;clip-rule:evenodd;fill:#EEEEEE;}
	.st26{filter:url(#Adobe_OpacityMaskFilter_10_);}
	.st27{mask:url(#_x35_7yurvvzaw_1_);fill-rule:evenodd;clip-rule:evenodd;fill:#292929;}
	.st28{filter:url(#Adobe_OpacityMaskFilter_11_);}
	.st29{mask:url(#_x33_nib8uslqy_1_);fill-rule:evenodd;clip-rule:evenodd;fill:#292929;}
	.st30{filter:url(#Adobe_OpacityMaskFilter_12_);}
	.st31{mask:url(#p12q0ccqjA_1_);fill-rule:evenodd;clip-rule:evenodd;fill:#EEEEEE;}
	.st32{fill-rule:evenodd;clip-rule:evenodd;fill:#DDDDDD;}
	.st33{filter:url(#Adobe_OpacityMaskFilter_13_);}
	.st34{mask:url(#_x31_bypjlxg7D_1_);fill-rule:evenodd;clip-rule:evenodd;fill:#FF7800;}
	.st35{fill-rule:evenodd;clip-rule:evenodd;fill:#7E7E7E;}
	.st36{filter:url(#Adobe_OpacityMaskFilter_14_);}
	.st37{mask:url(#etgxedilpG_1_);fill-rule:evenodd;clip-rule:evenodd;fill:#FF9100;}
	.st38{fill-rule:evenodd;clip-rule:evenodd;fill:#FF7800;}
</style>
<g>
	<g>
		<g>
			<g>
				<g transform="translate(-640 -761) translate(363 640) translate(263 53) translate(14 68)">
					<g>
						<path id="b61nysgmba_1_" class="st0" d="M0,0l180,0v100L0,100V0z"/>
					</g>
					<defs>
						<filter id="Adobe_OpacityMaskFilter" filterUnits="userSpaceOnUse" x="21.1" y="7.2" width="130.9" height="93.1">
							<feColorMatrix  type="matrix" values="1 0 0 0 0  0 1 0 0 0  0 0 1 0 0  0 0 0 1 0"/>
						</filter>
					</defs>
					<mask maskUnits="userSpaceOnUse" x="21.1" y="7.2" width="130.9" height="93.1" id="udfrklz2ab_1_">
						<g class="st1">
							<path id="b61nysgmba_2_" class="st2" d="M0,0h181v100H0V0z"/>
						</g>
					</mask>
					<g class="st3">
						<g transform="translate(21 -16)">
							<defs>
								<filter id="Adobe_OpacityMaskFilter_1_" filterUnits="userSpaceOnUse" x="0.1" y="23.2" width="130.9" height="93.1">
									<feColorMatrix  type="matrix" values="1 0 0 0 0  0 1 0 0 0  0 0 1 0 0  0 0 0 1 0"/>
								</filter>
							</defs>
							<mask maskUnits="userSpaceOnUse" x="0.1" y="23.2" width="130.9" height="93.1" id="p951himttd_1_">
								<g class="st4">
									<path id="qursdyr88c_1_" class="st2" d="M1.7,89.6c0,12.3,30.2,13.1,35.7,16.6c14.3,9.1,31.6,12.2,48.5,13.7
										c15.6,1.5,32.6,1.5,45.4-7.6c10.2-7.1,16.2-19.1,18.6-31.3c2.4-12.2,1.7-24.8,0.8-37.2c-0.4-5.6-0.9-11.4-3.6-16.3
										c-3.3-5.9-9.4-9.7-15.4-12.8C104.7,1.2,71.8-3.7,42.2,3C12,9.8,0.4,27.2,0.1,51.9S1.7,77.3,1.7,89.6z"/>
								</g>
							</mask>
							<g class="st5">
								<g>
									<g transform="translate(.1 22.77) translate(55.688 54.075)">
										<defs>
											<filter id="Adobe_OpacityMaskFilter_2_" filterUnits="userSpaceOnUse" x="0.2" y="0" width="23.8" height="25.5">
												<feColorMatrix  type="matrix" values="1 0 0 0 0  0 1 0 0 0  0 0 1 0 0  0 0 0 1 0"/>
											</filter>
										</defs>
										<mask maskUnits="userSpaceOnUse" x="0.2" y="0" width="23.8" height="25.5" id="jstxkqvzpf_1_">
											<g class="st6">
												<path id="_x37_36r2b4fwe_1_" class="st2" d="M0.2,12.1c0,0,1.3,8.8,14.7,12.8c3.4,1,6.4,0.9,9.1,0.2
													c-1.3-3.3-1.3-6.3-0.7-8.7c-10.4,1.2-8-15.6-7.9-16.3L0.2,12.1z"/>
											</g>
										</mask>
										<path class="st7" d="M0.2,12.1c0,0,1.3,8.8,14.7,12.8c3.4,1,6.4,0.9,9.1,0.2c-1.3-3.3-1.3-6.3-0.7-8.7
											c-10.4,1.2-8-15.6-7.9-16.3L0.2,12.1z"/>
									</g>
									<g transform="translate(.1 22.77) translate(78.408 62.985)">
										<defs>
											<filter id="Adobe_OpacityMaskFilter_3_" filterUnits="userSpaceOnUse" x="0.1" y="0.3" width="27.6" height="15.8">
												<feColorMatrix  type="matrix" values="1 0 0 0 0  0 1 0 0 0  0 0 1 0 0  0 0 0 1 0"/>
											</filter>
										</defs>
										<mask maskUnits="userSpaceOnUse" x="0.1" y="0.3" width="27.6" height="15.8" id="_x34_qedc43eth_1_">
											<g class="st8">
												<path id="wgnz53a1cg_1_" class="st2" d="M12.1,1.7c-5,3.7-8.7,5.3-11.6,5.7C0,9.8-0.1,12.8,1.2,16.1
													c5.7-1.6,9.7-6,11.3-8.3c0.6-0.8,1.8-1,2.6-0.4C16,8,16.8,8.8,16.7,9.7c-0.2,1.8,2,2.3,2.1,1.6c0.1-0.7-1-4.5-1-4.5
													s4.4,4,6.2,5.5c1.7,1.5,3.7-0.2,3.7-0.2s-3.3-8.4-7.4-10.9c-1.2-0.7-2.4-1-3.5-1C14.2,0.3,12.1,1.7,12.1,1.7"/>
											</g>
										</mask>
										<path class="st9" d="M12.1,1.7c-5,3.7-8.7,5.3-11.6,5.7C0,9.8-0.1,12.8,1.2,16.1c5.7-1.6,9.7-6,11.3-8.3
											c0.6-0.8,1.8-1,2.6-0.4C16,8,16.8,8.8,16.7,9.7c-0.2,1.8,2,2.3,2.1,1.6c0.1-0.7-1-4.5-1-4.5s4.4,4,6.2,5.5
											c1.7,1.5,3.7-0.2,3.7-0.2s-3.3-8.4-7.4-10.9c-1.2-0.7-2.4-1-3.5-1C14.2,0.3,12.1,1.7,12.1,1.7"/>
									</g>
									<g>
										<path class="st10" d="M28.2,53.5c-14.2,25.3-13.8,58-13.8,58c7.6,5,14.5,3.1,20,3.1L37,114c5.8,0,7.4,2.3,7.4,2.3
											c2.7-11.9,26-34.4,28.3-38.8c2.3-4.5-0.3-9.2-0.3-9.2c-18-13.3-30.5-15.8-37.5-15.8C30.4,52.5,28.2,53.5,28.2,53.5"/>
									</g>
									<g transform="translate(.1 22.77) translate(49.896 23.336)">
										<defs>
											<filter id="Adobe_OpacityMaskFilter_4_" filterUnits="userSpaceOnUse" x="0.3" y="0.4" width="17.8" height="17">
												<feColorMatrix  type="matrix" values="1 0 0 0 0  0 1 0 0 0  0 0 1 0 0  0 0 0 1 0"/>
											</filter>
										</defs>
										<mask maskUnits="userSpaceOnUse" x="0.3" y="0.4" width="17.8" height="17" id="_x38_ra89tv2ej_1_">
											<g class="st11">
												<path id="_x32_3xykcei2i_1_" class="st2" d="M0.9,9.8C0.2,10.7,0.1,12,0.6,13c1.1,2.1,3.8,5,9.2,4.3
													c1.6-0.2,3-1.3,3.6-2.8l4.6-11.1L7.8,0.4L0.9,9.8z"/>
											</g>
										</mask>
										<path class="st12" d="M0.9,9.8C0.2,10.7,0.1,12,0.6,13c1.1,2.1,3.8,5,9.2,4.3c1.6-0.2,3-1.3,3.6-2.8l4.6-11.1L7.8,0.4
											L0.9,9.8z"/>
									</g>
									<g transform="translate(.1 22.77) translate(0 30.464)">
										<defs>
											<filter id="Adobe_OpacityMaskFilter_5_" filterUnits="userSpaceOnUse" x="0" y="0.3" width="33.3" height="53.8">
												<feColorMatrix  type="matrix" values="1 0 0 0 0  0 1 0 0 0  0 0 1 0 0  0 0 0 1 0"/>
											</filter>
										</defs>
										<mask maskUnits="userSpaceOnUse" x="0" y="0.3" width="33.3" height="53.8" id="_x30_e9t40osjl_1_">
											<g class="st13">
												<path id="_x30_c3u4ww7bk_1_" class="st2" d="M2,48c1.6,2.9,3.5,4.8,5.8,6.1c2.6-8.5,7.4-12.6,10.7-14.5
													c-2.2-7.1,14.8-24,14.8-24L28.1,0.3C28.1,0.3-8.9,28,2,48"/>
											</g>
										</mask>
										<path class="st14" d="M2,48c1.6,2.9,3.5,4.8,5.8,6.1c2.6-8.5,7.4-12.6,10.7-14.5c-2.2-7.1,14.8-24,14.8-24L28.1,0.3
											C28.1,0.3-8.9,28,2,48"/>
									</g>
									<g transform="translate(.1 22.77) translate(17.375 43.829)">
										<defs>
											<filter id="Adobe_OpacityMaskFilter_6_" filterUnits="userSpaceOnUse" x="0.4" y="0.4" width="15.8" height="24.8">
												<feColorMatrix  type="matrix" values="1 0 0 0 0  0 1 0 0 0  0 0 1 0 0  0 0 0 1 0"/>
											</filter>
										</defs>
										<mask maskUnits="userSpaceOnUse" x="0.4" y="0.4" width="15.8" height="24.8" id="mguufonq2n_1_">
											<g class="st15">
												<path id="_x33_154ybuggm_1_" class="st2" d="M15.5,0.5C14.8,1.2-1.6,17.7,0.6,24.9c0.1,0.2,0.2,0.3,0.4,0.3
													c0,0,0.1,0,0.1,0c0.2-0.1,0.3-0.3,0.3-0.5C-0.6,17.9,15.9,1.3,16.1,1.1c0.2-0.2,0.2-0.4,0-0.6c-0.1-0.1-0.2-0.1-0.3-0.1
													C15.7,0.4,15.6,0.4,15.5,0.5"/>
											</g>
										</mask>
										<path class="st16" d="M15.5,0.5C14.8,1.2-1.6,17.7,0.6,24.9c0.1,0.2,0.2,0.3,0.4,0.3c0,0,0.1,0,0.1,0
											c0.2-0.1,0.3-0.3,0.3-0.5C-0.6,17.9,15.9,1.3,16.1,1.1c0.2-0.2,0.2-0.4,0-0.6c-0.1-0.1-0.2-0.1-0.3-0.1
											C15.7,0.4,15.6,0.4,15.5,0.5"/>
									</g>
									<g transform="translate(.1 22.77) translate(7.574 66.995)">
										<defs>
											<filter id="Adobe_OpacityMaskFilter_7_" filterUnits="userSpaceOnUse" x="0.2" y="0.4" width="56.1" height="19">
												<feColorMatrix  type="matrix" values="1 0 0 0 0  0 1 0 0 0  0 0 1 0 0  0 0 0 1 0"/>
											</filter>
										</defs>
										<mask maskUnits="userSpaceOnUse" x="0.2" y="0.4" width="56.1" height="19" id="bdmzl89a9p_1_">
											<g class="st17">
												<path id="rofoza8g3o_1_" class="st2" d="M37.9,1c0,0-20.6,9.4-26.1,3.5c-0.4-0.4-0.6-0.9-0.8-1.4
													C7.6,5,2.9,9.1,0.2,17.6C11.7,24,30.1,12,35,8.4c0.8-0.6,1.8-0.8,2.8-0.7c2,0.3,5.5,0.7,7.3,0.3
													c1.2-0.2,2.7,1.4,4.4,3.1c2.1,2.1,4.5,4.2,6.9,2.5c0,0-3.8-13.2-14.6-13.2C40.5,0.4,39.2,0.6,37.9,1"/>
											</g>
										</mask>
										<path class="st18" d="M37.9,1c0,0-20.6,9.4-26.1,3.5c-0.4-0.4-0.6-0.9-0.8-1.4C7.6,5,2.9,9.1,0.2,17.6
											C11.7,24,30.1,12,35,8.4c0.8-0.6,1.8-0.8,2.8-0.7c2,0.3,5.5,0.7,7.3,0.3c1.2-0.2,2.7,1.4,4.4,3.1c2.1,2.1,4.5,4.2,6.9,2.5
											c0,0-3.8-13.2-14.6-13.2C40.5,0.4,39.2,0.6,37.9,1"/>
									</g>
									<g>
										<path class="st19" d="M58.1,46.1c0.3,3,1.4,4.9,3.3,5.7c5.6,2.9,9.3,3,11.2,0.1c2.8-4.2,0.9-19.3,0.8-19.6
											c-0.5-1.5-2-2-3.9-2c-4.2,0-10.2,2.6-10.2,2.6C58.1,38.7,57.7,43.1,58.1,46.1z"/>
									</g>
									<g>
										<path class="st20" d="M65.6,27.3c-0.6-0.2-1-0.1-1.3,0.2c-0.5,0.5-1.3,0.5-1.8,0.1c-1.3-1-3.7-2.2-6.3-0.5
											c-2.6,1.7-2,3.9-1.2,5.3c0.4,0.7,0.1,1.6-0.6,1.9c-3.4,1.8-2.2,4.5-1.5,5.6c0.2,0.3,0.5,0.6,0.9,0.6c1.1,0.3,3.8,1,4.3,3
											c0.6,2.1,0.5,3.7,0.5,3.6c3.2-3,4.3-5.5,3.3-7.6c-1.5-3.1,0.6-3.8,1-4.1c1-0.9,3.4-2.6,5.6-1.7c2.9,1.2,8.3,1.5,9.1-1.9
											c0.8-3.4-0.7-8.7-5.7-8.7h0c-2.8,0-3.9,1.7-4.4,3.2C67.2,27.2,66.4,27.6,65.6,27.3z"/>
									</g>
									<g transform="translate(.1 22.77) translate(52.569 17.099)">
										<defs>
											<filter id="Adobe_OpacityMaskFilter_8_" filterUnits="userSpaceOnUse" x="0.2" y="0" width="5.7" height="7.8">
												<feColorMatrix  type="matrix" values="1 0 0 0 0  0 1 0 0 0  0 0 1 0 0  0 0 0 1 0"/>
											</filter>
										</defs>
										<mask maskUnits="userSpaceOnUse" x="0.2" y="0" width="5.7" height="7.8" id="rp0kzev20s_1_">
											<g class="st21">
												<path id="vgk4jwee4q_1_" class="st2" d="M0.5,4.5c1.7,4.9,5.1,2.8,5.1,2.8s1.1-6-1.2-7C3.9,0.1,3.4,0,2.8,0
													C1,0-0.5,1.5,0.5,4.5"/>
											</g>
										</mask>
										
											<linearGradient id="SVGID_1_" gradientUnits="userSpaceOnUse" x1="-244.8643" y1="395.924" x2="-243.7623" y2="398.9288" gradientTransform="matrix(5.693 0 0 -7.7836 1391.0323 3108.4602)">
											<stop  offset="0" style="stop-color:#F9B675"/>
											<stop  offset="1" style="stop-color:#F47960"/>
										</linearGradient>
										<path class="st22" d="M0.5,4.5c1.7,4.9,5.1,2.8,5.1,2.8s1.1-6-1.2-7C3.9,0.1,3.4,0,2.8,0C1,0-0.5,1.5,0.5,4.5"/>
									</g>
									<g>
										<g>
											<g>
												<g transform="translate(.1 22.77) translate(68.253 32.13) translate(0 1.1) translate(.354 51.502)">
													<defs>
														<filter id="Adobe_OpacityMaskFilter_9_" filterUnits="userSpaceOnUse" x="0" y="0.2" width="50.8" height="3.1">
															<feColorMatrix  type="matrix" values="1 0 0 0 0  0 1 0 0 0  0 0 1 0 0  0 0 0 1 0"/>
														</filter>
													</defs>
													<mask maskUnits="userSpaceOnUse" x="0" y="0.2" width="50.8" height="3.1" id="_x38_po43gk0hu_1_">
														<g class="st23">
															<path id="_x30_jo8wxwhct_1_" class="st2" d="M1.6,0.2C0.5,0.2,0,0.9,0,1.9v1.4h50.8V1.9c0-1-1-1.7-2-1.7H1.6L1.6,0.2
																z"/>
														</g>
													</mask>
													<path class="st24" d="M1.6,0.2C0.5,0.2,0,0.9,0,1.9v1.4h50.8V1.9c0-1-1-1.7-2-1.7H1.6L1.6,0.2z"/>
												</g>
												<path class="st25" d="M82.5,58.3l-7.9,42.6c-0.3,1.4,0.7,2.5,2.2,2.5l45.3,0c1.4,0,2.6-1.1,2.8-2.5l6.1-41.5
													c0.2-1.3-0.7-2.3-2.1-2.3l-43.4-1.1h-0.1C84.1,56.1,82.8,57.1,82.5,58.3"/>
												<g transform="translate(.1 22.77) translate(68.253 32.13) translate(0 1.1) translate(22.183 51.056)">
													<defs>
														<filter id="Adobe_OpacityMaskFilter_10_" filterUnits="userSpaceOnUse" x="0" y="0.2" width="27.6" height="3.6">
															<feColorMatrix  type="matrix" values="1 0 0 0 0  0 1 0 0 0  0 0 1 0 0  0 0 0 1 0"/>
														</filter>
													</defs>
													<mask maskUnits="userSpaceOnUse" x="0" y="0.2" width="27.6" height="3.6" id="_x35_7yurvvzaw_1_">
														<g class="st26">
															<path id="_x31_qq7qbcxvv_1_" class="st2" d="M2.6,0.2C1.1,0.2,0,1.6,0,3.1c0,0.4,0.3,0.7,0.7,0.7h15.9l11-0.3V3
																c0-1.3-0.8-2.4-2-2.7c-0.2,0-0.4,0-0.6,0L2.6,0.2L2.6,0.2z"/>
														</g>
													</mask>
													<path class="st27" d="M2.6,0.2C1.1,0.2,0,1.6,0,3.1c0,0.4,0.3,0.7,0.7,0.7h15.9l11-0.3V3c0-1.3-0.8-2.4-2-2.7
														c-0.2,0-0.4,0-0.6,0L2.6,0.2L2.6,0.2z"/>
												</g>
												<g>
													<path class="st25" d="M118.4,107.3l-2.3,0l-9,0l-11.3,0.1c-1.5,0-2.7,1.3-2.7,2.8c0,0.3,0.2,0.6,0.5,0.6h26.9
														c0.1,0,0.3-0.1,0.4-0.2c0.1-0.1,0.2-0.3,0.2-0.4l0-0.2C121.2,108.5,120,107.3,118.4,107.3L118.4,107.3"/>
												</g>
												<g transform="translate(.1 22.77) translate(68.253 32.13) translate(0 1.1) translate(29.757 20.762)">
													<defs>
														<filter id="Adobe_OpacityMaskFilter_11_" filterUnits="userSpaceOnUse" x="0" y="0.2" width="13.8" height="30.3">
															<feColorMatrix  type="matrix" values="1 0 0 0 0  0 1 0 0 0  0 0 1 0 0  0 0 0 1 0"/>
														</filter>
													</defs>
													<mask maskUnits="userSpaceOnUse" x="0" y="0.2" width="13.8" height="30.3" id="_x33_nib8uslqy_1_">
														<g class="st28">
															<path id="_x35_prdd7ufcx_1_" class="st2" d="M1.6,0.2c-1,0-1.6,1-1.6,2.1v28.2h13.8V0.2L1.6,0.2L1.6,0.2z"/>
														</g>
													</mask>
													<path class="st29" d="M1.6,0.2c-1,0-1.6,1-1.6,2.1v28.2h13.8V0.2L1.6,0.2L1.6,0.2z"/>
												</g>
												<g transform="translate(.1 22.77) translate(68.253 32.13) translate(0 1.1) translate(31.539 20.762)">
													<defs>
														<filter id="Adobe_OpacityMaskFilter_12_" filterUnits="userSpaceOnUse" x="0" y="0.2" width="14.3" height="30.3">
															<feColorMatrix  type="matrix" values="1 0 0 0 0  0 1 0 0 0  0 0 1 0 0  0 0 0 1 0"/>
														</filter>
													</defs>
													<mask maskUnits="userSpaceOnUse" x="0" y="0.2" width="14.3" height="30.3" id="p12q0ccqjA_1_">
														<g class="st30">
															<path id="r2wh140yfz_1_" class="st2" d="M2,0.2c-1,0-2,1-2,2.1v28.2h14.3V2.3c0-1-0.7-2.1-1.7-2.1L2,0.2L2,0.2z"/>
														</g>
													</mask>
													<path class="st31" d="M2,0.2c-1,0-2,1-2,2.1v28.2h14.3V2.3c0-1-0.7-2.1-1.7-2.1L2,0.2L2,0.2z"/>
												</g>
											</g>
											<g transform="translate(.1 22.77) translate(68.253 32.13) translate(6.145 .924)">
											</g>
										</g>
										<path class="st32" d="M82.5,58.3L74.6,101c-0.3,1.4,0.8,2.5,2.3,2.5c0.6,0,1.3-0.5,1.4-1l8.4-45.6
											c0.1-0.3-0.1-0.6-0.3-0.8l-0.8,0h-0.1C84.1,56.1,82.8,57.1,82.5,58.3"/>
									</g>
									<g transform="translate(.1 22.77) translate(56.133 22.89)">
										<defs>
											<filter id="Adobe_OpacityMaskFilter_13_" filterUnits="userSpaceOnUse" x="0.3" y="0.1" width="10.7" height="7.5">
												<feColorMatrix  type="matrix" values="1 0 0 0 0  0 1 0 0 0  0 0 1 0 0  0 0 0 1 0"/>
											</filter>
										</defs>
										<mask maskUnits="userSpaceOnUse" x="0.3" y="0.1" width="10.7" height="7.5" id="_x31_bypjlxg7D_1_">
											<g class="st33">
												<path id="uy4uh6hgjC_1_" class="st2" d="M0.3,0.3C0.3,0.4,4,7.8,11,7.6L11,7C4.4,7.2,0.8,0.2,0.8,0.1L0.3,0.3z"/>
											</g>
										</mask>
										<path class="st34" d="M0.3,0.3C0.3,0.4,4,7.8,11,7.6L11,7C4.4,7.2,0.8,0.2,0.8,0.1L0.3,0.3z"/>
									</g>
									<g transform="translate(.1 22.77) translate(66.38 29.127)">
										<g>
											<path id="w0hf27a0qE" class="st35" d="M2.4,0L0.7,0.2C0.3,0.3,0,0.6,0.1,1c0,0.4,0.4,0.6,0.7,0.6l1.8-0.2
												C3,1.3,3.2,1,3.2,0.6C3.1,0.3,2.8,0,2.4,0C2.5,0,2.5,0,2.4,0z"/>
										</g>
									</g>
									<g transform="translate(.1 22.77) translate(54.797 3.734)">
										<defs>
											<filter id="Adobe_OpacityMaskFilter_14_" filterUnits="userSpaceOnUse" x="0.2" y="0.3" width="11.7" height="12.6">
												<feColorMatrix  type="matrix" values="1 0 0 0 0  0 1 0 0 0  0 0 1 0 0  0 0 0 1 0"/>
											</filter>
										</defs>
										<mask maskUnits="userSpaceOnUse" x="0.2" y="0.3" width="11.7" height="12.6" id="etgxedilpG_1_">
											<g class="st36">
												<path id="i2n252rheF_1_" class="st2" d="M8,0.7c-2.1,0.9-7.6,6.1-7.7,12C1.6,13.2,2,12.5,2,12.5S5,1.6,12,0.8
													c0,0-0.9-0.4-2.1-0.4C9.3,0.3,8.6,0.4,8,0.7"/>
											</g>
										</mask>
										<path class="st37" d="M8,0.7c-2.1,0.9-7.6,6.1-7.7,12C1.6,13.2,2,12.5,2,12.5S5,1.6,12,0.8c0,0-0.9-0.4-2.1-0.4
											C9.3,0.3,8.6,0.4,8,0.7"/>
									</g>
									<g>
										<path class="st38" d="M52.2,43.4c-0.1,2.4,0.9,4.6,2.1,5.5c0.9,0.6,2,0.7,3,0.3c1-0.4,1.6-1.3,1.8-2.4
											c0.1-0.9,0.2-1.8,0.3-2.2c0.2-0.7,0.6-7.3-2.8-7.3c-0.1,0-0.3,0-0.4,0C52.3,38,52.3,41.1,52.2,43.4L52.2,43.4z"/>
									</g>
								</g>
							</g>
						</g>
					</g>
				</g>
			</g>
		</g>
	</g>
</g>
</svg>
