<svg xmlns="http://www.w3.org/2000/svg" xmlns:xlink="http://www.w3.org/1999/xlink" width="366" height="172" viewBox="0 0 366 172">
    <defs>
        <path id="q03jph1ana" d="M0 0H240V172H0z"/>
        <path id="eiab8wl71b" d="M0 0H366V172H0z"/>
        <path id="33ym9q1axe" d="M0 0.051L20.361 0.051 20.361 20.412 0 20.412z"/>
        <linearGradient id="8khgspfoad" x1="100%" x2="12.423%" y1="38.95%" y2="61.972%">
            <stop offset="0%" stop-color="#FFF"/>
            <stop offset="100%" stop-color="#FFF" stop-opacity=".04"/>
        </linearGradient>
    </defs>
    <g fill="none" fill-rule="evenodd">
        <g>
            <g>
                <g>
                    <g transform="translate(-853 -468) translate(363 468) translate(490)"/>
                    <g transform="translate(-853 -468) translate(363 468) translate(490)">
                        <mask id="89sdv4tecc" fill="#fff">
                            <use xlink:href="#eiab8wl71b"/>
                        </mask>
                        <g mask="url(#89sdv4tecc)">
                            <g>
                                <g>
                                    <path fill="#0B0B0B" d="M54.9 57.6v63.9H29.7V57.6h25.2zm76.5-43.2v107.1h-27V14.4h27zM165.6 0v121.5h-25.2V0h25.2zm-72 36v84.6H68.4V36h25.2z" opacity=".08" transform="translate(173 13) translate(0 45.9)"/>
                                    <path fill="url(#8khgspfoad)" d="M182.7 24.3l-23.28 50.4-2.45-14.235c-10.918 7.416-23.345 13.305-37.076 17.559-14.21 4.4-29.952 7.098-46.793 8.016-4.592.25-9.065.36-13.37.36-8.707 0-16.735-.445-23.731-1.064l2.83-13.46c9.648.79 21.17 1.205 33.617.527 15.848-.863 30.608-3.385 43.867-7.49 11.138-3.452 21.302-8.054 30.357-13.737l-16.171-1.21L182.7 24.3z" transform="translate(173 13) translate(0 45.9)"/>
                                    <path fill="#EBF3FA" d="M2.647 74.25c.206-.746-.209-1.35-.925-1.35-.716 0-1.464.604-1.67 1.35-.205.746.21 1.35.926 1.35.717 0 1.464-.604 1.67-1.35" transform="translate(173 13) translate(0 45.9)"/>
                                </g>
                                <g>
                                    <g transform="translate(173 13) translate(116.1) translate(0 41.667)">
                                        <mask id="hzmmiuefrf" fill="#fff">
                                            <use xlink:href="#33ym9q1axe"/>
                                        </mask>
                                        <path fill="#FFC31B" d="M.29 12.638C-1.037 7.176 2.313 1.67 7.775.342c5.462-1.33 10.967 2.02 12.296 7.483 1.33 5.462-2.02 10.967-7.483 12.296C7.125 21.451 1.62 18.1.291 12.638" mask="url(#hzmmiuefrf)"/>
                                    </g>
                                    <path fill="#FFA412" d="M8.147 43.542C3.475 44.68.6 49.405 1.737 54.077c1.136 4.672 5.862 7.548 10.534 6.411 4.672-1.137 7.548-5.863 6.411-10.535-1.137-4.672-5.863-7.547-10.535-6.41m4.255 17.483c-2.407.585-4.898.199-7.014-1.089-2.116-1.288-3.604-3.322-4.19-5.729-.585-2.407-.198-4.898 1.09-7.014 1.287-2.116 3.322-3.604 5.728-4.19 2.407-.585 4.898-.198 7.014 1.09 2.116 1.287 3.604 3.322 4.19 5.729.585 2.406.199 4.897-1.09 7.013-1.287 2.116-3.321 3.604-5.728 4.19" transform="translate(173 13) translate(116.1)"/>
                                    <path fill="#FFA412" d="M12.086 54.329c-.024-.2-.074-.373-.149-.518-.075-.146-.183-.273-.327-.381-.143-.108-.322-.202-.537-.283-.215-.08-.475-.152-.779-.217-.524-.115-1.002-.244-1.435-.387-.434-.143-.811-.323-1.134-.54-.323-.217-.585-.485-.788-.803-.202-.319-.332-.711-.388-1.178-.05-.404-.022-.782.081-1.133.103-.35.273-.665.51-.945.236-.28.53-.52.883-.72.353-.2.757-.349 1.213-.447l-.185-1.528 1.23-.15.188 1.55c.447.004.861.072 1.241.205.38.132.713.324.998.574.285.25.52.56.701.926.183.367.302.788.36 1.264l-2.221.27c-.07-.572-.248-.984-.536-1.236-.288-.253-.645-.353-1.07-.302-.23.028-.425.084-.584.17-.159.083-.285.188-.38.313-.093.125-.157.267-.19.425-.032.159-.038.326-.017.502.022.176.067.333.135.47.069.136.173.257.313.363.14.107.32.2.541.283.22.081.492.16.813.238.52.125.995.261 1.426.407.431.146.808.328 1.131.547.323.22.586.489.788.807.203.319.332.709.388 1.17.05.42.023.804-.083 1.155-.105.351-.277.664-.514.939-.237.275-.535.51-.893.702-.36.194-.767.34-1.223.438l.173 1.421-1.223.148-.17-1.414c-.432.01-.854-.034-1.268-.128-.415-.095-.792-.258-1.132-.49-.34-.232-.627-.54-.862-.928-.234-.387-.385-.866-.455-1.437l2.222-.27c.041.338.122.615.245.83.122.214.27.38.446.496.175.116.367.19.576.22.21.03.419.032.63.007.24-.03.448-.086.622-.17.175-.084.317-.188.426-.312.11-.125.187-.266.23-.423.043-.157.054-.324.033-.5" transform="translate(173 13) translate(116.1)"/>
                                    <path fill="#FFC31B" d="M53.839 25.454c-.215-5.47 4.045-10.08 9.516-10.295 5.47-.215 10.079 4.046 10.294 9.516.215 5.47-4.045 10.08-9.516 10.295-5.47.215-10.079-4.046-10.294-9.516" transform="translate(173 13) translate(116.1)"/>
                                    <path fill="#FFA412" d="M63.415 16.695c-4.68.184-8.336 4.14-8.153 8.82.184 4.68 4.141 8.337 8.82 8.153 4.68-.184 8.337-4.14 8.153-8.82-.184-4.68-4.14-8.337-8.82-8.153m.688 17.511c-2.41.095-4.713-.755-6.485-2.392-1.771-1.638-2.8-3.867-2.894-6.278-.095-2.41.755-4.714 2.392-6.485 1.638-1.771 3.867-2.8 6.278-2.894 2.41-.095 4.714.755 6.485 2.392 1.772 1.638 2.8 3.867 2.894 6.278.095 2.41-.755 4.713-2.392 6.485-1.638 1.772-3.867 2.8-6.278 2.894" transform="translate(173 13) translate(116.1)"/>
                                    <path fill="#FFA412" d="M65.094 27.752c.016-.196.001-.37-.042-.523-.043-.154-.123-.296-.239-.427-.115-.13-.268-.255-.458-.373s-.424-.237-.702-.358c-.477-.21-.91-.426-1.295-.647-.386-.22-.712-.465-.979-.734-.266-.27-.464-.575-.596-.918-.132-.343-.18-.743-.144-1.2.031-.395.13-.75.296-1.065.166-.315.389-.583.669-.805.28-.221.607-.393.982-.516.376-.122.79-.187 1.245-.193l.118-1.494 1.203.095-.12 1.515c.426.09.808.235 1.146.435.337.2.617.447.841.74.224.295.388.634.491 1.02.103.385.136.81.1 1.276l-2.173-.172c.044-.558-.047-.986-.273-1.283-.226-.296-.548-.46-.963-.494-.226-.017-.423-.001-.59.049-.168.05-.31.125-.423.226-.114.101-.202.224-.264.37-.062.144-.1.303-.113.475-.013.173 0 .33.038.474.04.144.116.28.23.408.112.129.266.253.461.374.195.12.438.249.73.384.472.22.9.441 1.283.664.383.222.708.47.974.74.266.273.465.58.597.923.131.343.18.74.144 1.192-.033.41-.133.772-.302 1.086-.168.315-.392.58-.672.797-.279.217-.609.383-.988.498-.38.116-.797.176-1.252.182l-.11 1.39-1.195-.094.11-1.383c-.413-.075-.808-.197-1.185-.367-.378-.17-.707-.4-.986-.686-.28-.287-.495-.638-.643-1.052-.15-.415-.202-.902-.158-1.46l2.173.172c-.026.33-.002.61.074.838.075.228.185.415.33.56.145.145.314.252.508.321.194.07.393.112.599.128.235.019.444.005.627-.042.183-.046.339-.118.467-.216.129-.097.23-.217.3-.359.073-.142.115-.299.129-.471" transform="translate(173 13) translate(116.1)"/>
                                    <path fill="#FFC31B" d="M39.852 43.038c-.067-3.776 2.94-6.89 6.715-6.957 3.776-.067 6.89 2.94 6.957 6.715.067 3.776-2.94 6.89-6.715 6.957-3.776.067-6.89-2.94-6.957-6.715" transform="translate(173 13) translate(116.1)"/>
                                    <path fill="#FFA412" d="M46.586 37.14c-3.23.058-5.81 2.732-5.754 5.961.057 3.23 2.731 5.81 5.96 5.754 3.23-.058 5.812-2.731 5.755-5.96-.058-3.23-2.732-5.811-5.961-5.754m.214 12.085c-1.664.03-3.24-.59-4.437-1.746-1.197-1.156-1.873-2.709-1.902-4.372-.03-1.664.59-3.24 1.746-4.437 1.156-1.197 2.709-1.872 4.372-1.902 1.664-.03 3.24.59 4.437 1.747 1.197 1.155 1.873 2.708 1.902 4.372.03 1.663-.59 3.239-1.746 4.436-1.156 1.197-2.709 1.873-4.372 1.902" transform="translate(173 13) translate(116.1)"/>
                                    <path fill="#FFA412" d="M47.579 44.79c.013-.134.006-.255-.021-.361-.028-.107-.08-.206-.158-.298s-.182-.18-.311-.264c-.13-.084-.289-.17-.479-.257-.326-.153-.62-.308-.883-.466-.263-.157-.484-.33-.664-.52-.18-.19-.312-.404-.398-.643-.086-.238-.113-.515-.081-.829.027-.272.1-.516.22-.73.12-.215.277-.396.473-.545.196-.149.425-.262.685-.341.26-.08.548-.118.861-.115l.104-1.029.828.083-.105 1.044c.293.068.554.174.784.317.23.143.419.317.57.523.149.206.257.443.322.71.066.267.082.561.05.882l-1.496-.15c.039-.385-.018-.682-.169-.89-.152-.208-.37-.326-.657-.355-.155-.015-.291-.007-.408.025-.116.032-.214.082-.294.15-.08.068-.143.151-.188.25-.045.1-.073.208-.085.327-.012.118-.005.228.02.327.024.1.075.195.151.285.076.09.18.178.313.265.133.086.299.178.498.275.322.16.613.318.875.477.26.16.48.334.66.525.18.192.312.407.398.645.086.239.113.514.081.824-.028.282-.103.53-.224.745-.12.215-.279.394-.475.54-.196.145-.425.255-.689.329-.264.073-.552.109-.866.107l-.096.956-.823-.083.096-.952c-.283-.057-.554-.148-.811-.27-.258-.124-.481-.286-.67-.488-.19-.202-.332-.447-.428-.735-.097-.289-.125-.625-.087-1.01l1.496.151c-.023.228-.01.42.038.58.049.158.122.289.22.39.097.103.213.18.345.23.133.05.27.083.411.097.162.016.307.01.433-.02.127-.029.236-.076.326-.142.09-.065.161-.146.213-.243.051-.097.083-.204.095-.323" transform="translate(173 13) translate(116.1)"/>
                                    <path fill="#FFC31B" d="M11.06 21.933C8.162 13.186 12.905 3.747 21.652.85c8.748-2.896 18.187 1.847 21.083 10.594 2.897 8.748-1.846 18.187-10.594 21.083-8.747 2.897-18.186-1.847-21.083-10.594" transform="translate(173 13) translate(116.1)"/>
                                    <path fill="#FFA412" d="M22.466 3.306c-7.482 2.478-11.553 10.58-9.076 18.063 2.477 7.482 10.58 11.554 18.063 9.076 7.482-2.477 11.554-10.58 9.076-18.062C38.052 4.9 29.95.829 22.466 3.306m9.272 28c-3.855 1.277-7.975.976-11.603-.848-3.629-1.823-6.33-4.95-7.606-8.804-1.276-3.855-.975-7.975.848-11.603s4.95-6.33 8.804-7.606c3.855-1.276 7.976-.975 11.604.848 3.628 1.823 6.329 4.95 7.605 8.805 1.276 3.854.975 7.975-.848 11.603s-4.95 6.329-8.804 7.605" transform="translate(173 13) translate(116.1)"/>
                                    <path fill="#FFA412" d="M30.333 20.406c-.066-.323-.17-.599-.311-.826-.142-.228-.337-.421-.585-.579-.248-.158-.553-.288-.915-.39-.363-.103-.796-.187-1.302-.252-.87-.118-1.67-.266-2.396-.443-.728-.176-1.369-.42-1.925-.731-.556-.312-1.02-.714-1.393-1.208-.373-.493-.637-1.117-.791-1.872-.134-.654-.14-1.275-.018-1.861.122-.587.358-1.124.707-1.613.349-.489.798-.92 1.349-1.293.55-.373 1.19-.67 1.922-.892l-.505-2.472 1.99-.407.512 2.507c.732-.053 1.417.003 2.056.17.638.166 1.207.434 1.706.806.499.371.922.844 1.268 1.42.347.574.599 1.247.756 2.017l-3.594.734c-.189-.924-.535-1.573-1.04-1.947-.503-.374-1.1-.491-1.787-.35-.373.076-.684.193-.932.352-.248.16-.44.347-.578.564-.137.216-.222.456-.255.72-.032.263-.02.537.04.822.057.285.151.535.282.749.13.214.316.398.56.553.243.155.55.285.921.39.372.104.825.198 1.36.28.865.137 1.66.295 2.384.476.723.181 1.364.43 1.92.745.557.315 1.022.72 1.395 1.213.373.494.635 1.114.788 1.86.139.678.145 1.31.019 1.898-.126.588-.365 1.121-.715 1.602-.351.481-.807.903-1.367 1.267-.56.363-1.207.655-1.94.877l.47 2.299-1.976.404-.468-2.287c-.702.072-1.398.057-2.088-.042-.69-.1-1.328-.316-1.914-.65-.586-.333-1.096-.8-1.53-1.402-.434-.601-.745-1.364-.934-2.288l3.593-.735c.112.547.282.988.51 1.322.228.334.493.585.795.752.302.167.626.262.971.283.346.022.689-.003 1.029-.072.39-.08.72-.2.995-.36.274-.16.492-.349.655-.567.162-.218.269-.458.319-.721.05-.263.045-.537-.013-.822" transform="translate(173 13) translate(116.1)"/>
                                </g>
                            </g>
                        </g>
                        <g mask="url(#89sdv4tecc)">
                            <g>
                                <g fill-rule="nonzero">
                                    <path fill="#DDD" d="M102.64.165c1.753.001 3.422.756 4.58 2.074 1.158 1.317 1.693 3.069 1.47 4.808l-5.966 46.134c-2.136 16.513-16.196 28.876-32.847 28.88H3.546c-1.871 0-3.388-1.516-3.388-3.387v-.043c.006-1.673 1.227-3.094 2.88-3.354 14.223-2.33 35.883-8.81 38.07-28.444l5.345-41.347c.393-3.04 2.983-5.316 6.05-5.317l50.137-.004z" transform="translate(7 15) translate(132.3 113.4)"/>
                                    <path fill="#EEE" d="M108.69 7.047l-5.966 46.134c-2.136 16.513-16.196 28.876-32.847 28.88H3.547c-1.871 0-3.388-1.516-3.388-3.387v-.043c0-.534.126-1.06.37-1.535.56 1.077 1.674 1.752 2.889 1.751h64.13c15.997-.001 29.508-11.875 31.564-27.739l5.728-44.332c.216-1.671-.298-3.355-1.411-4.62-1.113-1.266-2.717-1.99-4.402-1.99h3.612c1.755 0 3.424.754 4.582 2.072 1.158 1.317 1.693 3.07 1.468 4.809z" transform="translate(7 15) translate(132.3 113.4)"/>
                                </g>
                                <g>
                                    <g>
                                        <g>
                                            <path fill="#3F4D90" fill-rule="nonzero" d="M120.274 0s9.529 17.17 5.796 29.387c-3.734 12.216-25.781 10.19-25.781 10.19s7.04 27.228-3.259 84.576c0 0-8.125 4.35-21.996 1.45 0 0-2.071-26.707-11.691-85.714l-17.484-.036s2.674 43.017-26.422 83.072c0 0-9.193 2.389-19.337-4.235 0 0 12.821-58.362 15.002-94.176C15.737 13.967 33.005 4.675 72.16.02c0-.002 35.377 2.13 48.114-.019z" transform="translate(7 15) translate(52.5) translate(6.776 143.99) translate(18.21)"/>
                                            <path stroke="#FFF" stroke-linecap="round" stroke-width=".635" d="M62.915 40.743c-.73-4.14-4.658-22.4 19.157-28.197" transform="translate(7 15) translate(52.5) translate(6.776 143.99) translate(18.21)"/>
                                        </g>
                                    </g>
                                    <g fill-rule="nonzero">
                                        <path fill="#FFEEDF" d="M84.099 41.715c-9.173 13.603-50.107 7.8-60.76 6.033-.902.94-2.117 1.929-3.348 2.18-2.52.51-10.143-.152-11.155.636 0 0-.44-2.075 2.003-3.176 1.694-.759 4.593-.149 3.528-1.237-.724-.741-2.507-.58-6.297.6-1.425.444-6.634 2.951-7.985-.456l5.12-4.87c3.405-1.88 5.186-4.013 12.626-2.302.985.243 2.012.254 3.001.032 2.401-1.072 23.009-9.698 41.55-12.705L66.44.02c6.748 6.165 18.606 11.484 19.422 11.844 0 .034 2.13 24.087-1.764 29.85z" transform="translate(7 15) translate(52.5) translate(0 87.876)"/>
                                        <path fill="#FFD6B2" d="M86.244 17.76c-4.09-1.817-14.264-6.821-20.292-14.516L66.44.055c6.748 6.164 18.606 11.483 19.422 11.843 0 0 .213 2.397.38 5.861z" transform="translate(7 15) translate(52.5) translate(0 87.876)"/>
                                    </g>
                                    <g>
                                        <path fill="#FFF" fill-rule="nonzero" d="M71.502.138c1.435 1.435 10.759 8.497 30.329 20.067 3.523 2.084 13.6 11.793 12.986 32.381 0 0-7.456 7.166-26.308 11.161 0 0-4.213 30.456-4.52 38.448-.308 7.991-48.044 4.447-50.094 1.385-2.05-3.062-10.139-30.704-10.24-44.017 0 0-20.083-8.817-23.566-17.116 0 0 8.4-19.462 14.037-22.945C20.838 15.354 38.96 9.762 49.948.745L71.502.138z" transform="translate(7 15) translate(52.5) translate(62.255 40.233)"/>
                                        <path stroke="#FFF" stroke-linecap="round" stroke-width=".762" d="M87.908 63.347L86.504 47.301M23.252 58.76s-.967-9.452 1.906-19.571" transform="translate(7 15) translate(52.5) translate(62.255 40.233)"/>
                                        <g fill-rule="nonzero">
                                            <path fill="#FFB000" d="M10.674 38.274c3.092 17.982 10.895 43.62-2.149 51.455 0 0 3.007-6.973-4.154-23.345-10.031-22.93.758-50.17 3.271-55.951l-3.68-4.828L9.328.169l1.545.244 4.909 5.863-5.358 5.322c-.514 1.56-2.574 10.244.25 26.676z" transform="translate(7 15) translate(52.5) translate(62.255 40.233) translate(42.35 4.447)"/>
                                            <path fill="#FFF" d="M12.053 2.427L6.079 8.394l-.49-.635 5.896-5.893c.16-.147.406-.142.558.011.153.153.157.4.01.558v-.008zM14.058 4.834L7.07 11.822c.212-.546.424-1.008.583-1.383l-.144-.188L13.5 4.263c.16-.138.399-.13.548.02.149.148.158.387.02.547l-.01.004zM10.36 11.811c-.096.322-.224.82-.359 1.493L4.548 18.75c.187-.585.373-1.15.56-1.694l5.253-5.245zM9.44 17.334c-.036.385-.068.794-.095 1.22l-6.592 6.49c.127-.513.258-1.017.39-1.51l6.297-6.2zM9.224 23.492l-7.774 7.66c.081-.463.168-.923.257-1.378l7.51-7.411c0 .373 0 .745.007 1.129zM9.461 28.675L.567 37.416c.041-.423.087-.843.138-1.26l8.682-8.533c.021.345.046.694.074 1.052zM9.97 33.592L.196 43.197c0-.39.023-.775.036-1.16l9.611-9.449c.038.333.08.657.125 1.004zM10.731 38.606L.294 48.732c-.023-.356-.04-.71-.055-1.059l10.332-10.022c.031.212.067.424.103.636.017.097.038.207.057.32zM11.682 43.688L.883 54.172c-.053-.326-.1-.652-.144-.978l10.767-10.446c.053.311.113.625.176.94zM12.705 48.868L1.929 59.322c-.08-.299-.155-.6-.227-.898l10.815-10.49c.07.309.13.622.188.934zM13.72 54.085L3.43 64.067c-.103-.275-.211-.55-.3-.826L13.552 53.15c.049.307.11.623.167.936zM14.691 59.728l-9.317 9.044c-.106-.265-.212-.53-.326-.8l9.497-9.211c.047.317.095.645.146.967zM15.413 65.194L7.017 73.34c-.089-.28-.182-.564-.277-.847l8.563-8.305c.04.334.076.671.11 1.006zM15.81 71.025l-7.465 7.24c-.066-.299-.133-.604-.212-.915l7.638-7.411c.017.362.03.728.038 1.086zM15.67 75.857c-.036.424-.081.835-.13 1.245l-6.456 6.262c-.023-.33-.05-.671-.089-1.03l6.675-6.477z" transform="translate(7 15) translate(52.5) translate(62.255 40.233) translate(42.35 4.447)"/>
                                        </g>
                                        <path stroke="#FFF" stroke-linecap="round" stroke-width=".762" d="M39.36 7.32c2.67 2.099 5.751 4.25 5.751 4.25l7.308-7.301 7.557 8.578c12.347-1.076 18.111-8.01 18.111-8.01" transform="translate(7 15) translate(52.5) translate(62.255 40.233)"/>
                                    </g>
                                    <g fill-rule="nonzero">
                                        <path fill="#FFEEDF" d="M84.192.152s1.33 29.027-2.554 33.762c-11.99 14.61-63.3 5.586-63.3 5.586l-.202-7.591s22.06-7.907 41.783-11.1l1.338-11.916S75.527 6.06 84.192.153z" transform="translate(7 15) translate(52.5) translate(89.106 95.287)"/>
                                        <path fill="#FFD6B2" d="M84.387 7.44c-7.371 3.774-18.956 4.045-23.278 3.929l.148-2.476S75.527 6.06 84.192.153c0 0 .137 3.023.195 7.288z" transform="translate(7 15) translate(52.5) translate(89.106 95.287)"/>
                                        <g>
                                            <path fill="#FFEEDF" d="M18.13 4.747S11.297-.699 8.108.252c-3.189.95-3.6 5.008-3.983 6.043-.383 1.036-.72 4.744-.712 5.879.009 1.134 3.208 1.694 4.483 1.694 1.275 0 9.628.099 11.238-.344 1.61-.442-1.004-8.777-1.004-8.777z" transform="translate(7 15) translate(52.5) translate(89.106 95.287) translate(.766 26.469)"/>
                                            <path fill="#FFD6B2" d="M1.041 13.524C-.357 11.83.073 8.836.374 7.693.63 6.71 4.921 1.205 8.108.252c0 0-3.89 7.102-.212 13.618-1.27 0-6.15.504-6.855-.346z" transform="translate(7 15) translate(52.5) translate(89.106 95.287) translate(.766 26.469)"/>
                                        </g>
                                    </g>
                                    <g>
                                        <path fill="#FFEEDF" fill-rule="nonzero" d="M27.466 29.1s-2.964 5.835 0 11.27c.983 1.8-22.356.765-22.356.765L8.102 29.1h19.364z" transform="translate(7 15) translate(52.5) translate(106.29)"/>
                                        <path fill="#FFEEDF" fill-rule="nonzero" d="M6.042 11.05c-.356 3.084-.602 10.337-4.077 18.171-3.474 7.835 10.35 7.647 13.927 6.654 3.64-1.01 5.9-3.877 5.9-3.877s7.248-1.906 7.243-4.87c0-2.294-3.676-1.189-3.676-1.189s2.04-15.381-1.636-16.177C20.047 8.965 6.45 7.487 6.042 11.049z" transform="translate(7 15) translate(52.5) translate(106.29)"/>
                                        <g>
                                            <path fill="#292929" fill-rule="nonzero" d="M25.167 26.325c-1.27.584-4.394-2.819-2.776-6.564 1.935-4.47 2.528-8.286-.909-9.038-3.436-.752-6.776 3.278-13.825 1.292C.608 10.028 1.68 1.192 7.737.498c6.059-.695 6.853 3.868 7.835 3.968.983.1 7.657-2.884 11.386.989 3.096 3.216 2 5.177 2.844 5.376.845.2 3.748 1.38 3.549 4.46-.2 3.078-5.11 10.636-5.11 10.636s-1.141-.496-3.074.398z" transform="translate(7 15) translate(52.5) translate(106.29)"/>
                                            <path stroke="#292929" stroke-width=".635" d="M19.475 10.33c-3.538.709-6.973 4.28-14.024 2.295C-1.601 10.638-.53.798 5.529.104M28.61 10.827c.785-.37 3.792-1.254 5.556 1.27" transform="translate(7 15) translate(52.5) translate(106.29)"/>
                                        </g>
                                    </g>
                                </g>
                                <g>
                                    <path fill="#DDD" fill-rule="nonzero" d="M132.097 71.887H27.468c-1.29 0-2.345-1.162-2.345-2.598L12.893 2.738c0-1.436 1.054-2.598 2.348-2.598h104.631c1.297 0 2.35 1.162 2.35 2.598l12.23 66.55c-.004 1.437-1.056 2.599-2.355 2.599z" transform="translate(7 15) translate(0 39.9)"/>
                                    <path fill="#F3F3F3" fill-rule="nonzero" d="M129.54 71.887H27.315c-1.248 0-2.258-1.118-2.258-2.499L13.299 5.404c0-1.38 1.012-2.499 2.26-2.499h102.225c1.249 0 2.261 1.118 2.261 2.499L131.8 69.388c0 1.381-1.012 2.499-2.258 2.499z" transform="translate(7 15) translate(0 39.9)"/>
                                    <path fill="#A9A9A9" fill-rule="nonzero" d="M79.825 49.81L85.474 71.273 79.825 71.273z" transform="translate(7 15) translate(0 39.9)"/>
                                    <path fill="#DDD" fill-rule="nonzero" d="M111.618 92.717L111.618 95.268 74.89 86.305 38.157 95.268 38.157 92.717 71.044 82.015 71.044 50.422 79.213 50.422 79.213 82.172z" transform="translate(7 15) translate(0 39.9)"/>
                                    <path fill="#FFF" fill-rule="nonzero" d="M37.75 95.472H163.47c1.069 0 2.094.428 2.849 1.187.755.76 1.178 1.79 1.176 2.863v1.06c0 2.232-1.802 4.042-4.025 4.042H37.814l-.064-9.152z" transform="translate(7 15) translate(0 39.9)"/>
                                    <path fill="#EEE" d="M.63 95.472h162.839c1.069 0 2.094.428 2.849 1.187.755.76 1.177 1.79 1.177 2.863v1.06c0 2.232-1.803 4.042-4.026 4.042H.693" transform="translate(7 15) translate(0 39.9)"/>
                                    <path fill="#FFF" fill-rule="nonzero" d="M132.097 246.456L132.097 104.78 140.867 104.78 140.867 246.445z" transform="translate(7 15) translate(0 39.9)"/>
                                    <path d="M132.097 246.456L132.097 104.78 140.867 104.78 140.867 246.502" transform="translate(7 15) translate(0 39.9)"/>
                                    <path fill="#DDD" fill-rule="nonzero" d="M132.097 107.59L132.097 104.78 140.867 104.78 140.867 114.546z" transform="translate(7 15) translate(0 39.9)"/>
                                </g>
                            </g>
                        </g>
                    </g>
                </g>
            </g>
        </g>
    </g>
</svg>
