<?xml version="1.0" encoding="utf-8"?>
<!-- Generator: Adobe Illustrator 24.0.2, SVG Export Plug-In . SVG Version: 6.00 Build 0)  -->
<svg version="1.1" id="圖層_1" xmlns="http://www.w3.org/2000/svg" xmlns:xlink="http://www.w3.org/1999/xlink" x="0px" y="0px"
	 viewBox="0 0 180 100" style="enable-background:new 0 0 180 100;" xml:space="preserve">
<style type="text/css">
	.st0{fill-rule:evenodd;clip-rule:evenodd;fill:#FFFFFE;}
	.st1{fill-rule:evenodd;clip-rule:evenodd;fill:#F3F3F3;fill-opacity:0.259;}
	.st2{fill-rule:evenodd;clip-rule:evenodd;fill:#FFC31B;}
	.st3{fill-rule:evenodd;clip-rule:evenodd;fill:#FFFFFF;stroke:#FFFFFF;stroke-width:0.55;}
	.st4{fill-rule:evenodd;clip-rule:evenodd;fill:#132529;}
	.st5{fill-rule:evenodd;clip-rule:evenodd;fill:#FFFFFF;fill-opacity:0.4;}
	.st6{fill-rule:evenodd;clip-rule:evenodd;fill:#00AFB8;stroke:#00AFB8;stroke-width:0.605;}
	.st7{fill:none;}
</style>
<g>
	<g>
		<g>
			<g>
				<g>
					<g>
						<g>
							<path class="st0" d="M115.1,96.7c-0.1,0-0.1,0-0.2,0c-1.6-0.2-2.6-2.2-1.9-3.6l0.5-0.6c0.4-0.4,1-0.6,1.5-0.6
								c1,0,2.1,0.6,2.4,1.6C117.9,95,116.6,96.7,115.1,96.7 M115,92.2c-0.5,0-1,0.2-1.4,0.5l-0.4,0.6c-0.7,1.3,0.3,3.2,1.7,3.3
								c0.1,0,0.1,0,0.2,0c1.4,0,2.6-1.6,2.2-3C116.9,92.7,116,92.2,115,92.2"/>
							<path class="st1" d="M132.8,91.3c-1.1-3.2-5.8-4.4-8.2-2.1l-1,1.2c-1.7,2.9,0.6,7.2,3.9,7.6
								C130.8,98.3,133.8,94.5,132.8,91.3"/>
							<path class="st0" d="M121.8,87.8c-0.1,0-0.2,0-0.3,0c-2.6-0.3-4.4-3.6-3.1-5.9l0.8-1c0.7-0.6,1.6-0.9,2.5-0.9
								c1.7,0,3.4,1,3.9,2.6C126.5,84.9,124.3,87.8,121.8,87.8 M121.7,80.1c-0.9,0-1.8,0.3-2.4,0.9l-0.8,0.9c-1.3,2.2,0.4,5.5,3,5.7
								c0.1,0,0.2,0,0.3,0c2.4,0,4.5-2.7,3.7-5.1C125,81,123.3,80.1,121.7,80.1"/>
							<path class="st1" d="M72.7,84.8c-4.7,2.6-10.3,3.8-15.9,3.8c-5.5,0-10.9-1.2-15.6-3.7C31.8,80.1,26.1,70.4,27.1,61
								c1-9.4,8.8-18,19.1-21.4C45.8,32.4,50,25,57,20.9c4.2-2.5,9.3-3.8,14.5-3.8c3.4,0,6.7,0.6,9.8,1.7c3.9-5.9,11.8-9.6,19.2-9.6
								c2.7,0,5.4,0.5,7.8,1.6c3.3-1.2,6.8-1.8,10.4-1.8c6.5,0,13,1.9,17.9,5.6c7.6,5.6,10.9,15.1,8.3,23.4
								c-0.6,1.7-1.3,3.5-0.8,5.2c0.4,1.4,1.7,2.5,2.8,3.6c6.9,7,8.3,17.8,2.5,25.4c-4,5.3-11.5,8.6-18.8,8.6c-3.2,0-6.4-0.6-9.2-2
								c-3.9,8.5-12.3,15.9-22.8,17.7c-1.5,0.3-3,0.4-4.5,0.4C84.9,97,75.5,92.3,72.7,84.8L72.7,84.8z"/>
							<g>
								<path class="st2" d="M117.1,42.8c0-13.7-11.1-24.8-24.8-24.8c-13.7,0-24.8,11.1-24.8,24.8c0,9.9,5.8,18.5,14.2,22.5v6.3
									h21.8c0,0,0.1-3.5,0.2-6.7C111.6,60.8,117.1,52.4,117.1,42.8"/>
								<path class="st3" d="M95.5,71.4c0,0,0-0.1,0-0.3l0.1-0.9c0.1-0.8,0.2-1.9,0.5-3.4c0.2-1.5,0.5-3.3,1-5.4
									c0.5-2.1,1.1-4.4,2.3-6.9c0.6-1.2,1.2-2.5,2-3.7c0.4-0.6,1-1.2,1.7-1.5c0.7-0.3,1.6-0.3,2.4,0.1c0.4,0.2,0.7,0.6,0.8,1
									c0.1,0.4,0.1,0.9-0.1,1.3c-0.4,0.8-1.1,1.3-1.9,1.7c-1.6,0.6-3.5,0.4-5.2-0.4c-1.6-0.8-2.9-2.3-3.5-4.1
									c-0.3-0.9-0.4-1.9-0.1-2.9c0.2-1,1.2-1.8,2.3-1.7c0.5,0,1,0.4,1.3,0.9c0.2,0.5,0.3,1,0.2,1.5c-0.2,1-1,1.8-1.7,2.5
									c-1.6,1.3-3.7,2-5.8,1.7c-2.1-0.3-3.9-1.7-4.8-3.6c-0.5-0.9-0.6-2-0.2-3c0.2-0.5,0.6-0.9,1.1-1.1c0.5-0.2,1.1-0.1,1.5,0.1
									c0.5,0.2,0.8,0.6,1,1.1c0.2,0.5,0.3,0.9,0.4,1.4c0.1,1-0.1,1.9-0.4,2.8c-0.6,1.8-1.9,3.3-3.5,4.2c-1.6,0.9-3.5,1.1-5.1,0.7
									c-0.8-0.2-1.7-0.5-2.2-1.2c-0.5-0.7-0.7-1.7-0.1-2.4c0.3-0.3,0.7-0.5,1.1-0.5c0.4,0,0.8,0.1,1.2,0.2c0.7,0.4,1.2,1,1.5,1.7
									c0.6,1.3,1.1,2.7,1.6,3.9c2,5,3.4,9.1,4.3,12c0.5,1.4,0.8,2.5,1.1,3.3l0.3,0.9c0.1,0.2,0.1,0.3,0.1,0.3s0-0.1-0.1-0.3
									l-0.3-0.9L89,67.1c-1-2.8-2.4-7-4.4-11.9c-0.5-1.2-1-2.6-1.6-3.9c-0.3-0.6-0.8-1.3-1.4-1.6c-0.6-0.3-1.5-0.3-2,0.3
									c-0.5,0.6-0.3,1.5,0.1,2.1c0.5,0.6,1.3,0.9,2.1,1.1c1.6,0.4,3.4,0.1,4.9-0.7c1.5-0.8,2.8-2.3,3.4-4c0.3-0.9,0.4-1.8,0.4-2.7
									c-0.1-0.9-0.4-1.9-1.3-2.3c-0.4-0.2-0.9-0.3-1.3-0.1c-0.4,0.1-0.7,0.5-0.9,0.9c-0.3,0.9-0.3,1.9,0.2,2.8
									c0.8,1.8,2.6,3.1,4.6,3.4c2,0.3,4-0.4,5.5-1.6c0.7-0.6,1.4-1.4,1.6-2.3c0.1-0.4,0-0.9-0.2-1.3c-0.2-0.4-0.6-0.7-1-0.7
									c-0.4,0-0.9,0.1-1.2,0.4c-0.3,0.3-0.6,0.7-0.7,1.1c-0.2,0.9-0.1,1.8,0.1,2.7c0.5,1.7,1.8,3.2,3.3,4c1.6,0.8,3.4,0.9,4.9,0.4
									c0.8-0.3,1.4-0.8,1.8-1.5c0.4-0.7,0.1-1.6-0.6-1.9c-0.6-0.4-1.5-0.4-2.1-0.1c-0.7,0.3-1.2,0.9-1.6,1.4
									c-0.8,1.2-1.5,2.5-2,3.7c-1.1,2.4-1.8,4.8-2.3,6.9c-0.5,2.1-0.8,3.9-1,5.4l-0.5,3.4l-0.1,0.9C95.6,71.3,95.5,71.4,95.5,71.4
									"/>
								<path class="st4" d="M102,75.6H82.8c-0.6,0-1.2-0.5-1.2-1.2v-0.5c0-0.6,0.5-1.2,1.2-1.2H102c0.6,0,1.2,0.5,1.2,1.2v0.5
									C103.1,75.1,102.6,75.6,102,75.6 M101.7,76.8H83.1c-0.8,0-1.4,0.6-1.4,1.4c0,0.8,0.6,1.4,1.4,1.4h2l2.7,5.2
									c0.3,0.6,0.9,1,1.6,1h6.7c0.7,0,1.3-0.4,1.6-1l2.6-5.2h1.4c0.8,0,1.4-0.6,1.4-1.4C103.1,77.4,102.5,76.8,101.7,76.8"/>
								<path class="st5" d="M73.6,50.8c-0.2,0-0.6-0.4-1.1-1.1c-0.5-0.8-1.1-2-1.6-3.6c-0.5-1.6-0.8-3.7-0.7-5.9
									c0.1-2.3,0.6-4.8,1.7-7.2c1.1-2.4,2.7-4.4,4.4-6c1.7-1.5,3.4-2.6,5-3.3c1.6-0.7,2.9-1,3.8-1.1c0.3,0,0.5,0,0.7,0
									c0.5,0,0.8,0.1,0.8,0.2c0.1,0.5-1.8,1.1-4.3,2.8c-2.5,1.7-5.7,4.6-7.6,8.7c-1.9,4.1-2.1,8.4-1.7,11.4
									C73.3,48.7,74,50.5,73.6,50.8C73.6,50.8,73.6,50.8,73.6,50.8 M92.6,23.9L92.6,23.9c-1.6,0-3-0.4-3.1-1.3
									c-0.1-0.4,0.2-0.9,0.8-1.2c0.6-0.3,1.4-0.6,2.3-0.6h0c0.9,0,1.8,0.2,2.3,0.6c0.6,0.4,0.9,0.8,0.8,1.2
									C95.5,23.4,94.1,23.9,92.6,23.9"/>
								<path class="st6" d="M67.8,48.8c0,0-0.2,0.1-0.5,0.2l-1.4,0.6c-1.2,0.5-3.1,1.3-5.4,2.4c-2.3,1.1-5.1,2.4-8.3,4.1
									c-3.2,1.7-6.8,3.8-10.4,6.5c-0.9,0.7-1.8,1.4-2.6,2.3c-0.4,0.4-0.8,0.9-1.1,1.4c-0.3,0.5-0.7,1-0.8,1.6
									c-0.1,0.6,0.1,1.2,0.4,1.7c0.4,0.5,0.9,0.9,1.4,1.2c1.1,0.6,2.4,1,3.7,1.2c2.6,0.5,5.4,0.6,8.3,0.6c2.9,0,5.8-0.2,8.8-0.5
									c12-1.1,25-3.7,38.5-7.3c13.4-3.6,26-7.9,37-13c2.7-1.3,5.4-2.6,7.8-4c2.5-1.4,4.8-2.9,6.8-4.7c1-0.9,1.9-1.8,2.5-3
									c0.3-0.6,0.5-1.2,0.5-1.8c0-0.6-0.3-1.2-0.7-1.6c-0.9-0.9-2.1-1.3-3.2-1.5c-1.1-0.3-2.3-0.5-3.4-0.6
									c-2.3-0.2-4.4-0.2-6.5-0.2c-2.1,0-4,0.1-5.8,0.3c-3.6,0.3-6.7,0.6-9.2,0.9c-2.5,0.3-4.5,0.6-5.8,0.8l-1.5,0.2
									c-0.3,0-0.5,0.1-0.5,0.1s0.2,0,0.5-0.1l1.5-0.3c1.3-0.2,3.3-0.5,5.8-0.8c2.5-0.3,5.6-0.7,9.2-1c1.8-0.1,3.7-0.3,5.8-0.3
									c2.1,0,4.2,0,6.5,0.2c1.1,0.1,2.3,0.3,3.5,0.6c1.2,0.3,2.4,0.7,3.3,1.6c0.5,0.5,0.7,1.1,0.7,1.8c0,0.7-0.2,1.3-0.5,1.9
									c-0.6,1.2-1.6,2.1-2.6,3c-2,1.8-4.4,3.3-6.8,4.7c-2.5,1.4-5.1,2.8-7.8,4c-11,5.1-23.6,9.4-37,13
									c-13.4,3.6-26.5,6.2-38.5,7.3c-3,0.3-5.9,0.4-8.8,0.4c-2.9,0-5.6-0.1-8.3-0.6C41.5,72,40.2,71.6,39,71
									c-0.6-0.3-1.1-0.7-1.5-1.3c-0.2-0.3-0.3-0.6-0.4-0.9c0-0.2-0.1-0.3-0.1-0.5c0-0.2,0-0.3,0-0.5c0.1-0.6,0.5-1.2,0.8-1.7
									c0.3-0.5,0.8-1,1.2-1.4c0.8-0.9,1.7-1.6,2.6-2.3c3.6-2.8,7.3-4.8,10.5-6.5c3.2-1.7,6-3,8.3-4.1c2.3-1,4.2-1.8,5.4-2.3
									l1.4-0.6C67.6,48.8,67.8,48.8,67.8,48.8"/>
								<path class="st6" d="M80.7,20.4c0,0-0.1,0-0.4,0c-0.3,0-0.7,0-1.2,0l-4.5-0.1c-3.9,0-9.6-0.3-16.6,0.5
									c-1.7,0.2-3.6,0.5-5.4,1c-0.9,0.2-1.8,0.5-2.7,1c-0.4,0.2-0.9,0.5-1.3,0.8c-0.4,0.3-0.7,0.7-0.9,1.1c-0.2,0.5-0.1,1,0.1,1.4
									c0.2,0.5,0.5,0.9,0.9,1.2c0.7,0.7,1.6,1.4,2.6,1.9c1.9,1.1,4,2,6.1,2.8c4.3,1.6,9,2.9,14,4c4.9,1.1,10.1,2,15.3,2.8
									c10.6,1.5,20.8,2.2,30.1,2c4.6-0.1,9-0.5,13-1.5c1-0.3,1.9-0.6,2.8-1.1c0.4-0.2,0.8-0.5,1.2-0.8c0.3-0.3,0.6-0.7,0.6-1.2
									c0.1-0.4-0.1-0.9-0.3-1.3c-0.2-0.4-0.6-0.7-0.9-1c-0.7-0.6-1.4-1.1-2.2-1.6c-3-1.8-6-2.9-8.6-3.8c-2.6-0.9-4.9-1.6-6.8-2.2
									c-1.9-0.5-3.4-0.9-4.4-1.2l-1.1-0.3c-0.3-0.1-0.4-0.1-0.4-0.1s0.1,0,0.4,0.1l1.1,0.3c1,0.2,2.5,0.6,4.4,1.1
									c1.9,0.5,4.2,1.2,6.8,2.1c2.6,0.9,5.6,2,8.7,3.8c0.8,0.5,1.5,1,2.2,1.6c0.3,0.3,0.7,0.7,0.9,1.1c0.3,0.4,0.4,0.9,0.4,1.4
									c-0.1,0.5-0.4,1-0.7,1.3c-0.4,0.3-0.8,0.7-1.2,0.9c-0.9,0.5-1.9,0.8-2.8,1.1c-4,1.1-8.4,1.4-13.1,1.6
									c-9.3,0.3-19.5-0.5-30.1-2c-5.3-0.8-10.5-1.7-15.4-2.8c-4.9-1.1-9.6-2.4-14-4c-2.2-0.8-4.3-1.7-6.2-2.8
									c-1-0.6-1.9-1.2-2.6-1.9c-0.4-0.4-0.7-0.8-0.9-1.3c-0.2-0.5-0.3-1.1-0.1-1.6c0.2-0.5,0.6-0.9,1-1.2c0.4-0.3,0.9-0.6,1.3-0.8
									c0.9-0.4,1.8-0.7,2.8-1c1.9-0.5,3.7-0.8,5.4-1c7-0.8,12.7-0.5,16.6-0.4l4.5,0.1l1.2,0C80.5,20.4,80.7,20.4,80.7,20.4"/>
							</g>
						</g>
						<path class="st2" d="M28.4,19.8l4.5,1.7l-4.8,0.9L26.5,27l-0.9-4.8L21,20.5l4.8-0.9l1.7-4.5L28.4,19.8z"/>
						<path class="st2" d="M141.4,72.8l4.5,1.7l-4.8,0.9l-1.7,4.5l-0.9-4.8l-4.5-1.7l4.8-0.9l1.7-4.5L141.4,72.8z"/>
					</g>
				</g>
			</g>
		</g>
	</g>
	<rect class="st7" width="180" height="100"/>
</g>
</svg>
