<svg xmlns="http://www.w3.org/2000/svg" width="60" height="60" viewBox="0 0 60 60">
    <defs>
        <radialGradient id="prefix__a" cx="50%" cy="25.171%" r="95.709%" fx="50%" fy="25.171%" gradientTransform="scale(-.92502 -1) rotate(-89.396 -.275 .526)">
            <stop offset="0%" stop-color="#C48B65"/>
            <stop offset="100%" stop-color="#B26937"/>
        </radialGradient>
        <radialGradient id="prefix__b" cx="53.518%" cy="75.934%" r="65.592%" fx="53.518%" fy="75.934%" gradientTransform="matrix(.87459 0 0 1 .067 0)">
            <stop offset="0%" stop-color="#FFE4CA"/>
            <stop offset="100%" stop-color="#FFD6B1"/>
        </radialGradient>
    </defs>
    <g fill="none" fill-rule="evenodd">
        <path fill="#FFC31B" fill-opacity=".2" d="M60 30c0 7.79-2.98 14.89-7.86 20.23-1.32 1.46-2.79 2.79-4.39 3.95-4.77 3.52-10.62 5.65-16.97 5.8-.1.01-.21.01-.32.01-.1.01-.2.01-.31.01H30c-1.15 0-2.29-.07-3.41-.2-.12 0-.23-.02-.34-.04-.12-.01-.23-.02-.34-.05-5.4-.72-10.33-2.89-14.41-6.11-1.58-1.22-3.03-2.61-4.32-4.14C2.7 44.22 0 37.43 0 30 0 13.44 13.43 0 30 0c2.13 0 4.21.22 6.22.65.08.01.17.03.25.06.1.01.19.03.28.06 2.59.59 5.04 1.51 7.32 2.73.24.12.47.25.7.39.05.02.09.04.14.08C53.93 9.14 60 18.86 60 30"/>
        <path fill="#FAD8E7" d="M11.954 47.541c0 .238-.193.432-.432.432-.237 0-.43-.194-.43-.432s.193-.43.43-.43c.239 0 .432.192.432.43"/>
        <path fill="url(#prefix__a)" d="M32.829.611l-.468.099-7.551 1.58-.16.031-.17.039-.49.1h-.009l-.661.14-.191.039-.219.052-.161.028-.36.081h-.019l-.41.09-.2.04-1.68.35-.17.041-.17.029-4.23.89-.44.091-5.91 1.24c-.01-.011-.02 0-.03.01L7.9 5.83h-.01l-.54.121-4.301.899c-.289.749-.379 2.32-.369 4.091v.009c0 .18.01.36.01.55 0 .13 0 .27.01.4.07 2.91.359 6.05.439 6.88-.009.01-.009.02 0 .03-.009.01-.009.02 0 .03.011.089.021.151.021.151-.01.039-.021.069-.03.109-.019.07-.04.13-.06.2-.011.021-.011.03-.011.05-.54 1.84-1.019 3.7-1.549 5.551C1.04 26.56.68 28.26.4 29.97c-.08.5-.16.99-.221 1.49C1.47 32.99 2.92 34.38 4.5 35.6c4.08 3.22 9.009 5.39 14.41 6.11.109.031.22.04.339.05.111.02.221.04.341.04 1.12.13 2.26.2 3.41.2h.15c.11 0 .211 0 .31-.01.11 0 .219 0 .32-.011 6.35-.149 12.2-2.278 16.969-5.799 1.601-1.16 3.071-2.49 4.391-3.95-.09-.739-.2-1.49-.32-2.23-.28-1.71-.641-3.41-1.11-5.08-.56-1.96-.941-3.55-1.52-5.51 0-.01 0-.03.01-.04.09-.45.99-5.04.479-7.47-.019-.13-.049-.25-.08-.36-.029-.09-.059-.18-.089-.26-.121-.3-1.18-1.58-2.541-3.169V8.1c-.609-.7-1.259-1.47-1.92-2.239-.08-.091-.16-.181-.229-.28C35.75 3.151 33.78.8 33.78.41l-.951.201z" transform="translate(7 18)"/>
        <path fill="url(#prefix__b)" d="M9.36.49c-3.2.98-5.08 5.181-5.981 8.16-1.16 3.87-1.869 7.93-2.369 11.98-.19 1.58-.35 3.15-.491 4.71-.01.09-.019.17-.019.26 4.08 3.22 9.009 5.39 14.41 6.11.109.031.22.04.339.05.111.02.221.04.341.04 1.12.13 2.26.2 3.41.2h.15c.11 0 .211 0 .31-.01.11 0 .219 0 .32-.011 6.35-.149 12.2-2.278 16.969-5.799-.009-.279-.039-.55-.059-.819-.13-1.561-.29-3.131-.48-4.711-.5-4.05-1.21-8.11-2.36-11.98-.89-2.98-2.78-7.18-5.97-8.17-1.84-.571-3.67.15-4.73 1.8-.67 1.04-1.02 2.271-1.29 3.49-.16.73-.29 1.55-.551 2.281 0 .019-.01.039-.019.069-.05.141-.1.28-.16.41-.04.1-.09.2-.149.299-.041.08-.091.152-.142.222-.099.149-.209.279-.339.389-.059.06-.121.12-.191.151-.019.028-.039.049-.069.059-.021.021-.05.031-.07.04-.04.04-.09.071-.14.08-.04.03-.07.05-.111.06-.09.04-.17.08-.259.1-.141.04-.28.069-.441.09-.069.01-.129.02-.189.02-.13.011-.53-.01-.53-.01s-.111.01-.22.01h-.08c-.05-.01-.1-.01-.141-.02-.199-.021-.38-.06-.55-.12-.039-.01-.059-.02-.059-.02-.101-.03-.19-.07-.28-.13-.18-.1-.33-.221-.47-.35-.08-.07-.14-.14-.201-.22-.24-.31-.419-.68-.558-1.08-.271-.74-.401-1.59-.571-2.34-.26-1.22-.62-2.44-1.29-3.49-.819-1.274-2.089-1.993-3.472-1.993-.409 0-.828.063-1.248.193" transform="translate(11 28)"/>
        <g>
            <path fill="#70422B" d="M26.442 34.639c-.375-.037-.755-.026-1.13 0-.357.026-.712.083-1.059.167-.6.145-1.57.492-1.317 1.31.284.805.722 1.485 1.511 1.784v.002l.06.02c.167.059.352.1.553.122.31.043.712.064 1.163-.003 1.084-.132 1.657-.831 2.012-1.716l.02-.047c.001-.007.003-.015.006-.022.417-1.081-1.027-1.541-1.819-1.617" transform="translate(4)"/>
            <path fill="#DB748A" d="M16.869 38.77c0 .319-.644.576-1.438.575-.794 0-1.438-.258-1.438-.575.001-.318.645-.575 1.439-.574.793 0 1.437.258 1.437.575M37.287 38.69c.015.315-.618.606-1.412.65-.794.044-1.45-.175-1.463-.49-.015-.314.618-.605 1.412-.65.794-.043 1.449.177 1.463.49M20.654 40.94c.52-.862 9.343-1.266 10.164-.443.821.823-.824 4.632-5.01 5.228-4.185.596-5.827-3.665-5.154-4.785" transform="translate(4)"/>
            <path fill="#854C37" d="M27.255 42.411c.905.274 1.724.77 2.509 1.298 1.18-1.273 1.528-2.738 1.054-3.213-.821-.822-9.645-.419-10.164.443-.341.57-.086 1.947.795 3.088 1.443-1.535 3.777-2.229 5.806-1.616" transform="translate(4)"/>
            <path fill="#985C37" d="M28.593 23.001l-.012-.033c-.166-.445-.524-.779-.913-1.033-.462-.302-.972-.557-1.513-.684-.574-.135-1.174-.118-1.752-.01-.325.06-.643.148-.955.257-.24.084-.472.185-.69.318-.202.124-.383.271-.553.435-.418.4-.745.958-.43 1.53.264.478.907.677 1.39.425.392-.202.785-.67.915-1.129l.048.003c.042.347.234.746.398 1.01.214.348.54.638.948.726.148.033.306.042.459.025 1.019-.158.835-1.123.835-1.123s.523.595 1.23.4c.107-.042.205-.098.289-.167.276-.227.417-.607.306-.95" transform="translate(4)"/>
            <path fill="#854C37" d="M19.64 35.194c-.05 0-.1-.007-.148-.022-.002 0-.236-.073-.553-.142-.695-.15-1.352-.127-1.95.069-.259.084-.538-.056-.622-.316-.084-.258.056-.537.316-.622.508-.165 1.041-.236 1.596-.21-.145-.095-.302-.184-.47-.264-.776-.37-1.44-.59-1.977-.65-.27-.03-.464-.274-.434-.544.03-.272.274-.465.546-.436.653.075 1.402.317 2.29.741.844.404 1.464.966 1.841 1.671.094.178.073.393-.055.547-.096.116-.235.178-.38.178M26.45 52.2s.58-1.13.59-1.55c0-.43-1.29-.27-1.29-.27s-.39-.05-.96.06c-.58.11-.63.58-.16 1.19.46.62.58 1.02.58 1.02s-.25 1.03-.58 2.43c-.34 1.4-1.91 4.06-2.34 4.62-.021.02-.03.04-.04.06.11.02.22.04.34.04 1.12.13 2.259.2 3.41.2h.15c.11 0 .21 0 .31-.01.11-.51.179-1.06.21-1.5.08-1.05-.151-4.34-.37-5.16-.23-.81.15-1.13.15-1.13" transform="translate(4)"/>
            <path fill="#854C37" d="M26.65 52.44c.04-.03.05-.05.07-.1.11-.2.62-1.21.63-1.69 0-.14-.06-.28-.17-.38-.33-.29-1.09-.24-1.43-.2-.13-.01-.51-.03-1.02.07-.43.08-.61.32-.68.5-.08.22-.1.61.33 1.18.31.41.46.72.51.85-.07.28-.29 1.18-.56 2.33-.32 1.34-1.85 3.95-2.28 4.51-.05.07-.1.14-.14.2.11.03.22.04.34.05.11.02.22.04.34.04.54-.75 2-3.27 2.34-4.65.33-1.4.58-2.43.58-2.43.02-.05.01-.11 0-.16-.01-.02-.15-.46-.64-1.11-.24-.33-.27-.52-.24-.59.03-.07.16-.1.21-.11.52-.1.87-.06.87-.06h.08c.36-.05.78-.03.93.02-.04.28-.31.9-.52 1.31-.14.14-.43.58-.2 1.4.21.74.45 3.99.37 5.05-.04.55-.12 1.08-.22 1.53.11 0 .21 0 .31-.01.11 0 .22 0 .32-.01.12-.6.18-1.18.2-1.47.08-1.06-.14-4.38-.39-5.26-.16-.59.06-.81.06-.81" transform="translate(4)"/>
            <path fill="#70422B" d="M35.789 35.195c.472-.477.728-1.155.549-1.905-.298-1.245-1.702-1.917-2.888-1.593-1.812.495-1.98 2.954-.421 3.895.93.562 2.073.296 2.76-.397" transform="translate(4)"/>
            <path fill="#FFF" d="M33.692 33.019c0 .238-.192.432-.43.432-.239 0-.432-.194-.432-.432s.193-.432.431-.432c.24 0 .431.194.431.432" transform="translate(4)"/>
            <path stroke="#FFF" stroke-width=".956" d="M33.692 33.019c0 .238-.192.432-.43.432-.239 0-.432-.194-.432-.432s.193-.432.431-.432c.24 0 .431.194.431.432z" transform="translate(4)"/>
            <path fill="#F6DFCC" d="M25.656 7.49c-13.807 0-25 8.25-25 18.43 0 4.345 2.047 8.34 5.463 11.49 0-.027-.004-.055-.004-.082 0-7.755 8.75-14.042 19.541-14.042 10.792 0 19.54 6.287 19.54 14.042l-.003.082c3.417-3.15 5.463-7.145 5.463-11.49 0-10.18-11.192-18.43-25-18.43" transform="translate(4)"/>
            <path fill="#FAAF40" d="M13.731 9.718c-.062.025-.123.054-.187.079l.187-.08M19.825 23.923c.166-.036.333-.068.499-.103-.166.035-.333.067-.499.103M13.307 9.898c.08-.033.157-.068.236-.101-.078.035-.157.068-.236.1" transform="translate(4)"/>
            <path fill="#E1BC9E" d="M15.531 18.044c-1.342-2.436-2.446-5.54-1.8-8.326-.062.025-.124.053-.187.08-.079.031-.158.066-.237.1-.526 2.707.502 5.565 1.71 7.975 1.111 2.217 2.718 4.503 4.808 6.05.166-.036.333-.068.5-.103-2.078-1.449-3.615-3.63-4.794-5.776" transform="translate(4)"/>
            <path fill="#FAAF40" d="M3.31 17.657c-.066.097-.136.191-.199.288.063-.097.133-.19.198-.288M13.958 26.08c.143-.076.289-.148.435-.222-.146.074-.293.146-.435.222M3.33 17.629l-.021.028c.007-.008.014-.018.02-.028" transform="translate(4)"/>
            <path fill="#E1BC9E" d="M3.33 17.629l-.021.028c-.065.097-.134.192-.198.288 1.438 1.76 3.468 3.217 5.22 4.522 1.642 1.221 3.578 2.688 5.627 3.613.142-.076.289-.148.435-.222-1.903-.824-3.7-2.158-5.26-3.263-1.937-1.374-4.256-3.01-5.803-4.966" transform="translate(4)"/>
            <path fill="#FAAF40" d="M8.577 30.507c.052-.067.105-.132.158-.198-.054.066-.106.131-.158.198" transform="translate(4)"/>
            <path fill="#E1BC9E" d="M4.888 29.305c-1.312-.315-2.607-.695-3.87-1.161l-.186-.068c.027.175.057.349.094.523 1.023.35 2.081.589 2.84.796 1.514.414 3.163.855 4.81 1.112.053-.067.105-.132.16-.198.04-.051.08-.102.12-.15-1.35-.21-2.697-.55-3.968-.854" transform="translate(4)"/>
            <path fill="#FAAF40" d="M30.988 23.82l.034.007-.034-.007M31.482 23.816h.004-.004zM38.004 9.898l-.076-.033c.025.012.05.022.076.033M37.58 9.718c.118.046.23.099.348.146-.116-.048-.23-.1-.347-.146M31.482 23.922c-.15-.033-.308-.063-.46-.095.152.032.31.062.46.095" transform="translate(4)"/>
            <path fill="#E1BC9E" d="M36.296 17.767c1.242-2.367 2.23-5.288 1.708-7.975l-.002-.004c-.145-.055-.28-.12-.421-.175.654 2.812-.495 5.843-1.8 8.325-1.125 2.145-2.718 4.334-4.793 5.776.012.004.024.005.035.008.153.03.31.062.46.095l.003-.001c2.09-1.551 3.644-3.83 4.81-6.05" transform="translate(4)"/>
            <path fill="#FAAF40" d="M47.994 17.647c.068.1.142.199.208.3-.066-.101-.141-.2-.208-.3M47.981 17.628c.005.005.01.012.013.02-.003-.008-.008-.015-.013-.02M48.203 17.948h-.001M36.925 25.83c.143.071.285.141.426.215-.14-.074-.283-.144-.424-.216h-.002z" transform="translate(4)"/>
            <path fill="#E1BC9E" d="M48.203 17.948h-.001c-.066-.103-.14-.202-.208-.302-.003-.007-.008-.013-.013-.018-1.478 1.86-3.658 3.4-5.495 4.746-1.623 1.187-3.541 2.623-5.56 3.487.14.072.285.143.424.216 1.93-.883 3.747-2.25 5.326-3.389 1.857-1.338 4.022-2.882 5.527-4.74" transform="translate(4)"/>
            <path fill="#FAAF40" d="M42.464 30.167c.09.108.178.218.264.328-.086-.109-.174-.22-.264-.328M50.482 28.07c-.028.181-.062.363-.097.543.036-.18.07-.361.097-.543M50.483 28.612v.006-.006z" transform="translate(4)"/>
            <path fill="#E1BC9E" d="M50.58 28.07c-1.202.479-2.46.83-3.716 1.15-1.366.35-2.833.726-4.303.948.09.108.178.218.265.328 1.529-.244 3.056-.647 4.48-1.011.833-.215 2.034-.473 3.177-.866v-.006c.035-.18.069-.361.097-.543M25.933 7.43c-.093-.002-.185-.006-.277-.006h-.1c-.725 5.21-.192 10.556-.122 15.8.072-.001.147-.005.222-.005.051 0 .103.004.157.004-.072-5.24-.616-10.59.12-15.793" transform="translate(4)"/>
            <path fill="#A16327" d="M25.656 20.429c-11.623 0-21.168 6.117-22.22 13.93.76 1.085 1.2 1.7 2.223 2.645 0-.027.457.352.457.324 0-7.754 8.75-14.042 19.54-14.042 10.792 0 19.542 6.288 19.542 14.042 0 .028-.004.055-.005.082 1.025-.943 1.924-1.966 2.683-3.05-1.05-7.814-10.596-13.931-22.22-13.931" transform="translate(4)"/>
            <path fill="#FFF" d="M40.07 3.5c-2.28-1.22-4.73-2.14-7.32-2.73-.09-.03-.18-.05-.28-.06-3.25 1.37-6.92 2.63-9.06 4.49-.89.78-1.53 1.64-1.96 2.55-1.78 3.8.07 8.54 2.37 12.06.02.04.05.09.08.13.03.04.05.08.08.12.01.01.01.02.02.03l.44.37.52.43.32.27h.01l.09.07.23.19.15.13c0-.01.01-.02.01-.03v-.01l.03-.06c.02-.08.05-.16.09-.24.07-.19.15-.38.24-.57.02-.07.06-.13.09-.2.13-.26.26-.5.41-.75.03-.04.06-.09.09-.13.02-.04.04-.08.07-.12 2.49-3.85 7.6-6.45 10.66-9.78.12-.12.23-.25.34-.37 1.2-1.54 2.34-3.37 2.98-5.4-.23-.14-.46-.27-.7-.39" transform="translate(4)"/>
            <path fill="#E1BC9E" d="M40.77 3.89c-.23-.14-.46-.27-.7-.39-.69 1.84-1.83 3.73-3.34 5.68-.05.05-.09.11-.15.16-1.3 1.44-3.25 2.72-5 4.07-2.32 1.78-3.91 3.63-5.05 5.91-.02.04-.04.08-.06.13-.03.04-.05.08-.07.13-.06.12-.12.25-.18.38-.04.08-.07.16-.11.24v.01c-.03.08-.07.15-.1.23-.03.08-.07.17-.1.25-.05.13-.11.27-.15.4-.02.03-.03.06-.04.09-.01.04-.03.07-.04.11l-.07-.11v-.01l-.22-.37-.02-.04-.11-.19-.08-.13-.32-.55c-.05-.08-.11-.15-.17-.24 0 0 .01 0 0-.01 0 0 0-.01-.01-.02-.03-.04-.06-.09-.08-.13-.03-.04-.06-.08-.08-.12-1.73-2.61-4.69-7.57-2.84-11.65.39-.85.98-1.66 1.83-2.4 1.72-1.49 4.48-2.61 7.15-3.69.71-.29 1.41-.57 2.09-.86-.09-.03-.18-.05-.28-.06-.08-.03-.17-.05-.25-.06-.55.23-1.11.46-1.68.69-2.69 1.09-5.48 2.22-7.23 3.75-.95.83-1.62 1.74-2.05 2.69-1.99 4.35.77 9.6 2.43 12.15l.09.12c.02.04.05.08.08.12v.01l.35.29.55.46.29.24.33.27.01.01.39.33.05.04.08-.22c.01-.04.03-.07.04-.11.03-.09.06-.17.1-.26.08-.21.17-.42.27-.63.02-.05.05-.1.07-.16.12-.23.25-.45.38-.67.03-.04.05-.09.08-.13.03-.04.05-.08.08-.12 1.46-2.25 3.81-4.07 6.11-5.85 1.69-1.3 3.29-2.54 4.56-3.93l.01-.01c.03-.03.05-.05.07-.08.09-.09.16-.17.24-.26 1.43-1.85 2.43-3.66 2.99-5.42-.05-.04-.09-.06-.14-.08" transform="translate(4)"/>
            <path fill="#E1BC9E" d="M26.255 19.831c.232-2.067-.463-4.085.164-6.123.518-1.686 3.355-6.367 2.54-5.759-1.646 1.233-2.976 2.895-3.831 4.767-1.06 2.324-.177 4.702-.447 7.115-.114 1.01 1.46 1 1.574 0" transform="translate(4)"/>
            <path fill="#FAAF40" d="M28.65 23.248c0 2.188-1.374 3.962-3.066 3.962-1.694 0-3.066-1.774-3.066-3.962 0-2.189 1.372-3.964 3.066-3.964 1.692 0 3.065 1.775 3.065 3.964" transform="translate(4)"/>
            <path fill="#F9EC31" d="M25.584 19.43c-1.61 0-2.92 1.714-2.92 3.818 0 2.103 1.31 3.818 2.92 3.818 1.609 0 2.919-1.715 2.919-3.818 0-2.104-1.31-3.817-2.92-3.817m0 7.926c-1.77 0-3.211-1.844-3.211-4.11 0-2.264 1.44-4.11 3.212-4.11 1.77 0 3.21 1.846 3.21 4.11 0 2.266-1.44 4.11-3.21 4.11" transform="translate(4)"/>
            <path fill="#EC1C24" d="M27.117 23.703c0 1.265-.687 2.287-1.533 2.287-.847 0-1.533-1.022-1.533-2.287 0-1.262.686-2.284 1.533-2.284.846 0 1.533 1.022 1.533 2.284" transform="translate(4)"/>
            <path fill="#FFF" d="M24.932 23.291c.045-.462.213-.869.457-1.177-.539.154-.98.75-1.053 1.497-.09.915.403 1.71 1.097 1.778.198.02.392-.026.57-.117-.695-.193-1.164-1.029-1.07-1.98" transform="translate(4)"/>
        </g>
    </g>
</svg>
