<svg xmlns="http://www.w3.org/2000/svg" width="180" height="26" viewBox="0 0 180 26">
    <g fill="none" fill-rule="evenodd">
        <path fill="#686868" d="M27.782 12.998V13h4.442v-.002c0-6.961-5.637-12.6-12.596-12.6-4.55 0-8.518 2.414-10.736 6.02V.399H4.447L0 4.846h4.446v20.753h4.447v-6.025C7.716 17.658 7.024 15.41 7.024 13c0-2.621.98-5.01 2.582-6.835.04-.044.08-.091.122-.133.223-.25.457-.48.703-.705l.15-.137c.27-.234.551-.46.845-.667.024-.015.046-.034.07-.052.328-.227.67-.438 1.024-.626.014-.01.03-.014.043-.022.32-.17.652-.32.989-.454.101-.041.204-.075.306-.112.26-.096.523-.18.791-.253.125-.034.25-.07.377-.097.27-.062.543-.113.819-.154.117-.018.235-.04.355-.055.395-.046.793-.075 1.2-.075.604 0 1.192.059 1.768.159.073.013.151.017.223.033.1.02.197.049.294.07.86.193 1.681.484 2.444.876.004 0 .006.004.009.005.28.142.553.299.819.469.023.015.043.03.066.048.241.157.48.32.709.499.021.016.038.033.058.046.229.18.451.367.665.566.018.014.035.036.053.05.212.2.418.406.61.622.021.026.041.053.063.078.188.212.367.429.537.658.072.095.134.2.205.3.11.16.224.317.329.483.102.172.192.352.29.529.053.1.116.2.166.306.098.197.181.403.265.609.04.09.084.177.12.27.11.29.207.588.291.89l.01.03c.174.627.29 1.275.343 1.946.03.272.044.55.044.833M44.047 16.703h-7.416l7.416-7.405v7.405zm4.441 0V.398h-.74L27.735 20.41h16.312v5.19h4.441v-5.19h5.188v-3.708h-5.188z"/>
        <path fill="#FF7800" d="M27.735 20.408l4.012-4.011c.304-1.085.476-2.22.476-3.4h-4.441c0 4.5-3.65 8.153-8.154 8.153-4.508 0-8.153-3.652-8.153-8.152 0-4.502 3.645-8.153 8.153-8.153 4.22 0 7.689 3.207 8.11 7.313-.427-5.334-4.884-9.535-10.337-9.535-5.734 0-10.375 4.646-10.375 10.375 0 6.958 5.639 12.6 12.602 12.6 4.185 0 7.882-2.046 10.173-5.19h-2.066z"/>
        <path fill="#686868" d="M106.013.373V2.27h2.742v1.978h-.79c-.089.545-.168 1.22-.238 2.03-.106.844-.22 1.617-.343 2.32h2.188c-.14-2.426-.21-5.097-.21-8.015l2.188.21c-.07 2.655-.044 5.256.08 7.805h4.824v1.978h-4.693c.141 2.02.395 4.034.765 6.038 0 .193.026.378.08.554.561-1.213 1.106-2.936 1.633-5.168l2.004.5c-.685 2.848-1.67 5.388-2.953 7.62.123.475.264.95.422 1.425.193.58.352.87.475.87.088 0 .158-.08.211-.238.105-.404.167-1.53.184-3.375l2.083.633c-.176 2.444-.378 4.008-.606 4.694-.158.492-.378.826-.659 1-.317.212-.66.318-1.029.318-.369-.018-.72-.246-1.054-.686-.457-.615-.897-1.476-1.319-2.584-1.845 2.215-2.795 3.349-2.847 3.402l-1.767-1.32c1.582-1.493 2.856-3.005 3.823-4.534-.738-2.707-1.239-5.757-1.503-9.15h-9.096V8.6h1.82c-.142-1.722-.326-3.173-.555-4.35h-.949V2.27h3.006V.373h2.083zm23.152.105v9.861h3.586v2.083h-3.586v.185c1.354 1.582 2.62 3.226 3.797 4.931l-1.687 1.239c-.598-.985-1.3-2.039-2.11-3.164v9.888h-2.083v-9.176c-.35.949-1.028 2.215-2.03 3.797l-2.057-.739c1.547-2.056 2.725-4.377 3.533-6.961h-3.19v-2.083h3.744V.478h2.083zm17.561 11.391c.351 0 .527.167.527.501v10.494c0 .879-.343 1.555-1.028 2.03-.967.633-2.619.712-4.957.237l-.079-2.425c1.757.457 2.856.545 3.295.263.387-.228.581-.553.581-.975v-1.24h-8.992v4.615h-2.188V12.37c0-.334.167-.501.501-.501h12.34zM77.113.267c1.635.826 3.085 1.714 4.35 2.663L80.25 4.539h4.087v2.294H73.843v.448c.071.808.167 1.485.29 2.03.44 2.109 1.108 3.797 2.004 5.063 1.969 3.146 4.94 6.038 8.912 8.674l-1.925 1.582c-4.763-3.533-7.857-6.776-9.281-9.73v7.595c0 1.037-.422 1.845-1.265 2.426-1.02.667-2.954.57-5.801-.291l.105-2.478c.967.334 1.661.536 2.083.606 1.09.264 1.828.229 2.215-.105.176-.141.264-.404.264-.791V6.832H60.581V4.54h10.863V.689h2.399v3.85h5.959c-1.336-.985-2.645-1.767-3.929-2.347l1.24-1.925zm23.31.686v2.083h-.949V25.29h-2.083v-3.876l-4.984 2.004-.922-1.872 1.582-.633V3.036h-1.213V.953h8.57zm78.368 15.082v1.872h-4.72l1.134.79c-.194.212-.352.423-.475.634 1.16.457 2.276.958 3.349 1.503l-.87 1.898c-1.055-.633-2.303-1.292-3.745-1.977-1.265 1.037-2.083 1.66-2.452 1.872l-1.424-1.61c1.547-.895 2.743-1.932 3.586-3.11h-4.825v4.93h11.074v1.978h-24.39v-1.977h11.233v-4.931h-4.825l1.107.79c-.158.212-.316.405-.474.58 1.09.493 2.144 1.029 3.164 1.609l-.976 1.846c-.95-.668-2.092-1.353-3.427-2.057-1.196 1.02-2.066 1.67-2.611 1.952l-1.371-1.635c1.406-.738 2.637-1.767 3.692-3.085h-4.773v-1.872h23.019zM68.886 14.268l1.846 1.398c-2.285 2.759-5.441 5.589-9.466 8.49L60 22.205c2.461-1.776 4.333-3.226 5.617-4.351.966-.896 2.056-2.092 3.269-3.586zm39.605-2.557c.457 0 .686.219.686.659v9.466c0 .474-.237.71-.712.71h-5.3v1.162h-2.083V12.37c0-.44.22-.66.66-.66h6.75zm-1.397 6.565h-3.929v2.188h3.507c.281 0 .422-.14.422-.421v-1.767zm-9.703-2.795h-2.24v4.588l2.24-.897V15.48zm47.674 1.793h-8.99v1.608h8.99v-1.608zm-38.34-3.48h-3.217c-.229 0-.343.114-.343.342v2.162h3.93v-2.162c-.019-.228-.142-.342-.37-.342zm38.155.052h-8.648c-.106 0-.159.053-.159.158v1.398h8.992v-1.398c0-.105-.062-.158-.185-.158zm-62.889-5.51l1.819 1.397c-1.213 1.635-2.927 3.41-5.142 5.326l-1.503-1.74c2.198-1.934 3.806-3.595 4.826-4.983zm88.468 1.74c.175 0 .263.079.263.237v4.43c0 .176-.088.264-.263.264h-6.223c-.158 0-.237-.088-.237-.264v-4.43c0-.158.079-.237.237-.237h6.223zm7.804-.106c.176 0 .264.08.264.238v4.535c0 .176-.088.264-.264.264h-6.222c-.16 0-.238-.088-.238-.264v-4.535c0-.158.079-.238.238-.238h6.222zm-15.82 0c.176 0 .264.08.264.238v4.429c0 .176-.088.264-.264.264h-6.223c-.158 0-.237-.088-.237-.264v-4.43c0-.157.079-.237.237-.237h6.223zM63.27 8.73c1.758 1.636 3.146 3.068 4.166 4.299l-1.767 1.424c-1.283-1.617-2.636-3.006-4.06-4.166L63.27 8.73zm34.121.528h-2.24v4.14h2.24v-4.14zm71.459 2.584h-3.006c-.052 0-.08.027-.08.08v1.212c0 .07.028.106.08.106h3.006c.07 0 .106-.035.106-.106v-1.212c0-.053-.036-.08-.106-.08zm7.805-.105h-3.006c-.053 0-.08.026-.08.079v1.318c0 .07.027.106.08.106h3.006c.07 0 .105-.035.105-.106v-1.318c0-.053-.035-.08-.105-.08zm-15.82 0h-3.006c-.053 0-.08.026-.08.079v1.213c0 .07.027.105.08.105h3.006c.07 0 .105-.035.105-.105v-1.213c0-.053-.035-.08-.105-.08zM141.558.267v1.529h6.17v1.872h-6.17v1.503h5.537v1.872h-5.537v1.398h6.592v2.083h-15.109V8.441h6.328V7.043h-5.168V5.171h5.168V3.668h-5.695V1.796h5.695V.267h2.19zm35.967.264v1.66h-9.176v.924h9.94l1.609.817c-.018 1.16-.246 2.514-.686 4.06l-1.82-.5c.335-1.283.467-2.066.397-2.347.017-.176-.062-.263-.238-.263h-9.202v4.482h-2.083V4.882h-8.912c-.123 0-.184.06-.184.184v2.769h-1.873V3.458c0-.23.115-.343.343-.343h10.626v-.923h-9.228V.53h20.487zm-.95 7.33v1.345h-7.197V7.86h7.198zm-11.284 0v1.345h-6.987V7.86h6.987zm-34.333-5.458l2.03.422c-.404 2.654-.817 4.719-1.239 6.196l-1.977-.58c.685-2.373 1.081-4.386 1.186-6.038zm-5.563-.106c.51 2.11.843 4.272 1.002 6.487l-2.057.132c-.123-1.53-.448-3.639-.976-6.329l2.031-.29zm-19.382 1.952h-2.215c.264 1.265.448 2.715.554 4.35h1.028c.158-.685.37-2.136.633-4.35zm-8.622-1.213h-2.24v4.14h2.24v-4.14zm79.185 2.715v1.345h-7.198V5.75h7.198zm-11.285 0v1.345h-6.987V5.75h6.987zM114.424 1.4c.668 1.266 1.266 2.874 1.793 4.825l-2.004.686c-.58-2.022-1.16-3.595-1.74-4.72l1.951-.791z"/>
    </g>
</svg>
