<?xml version="1.0" encoding="utf-8"?>
<!-- Generator: Adobe Illustrator 23.0.6, SVG Export Plug-In . SVG Version: 6.00 Build 0)  -->
<svg version="1.1" id="圖層_1" xmlns="http://www.w3.org/2000/svg" xmlns:xlink="http://www.w3.org/1999/xlink" x="0px" y="0px"
	 viewBox="0 0 680 383" style="enable-background:new 0 0 680 383;" xml:space="preserve">
<style type="text/css">
	.st0{fill:#FFFFFF;}
	.st1{fill:#F3F3F3;}
</style>
<g>
	<rect class="st0" width="680" height="383"/>
	<g>
		<g>
			<g>
				<path class="st1" d="M339.9,58.9c-82.5,0-150.3,67.3-150.3,150v70.6c0,14.6,11.9,26.5,26.4,26.5h8.8v-88.3h-8.8
					c-3.1,0-6,0.6-8.8,1.6V209c0-73,59.8-132.4,132.7-132.4S472.6,136,472.6,209v10.5c-2.8-1-5.7-1.6-8.8-1.6H455V306h8.8
					c14.6,0,26.4-11.9,26.4-26.5V209C490.2,126.2,422.5,58.9,339.9,58.9z"/>
				<path class="st1" d="M268.9,200.1h-8.8c-9.7,0-17.6,7.9-17.6,17.7V306c0,9.8,7.9,17.7,17.6,17.7h8.8c4.9,0,8.8-3.9,8.8-8.8V209
					C277.7,204.1,273.8,200.1,268.9,200.1z M419.8,200.1H411c-4.9,0-8.8,3.9-8.8,8.8v105.9c0,4.9,3.9,8.8,8.8,8.8h8.8
					c9.7,0,17.6-7.9,17.6-17.7v-88.3C437.4,208,429.5,200.1,419.8,200.1z"/>
			</g>
		</g>
	</g>
</g>
</svg>
