<svg xmlns="http://www.w3.org/2000/svg" width="16" height="17" viewBox="0 0 16 17">
    <g fill="none" fill-rule="evenodd">
        <g fill="#1654B9">
            <g>
                <g>
                    <g>
                        <g>
                            <path d="M4.533 1.727c-.29.293-.29.766 0 1.06L9.867 8l-5.334 5.213c-.296.29-.302.764-.013 1.06.289.297.764.303 1.06.014l5.86-5.754c.145-.14.227-.332.227-.533s-.082-.394-.227-.533L5.593 1.713c-.142-.14-.333-.216-.532-.214-.2.003-.39.085-.528.228z" transform="translate(-630 -2957) translate(364 983) translate(138 1115) translate(0 858) translate(128 2)"/>
                        </g>
                    </g>
                </g>
            </g>
        </g>
    </g>
</svg>
