<?xml version="1.0" encoding="utf-8"?>
<!-- Generator: Adobe Illustrator 24.0.2, SVG Export Plug-In . SVG Version: 6.00 Build 0)  -->
<svg version="1.1" id="圖層_1" xmlns="http://www.w3.org/2000/svg" xmlns:xlink="http://www.w3.org/1999/xlink" x="0px" y="0px"
	 viewBox="0 0 24 24" style="enable-background:new 0 0 24 24;" xml:space="preserve">
<style type="text/css">
	.st0{fill:#FFFFFF;}
</style>
<g>
	<g>
		<path class="st0" d="M11.81,5.78c-0.35,0-0.64-0.29-0.64-0.64v-1.4c0-0.35,0.29-0.64,0.64-0.64h0.5c0.35,0,0.64,0.29,0.64,0.64
			v1.4c0,0.35-0.29,0.64-0.64,0.64H11.81z"/>
	</g>
	<g>
		<path class="st0" d="M18.8,12.83c-0.35,0-0.64-0.29-0.64-0.64v-0.5c0-0.35,0.29-0.64,0.64-0.64h1.4c0.35,0,0.64,0.29,0.64,0.64
			v0.5c0,0.35-0.29,0.64-0.64,0.64H18.8z"/>
	</g>
	<g>
		<path class="st0" d="M11.77,20.81c-0.35,0-0.64-0.29-0.64-0.64v-1.4c0-0.35,0.29-0.64,0.64-0.64h0.5c0.35,0,0.64,0.29,0.64,0.64
			v1.4c0,0.35-0.29,0.64-0.64,0.64H11.77z"/>
	</g>
	<g>
		<path class="st0" d="M3.8,12.89c-0.35,0-0.64-0.29-0.64-0.64v-0.5c0-0.35,0.29-0.64,0.64-0.64h1.4c0.35,0,0.64,0.29,0.64,0.64v0.5
			c0,0.35-0.29,0.64-0.64,0.64H3.8z"/>
	</g>
	<g>
		<g>
			<path class="st0" d="M10.94,13.44c-0.04,0-0.08-0.01-0.12-0.02c-0.12-0.03-0.23-0.11-0.29-0.22l-0.19-0.32
				c-0.13-0.23-0.05-0.52,0.18-0.65l4.41-2.55c0.08-0.04,0.16-0.06,0.24-0.06c0.17,0,0.33,0.09,0.42,0.24l0.19,0.32
				c0.06,0.11,0.08,0.24,0.05,0.36s-0.11,0.23-0.22,0.29l-4.41,2.55C11.11,13.42,11.02,13.44,10.94,13.44z"/>
		</g>
		<g>
			<path class="st0" d="M12.52,13.93c-0.04,0-0.08-0.01-0.12-0.02c-0.12-0.03-0.23-0.11-0.29-0.22L9.08,8.45
				C8.94,8.22,9.02,7.93,9.25,7.79L9.57,7.6c0.07-0.04,0.16-0.06,0.24-0.06c0.04,0,0.08,0.01,0.12,0.02
				c0.12,0.03,0.23,0.11,0.29,0.22l3.03,5.24c0.13,0.23,0.05,0.52-0.18,0.65l-0.32,0.19C12.68,13.91,12.6,13.93,12.52,13.93z"/>
		</g>
	</g>
	<g>
		<path class="st0" d="M20.21,24H3.79C1.7,24,0,22.3,0,20.21V3.79C0,1.7,1.7,0,3.79,0h16.42C22.3,0,24,1.7,24,3.79v16.42
			C24,22.3,22.3,24,20.21,24z M3.79,2.11c-0.93,0-1.68,0.76-1.68,1.68v16.42c0,0.93,0.76,1.68,1.68,1.68h16.42
			c0.93,0,1.68-0.76,1.68-1.68V3.79c0-0.93-0.76-1.68-1.68-1.68C20.21,2.11,3.79,2.11,3.79,2.11z"/>
	</g>
</g>
</svg>
